<?xml version="1.0" encoding="UTF-8" standalone="no"?>
<svg
   xmlns:dc="http://purl.org/dc/elements/1.1/"
   xmlns:cc="http://creativecommons.org/ns#"
   xmlns:rdf="http://www.w3.org/1999/02/22-rdf-syntax-ns#"
   xmlns:svg="http://www.w3.org/2000/svg"
   xmlns="http://www.w3.org/2000/svg"
   xmlns:sodipodi="http://sodipodi.sourceforge.net/DTD/sodipodi-0.dtd"
   xmlns:inkscape="http://www.inkscape.org/namespaces/inkscape"
   version="1.1"
   id="svg2"
   xml:space="preserve"
   width="250"
   height="66.521332"
   viewBox="0 0 250 66.521331"
   sodipodi:docname="AYY.svg"
   inkscape:version="1.0.2-2 (e86c870879, 2021-01-15)"><metadata
     id="metadata8"><rdf:RDF><cc:Work
         rdf:about=""><dc:format>image/svg+xml</dc:format><dc:type
           rdf:resource="http://purl.org/dc/dcmitype/StillImage" /><dc:title></dc:title></cc:Work></rdf:RDF></metadata><defs
     id="defs6"><clipPath
       clipPathUnits="userSpaceOnUse"
       id="clipPath18"><path
         d="M 0,0 H 841.89 V 595.276 H 0 Z"
         id="path16" /></clipPath></defs><sodipodi:namedview
     pagecolor="#ffffff"
     bordercolor="#666666"
     borderopacity="1"
     objecttolerance="10"
     gridtolerance="10"
     guidetolerance="10"
     inkscape:pageopacity="0"
     inkscape:pageshadow="2"
     inkscape:window-width="2560"
     inkscape:window-height="1377"
     id="namedview4"
     showgrid="false"
     inkscape:zoom="3.9340056"
     inkscape:cx="95.651429"
     inkscape:cy="21.396683"
     inkscape:window-x="1072"
     inkscape:window-y="43"
     inkscape:window-maximized="1"
     inkscape:current-layer="g10"
     inkscape:document-rotation="0" /><g
     id="g10"
     inkscape:groupmode="layer"
     inkscape:label="ayy_sign_solid_rgb"
     transform="matrix(1.3333333,0,0,-1.3333333,-460.18986,428.45186)"><g
       id="g12"
       transform="translate(18.915206)"><g
         id="g14"
         clip-path="url(#clipPath18)"><g
           id="g20"
           transform="translate(484.833,321.3389)"><path
             d="m 0,0 v -19.956 c -11.021,0 -19.956,8.935 -19.956,19.956 h -9.978 c 0,-16.532 13.403,-29.935 29.934,-29.935 0,-5.51 -4.467,-9.977 -9.978,-9.977 -5.509,0 -9.978,4.467 -9.978,9.977 h -9.978 c 0,-11.02 8.935,-19.956 19.956,-19.956 11.022,0 19.957,8.936 19.957,19.956 L 9.979,0 Z"
             style="fill:#000000;fill-opacity:1;fill-rule:nonzero;stroke:none"
             id="path22" /></g><g
           id="g24"
           transform="translate(370.0874,281.4268)"><path
             d="m 0,0 c -8.267,0 -14.967,6.701 -14.967,14.967 0,8.266 6.7,14.967 14.967,14.967 8.265,0 14.966,-6.701 14.967,-14.966 V 14.965 C 14.966,6.7 8.265,0 0,0 m 24.944,14.972 v 24.94 H 14.967 V 34.923 C 10.798,38.055 5.616,39.912 0,39.912 c -13.776,0 -24.945,-11.168 -24.945,-24.945 0,-13.777 11.169,-24.945 24.945,-24.945 5.616,0 10.798,1.857 14.967,4.989 v -4.989 h 9.977 v 24.945 z"
             style="fill:#000100;fill-opacity:1;fill-rule:nonzero;stroke:none"
             id="path26" /></g><g
           id="g28"
           transform="translate(434.9434,321.3389)"><path
             d="m 0,0 v -19.956 c -11.021,0 -19.956,8.935 -19.956,19.956 h -9.978 c 0,-16.532 13.402,-29.935 29.934,-29.935 0,-5.51 -4.467,-9.977 -9.979,-9.977 -5.509,0 -9.977,4.467 -9.977,9.977 h -9.978 c 0,-11.02 8.935,-19.956 19.955,-19.956 11.022,0 19.958,8.936 19.958,19.956 V 0 Z"
             style="fill:#000000;fill-opacity:1;fill-rule:nonzero;stroke:none"
             id="path30" /></g></g></g></g></svg>
