<?xml version="1.0" encoding="UTF-8" standalone="no"?>
<svg
   xmlns:dc="http://purl.org/dc/elements/1.1/"
   xmlns:cc="http://creativecommons.org/ns#"
   xmlns:rdf="http://www.w3.org/1999/02/22-rdf-syntax-ns#"
   xmlns:svg="http://www.w3.org/2000/svg"
   xmlns="http://www.w3.org/2000/svg"
   xmlns:sodipodi="http://sodipodi.sourceforge.net/DTD/sodipodi-0.dtd"
   xmlns:inkscape="http://www.inkscape.org/namespaces/inkscape"
   version="1.1"
   id="svg2"
   xml:space="preserve"
   width="2400"
   height="1440"
   viewBox="0 0 2400 1440"
   sodipodi:docname="IE.svg"
   inkscape:version="1.0.2-2 (e86c870879, 2021-01-15)"><metadata
     id="metadata8"><rdf:RDF><cc:Work
         rdf:about=""><dc:format>image/svg+xml</dc:format><dc:type
           rdf:resource="http://purl.org/dc/dcmitype/StillImage" /><dc:title /></cc:Work></rdf:RDF></metadata><defs
     id="defs6"><clipPath
       clipPathUnits="userSpaceOnUse"
       id="clipPath18"><path
         d="M 0,1080 H 1920 V 0 H 0 Z"
         id="path16" /></clipPath></defs><sodipodi:namedview
     pagecolor="#ffffff"
     bordercolor="#666666"
     borderopacity="1"
     objecttolerance="10"
     gridtolerance="10"
     guidetolerance="10"
     inkscape:pageopacity="0"
     inkscape:pageshadow="2"
     inkscape:window-width="2560"
     inkscape:window-height="1377"
     id="namedview4"
     showgrid="false"
     inkscape:zoom="0.4125"
     inkscape:cx="1280"
     inkscape:cy="720"
     inkscape:window-x="1072"
     inkscape:window-y="43"
     inkscape:window-maximized="1"
     inkscape:current-layer="g20"
     inkscape:document-rotation="0" /><g
     id="g10"
     inkscape:groupmode="layer"
     inkscape:label="IE-logo"
     transform="matrix(1.3333333,0,0,-1.3333333,0,1440)"><g
       id="g12"
       transform="translate(-57.671877)"><g
         id="g14"
         clip-path="url(#clipPath18)"><g
           id="g20"
           transform="translate(638.3579,537.7246)"><path
             d="m 0,0 c 0,176.069 143.245,319.313 319.316,319.313 176.07,0 319.312,-143.244 319.312,-319.313 0,-176.07 -143.242,-319.314 -319.312,-319.314 C 143.245,-319.314 0,-176.07 0,0 m 808.309,-189.105 29.469,111.181 -82.955,21.988 c 2.336,18.321 3.547,36.991 3.547,55.936 0,19.863 -1.356,39.414 -3.921,58.585 l 82.843,22.5 -30.142,111 -82.862,-22.505 c -14.771,35.129 -33.99,67.937 -56.933,97.74 l 60.788,60.912 -81.408,81.251 -60.794,-60.912 c -29.128,22.334 -61.106,41.124 -95.313,55.674 l 22.857,82.761 -110.864,30.621 -22.857,-82.751 c -19.764,2.734 -39.938,4.18 -60.448,4.18 -20.509,0 -40.679,-1.446 -60.447,-4.18 l -22.855,82.751 -110.868,-30.621 22.857,-82.759 C 114.343,389.928 82.841,371.511 54.088,349.649 l -61.256,61.66 -81.599,-81.067 61.116,-61.518 C -51.614,237.856 -71.546,203.718 -86.672,167.103 l -83.01,22.002 -29.468,-111.181 82.953,-21.987 c -2.339,-18.321 -3.546,-36.991 -3.546,-55.937 0,-19.865 1.352,-39.42 3.92,-58.594 l -82.839,-22.494 30.145,-110.998 82.859,22.502 c 14.766,-35.127 33.987,-67.934 56.933,-97.738 l -60.788,-60.907 81.413,-81.257 60.788,60.914 c 29.128,-22.338 61.108,-41.123 95.315,-55.678 l -22.857,-82.756 110.868,-30.623 22.855,82.752 c 19.768,-2.73 39.942,-4.178 60.447,-4.178 20.51,0 40.676,1.448 60.448,4.178 l 22.857,-82.752 110.864,30.623 -22.857,82.756 c 34.136,14.521 66.046,33.268 95.127,55.533 l 60.038,-60.433 81.601,81.066 -60.184,60.578 c 23.549,30.547 43.162,64.268 58.091,100.402 z"
             style="fill:#b9d8c2;fill-opacity:1;fill-rule:nonzero;stroke:none"
             id="path22" /></g><g
           id="g24"
           transform="translate(873.7939,369.0957)"><path
             d="m 0,0 h -138.507 v 16.877 c 3.9,0.314 9.537,0.795 16.906,1.428 7.372,0.631 12.572,1.578 15.608,2.847 4.767,2.061 8.236,4.875 10.404,8.442 2.167,3.566 3.25,8.508 3.25,14.851 V 288.77 c 0,5.546 -0.797,10.182 -2.385,13.902 -1.589,3.724 -5.346,6.853 -11.269,9.393 -4.335,1.9 -9.791,3.683 -16.368,5.344 -6.574,1.668 -11.955,2.652 -16.146,2.972 v 16.876 H 0 v -16.876 c -4.483,-0.159 -9.829,-0.753 -16.04,-1.781 -6.215,-1.031 -11.634,-2.342 -16.258,-3.924 -5.494,-1.9 -9.178,-4.989 -11.054,-9.268 -1.878,-4.278 -2.818,-9.032 -2.818,-14.261 V 47.063 c 0,-5.231 1.046,-9.864 3.142,-13.903 2.093,-4.047 5.671,-7.25 10.73,-9.625 3.036,-1.271 7.983,-2.66 14.847,-4.166 6.864,-1.506 12.68,-2.336 17.451,-2.492 z"
             style="fill:#b9d8c2;fill-opacity:1;fill-rule:nonzero;stroke:none"
             id="path26" /></g><g
           id="g28"
           transform="translate(1149.667,706.3525)"><path
             d="m 0,0 0.342,-77.83 -13.022,-0.057 c -6.072,20.301 -13.04,33.862 -20.89,40.684 -7.868,6.818 -18.765,10.203 -32.719,10.138 l -89.029,-0.395 0.526,-118.974 77.08,0.345 c 13.805,0.06 23.608,3.451 29.417,10.169 5.811,6.716 8.665,18.83 8.594,36.348 l 14.309,0.066 0.546,-121.944 -14.309,-0.067 c -0.085,18.998 -2.818,31.832 -8.179,38.506 -5.369,6.662 -15.461,9.965 -30.252,9.901 l -77.079,-0.344 0.459,-103.858 c 0.04,-9.58 0.639,-16.566 1.804,-20.935 1.158,-4.369 3.407,-7.383 6.762,-9.014 3.35,-1.638 8.733,-2.441 16.134,-2.408 l 65.336,0.295 c 14.796,0.066 26.995,2.553 36.581,7.475 9.587,4.916 17.738,12.263 24.457,22.041 6.717,9.777 13.665,23.357 20.851,40.748 l 13.875,0.058 -23.904,-97.021 -264.757,-1.184 -0.07,16.113 c 11.957,0.059 20.985,1.415 27.097,4.086 6.106,2.67 10.393,7.692 12.853,15.053 2.456,7.358 3.652,18.397 3.587,33.109 l -0.896,200.024 c -0.062,14.538 -1.318,25.519 -3.772,32.949 -2.458,7.423 -6.748,12.447 -12.878,15.062 -6.135,2.612 -15.252,3.899 -27.346,3.844 l -0.075,15.862 z"
             style="fill:#b9d8c2;fill-opacity:1;fill-rule:nonzero;stroke:none"
             id="path30" /></g></g></g></g></svg>
