<?xml version="1.0" encoding="UTF-8" standalone="no"?>
<svg
   xmlns:dc="http://purl.org/dc/elements/1.1/"
   xmlns:cc="http://creativecommons.org/ns#"
   xmlns:rdf="http://www.w3.org/1999/02/22-rdf-syntax-ns#"
   xmlns:svg="http://www.w3.org/2000/svg"
   xmlns="http://www.w3.org/2000/svg"
   xmlns:sodipodi="http://sodipodi.sourceforge.net/DTD/sodipodi-0.dtd"
   xmlns:inkscape="http://www.inkscape.org/namespaces/inkscape"
   viewBox="5070 3136.761 289.698 44.372811"
   class="svg replaced-svg"
   version="1.1"
   id="svg25"
   sodipodi:docname="Papula-Nevinpat.svg"
   width="289.698"
   height="44.37281"
   inkscape:version="1.0.2-2 (e86c870879, 2021-01-15)">
  <metadata
     id="metadata29">
    <rdf:RDF>
      <cc:Work
         rdf:about="">
        <dc:format>image/svg+xml</dc:format>
        <dc:type
           rdf:resource="http://purl.org/dc/dcmitype/StillImage" />
        <dc:title></dc:title>
      </cc:Work>
    </rdf:RDF>
  </metadata>
  <sodipodi:namedview
     pagecolor="#ff1aff"
     bordercolor="#666666"
     borderopacity="1"
     objecttolerance="10"
     gridtolerance="10"
     guidetolerance="10"
     inkscape:pageopacity="0"
     inkscape:pageshadow="2"
     inkscape:window-width="2560"
     inkscape:window-height="1377"
     id="namedview27"
     showgrid="false"
     fit-margin-top="0"
     fit-margin-left="0"
     fit-margin-right="0"
     fit-margin-bottom="0"
     inkscape:zoom="3.580756"
     inkscape:cx="144.5"
     inkscape:cy="43.611328"
     inkscape:window-x="1072"
     inkscape:window-y="101"
     inkscape:window-maximized="1"
     inkscape:current-layer="svg25" />
  <defs
     id="defs4">
    <style
       id="style2">
            .cls-1, .cls-4 { fill: #fff; } .cls-2, .cls-3 { fill: none; stroke: #fff; } .cls-2 { stroke-width: 0.464px; } .cls-3 { stroke-width: 0.284px; } .cls-4 { font-size: 20px; font-family: Paralucent-Light, Paralucent; font-weight: 300; letter-spacing: 0.04em; }
        </style>
  </defs>
  <g
     id="group-172"
     transform="translate(-1,-0.00817164)">
    <g
       id="group-28">
      <path
         id="path"
         class="cls-1"
         d="m 92.3,7.887 c 0,0.637 -0.212,1.274 -0.212,1.912 v 11.68 A 17.17,17.17 0 0 0 92.3,24.665 H 90.18 C 89.118,23.178 88.906,22.541 88.056,21.479 L 80.622,11.921 78.5,9.371 v 9.77 a 15.67,15.67 0 0 0 0.637,5.1 h -2.763 a 9.2,9.2 0 0 1 0.212,-1.06 c 0,-0.638 0.212,-1.275 0.212,-1.913 V 11.072 A 9.584,9.584 0 0 0 76.586,8.312 C 76.374,7.674 76.161,7.462 75.312,7.462 H 75.1 l 0.425,-1.063 h 4.248 a 19.248,19.248 0 0 0 2.336,3.4 l 6.8,8.708 1.486,1.7 v -7.65 A 19.986,19.986 0 0 0 89.758,6.611 h 2.76 c 0,0.637 0,1.062 -0.212,1.274"
         transform="translate(5155.406,3143.709)" />
      <path
         id="path-2"
         class="cls-1"
         d="m 97.082,22.3 -0.212,1.062 -0.212,0.85 h -9.984 a 9.2,9.2 0 0 1 0.212,-1.062 14.225,14.225 0 0 0 0.212,-3.61 V 11.26 A 7.328,7.328 0 0 0 86.886,8.71 C 86.674,8.074 86.461,7.86 85.612,7.86 H 85.4 L 85.825,6.8 h 10.62 L 96.02,7.225 95.595,8.287 95.383,8.924 H 95.17 a 2.708,2.708 0 0 0 -1.274,-0.85 8.752,8.752 0 0 0 -2.55,-0.212 h -1.91 v 5.947 h 2.972 a 13.064,13.064 0 0 0 2.762,-0.21 v 2.12 h -5.735 v 5.1 a 3.29,3.29 0 0 0 0.425,1.7 c 0.425,0.425 1.062,0.637 2.55,0.637 a 7.963,7.963 0 0 0 2.335,-0.212 c 0.425,0 0.637,-0.212 1.062,-0.212 a 13.01,13.01 0 0 0 1.274,-0.85 l 0.426,0.212 z"
         transform="translate(5166.983,3144.158)" />
      <path
         id="path-3"
         class="cls-1"
         d="m 108.366,7.874 a 5.076,5.076 0 0 0 -0.637,1.487 3.7,3.7 0 0 0 -0.638,1.488 l -4.248,10.407 a 9.9,9.9 0 0 0 -1.062,3.4 H 99.445 A 13.057,13.057 0 0 0 98.808,22.32 L 94.348,11.06 A 24.913,24.913 0 0 0 93.285,8.724 C 92.86,8.087 92.648,7.874 92.011,7.874 H 91.8 l 0.425,-1.062 h 3.4 a 1.592,1.592 0 0 0 0.212,1.062 10.7,10.7 0 0 0 1.063,3.186 l 2.76,8.07 0.85,2.762 1.275,-2.973 2.76,-7.222 A 12.622,12.622 0 0 0 105.608,7.662 1.915,1.915 0 0 0 105.396,6.6 h 3.4 a 8.35,8.35 0 0 0 -0.425,1.275"
         transform="translate(5174.176,3143.934)" />
      <path
         id="path-4"
         class="cls-1"
         d="m 104.823,24.116 h -2.55 a 9.2,9.2 0 0 1 0.213,-1.062 14.225,14.225 0 0 0 0.212,-3.61 V 11.16 A 7.328,7.328 0 0 0 102.486,8.61 C 102.274,7.974 102.061,7.76 101.212,7.76 H 101 l 0.425,-1.06 h 3.823 c 0,0.85 -0.212,1.486 -0.212,1.91 v 11.046 a 25.79,25.79 0 0 0 0.425,4.885 z"
         transform="translate(5184.516,3144.046)" />
      <path
         id="path-5"
         class="cls-1"
         d="m 122.4,7.887 c 0,0.637 -0.212,1.274 -0.212,1.912 v 11.68 a 17.168,17.168 0 0 0 0.212,3.186 h -2.12 c -1.062,-1.487 -1.274,-2.124 -2.124,-3.186 l -7.434,-9.558 -2.122,-2.55 v 9.77 a 15.668,15.668 0 0 0 0.637,5.1 h -2.76 a 9.2,9.2 0 0 1 0.21,-1.06 c 0,-0.638 0.213,-1.275 0.213,-1.913 V 11.072 a 9.583,9.583 0 0 0 -0.212,-2.76 c -0.212,-0.638 -0.425,-0.85 -1.274,-0.85 H 105.2 l 0.425,-1.063 h 4.248 a 19.247,19.247 0 0 0 2.336,3.4 l 6.8,8.708 1.486,1.7 v -7.65 a 19.985,19.985 0 0 0 -0.637,-5.946 h 2.76 a 3.738,3.738 0 0 0 -0.212,1.274"
         transform="translate(5189.236,3143.709)" />
      <path
         id="path-6"
         class="cls-1"
         d="m 121.447,16.145 a 4.784,4.784 0 0 1 -1.487,-0.212 l 0.212,-0.637 0.212,-0.637 h 1.274 a 3.457,3.457 0 0 0 3.61,-3.612 c 0,-2.336 -1.273,-3.4 -3.61,-3.4 a 9.753,9.753 0 0 0 -2.124,0.212 v 11.47 a 25.794,25.794 0 0 0 0.425,4.886 h -3.187 a 9.2,9.2 0 0 1 0.212,-1.062 14.222,14.222 0 0 0 0.212,-3.61 V 11.26 A 7.327,7.327 0 0 0 116.984,8.71 C 116.772,8.074 116.559,7.86 115.71,7.86 h -0.21 l 0.425,-1.06 h 7.22 a 5.39,5.39 0 0 1 3.4,0.85 4.28,4.28 0 0 1 1.488,3.4 c -0.425,2.76 -2.973,5.1 -6.584,5.1"
         transform="translate(5200.813,3144.158)" />
      <path
         id="path-7"
         class="cls-1"
         d="m 137.092,24.34 h -2.76 a 9.2,9.2 0 0 0 -0.213,-1.06 c -0.213,-0.85 -0.426,-1.7 -0.85,-2.974 l -0.85,-2.55 h -6.16 l -0.85,2.337 a 10.483,10.483 0 0 0 -0.637,3.186 3.157,3.157 0 0 0 0.212,1.273 H 121.8 V 24.34 a 4.64,4.64 0 0 1 0.637,-1.06 10.356,10.356 0 0 0 0.637,-1.488 c 0.212,-0.637 0.637,-1.274 0.637,-1.487 L 127.96,9.9 a 27.91,27.91 0 0 0 1.06,-3.186 h 0.638 l 1.062,-0.212 h 0.637 a 11.97,11.97 0 0 0 0.85,2.55 l 4.248,11.256 c 0.425,0.85 0.85,2.124 1.487,3.4 0.212,0.425 0.425,0.637 0.637,1.062 z m -7.858,-15.29 -2.76,7.22 h 5.31 z"
         transform="translate(5207.894,3143.821)" />
      <path
         id="path-8"
         class="cls-1"
         d="m 144.6,7.45 -0.212,1.062 -0.212,0.637 h -0.425 a 2.708,2.708 0 0 0 -1.273,-0.85 1.915,1.915 0 0 0 -1.062,-0.213 c -0.85,0 -1.274,-0.212 -3.4,-0.212 v 11.47 a 25.794,25.794 0 0 0 0.425,4.884 h -3.186 a 9.2,9.2 0 0 1 0.212,-1.063 14.225,14.225 0 0 0 0.212,-3.61 V 8.086 h -1.7 a 9.327,9.327 0 0 0 -3.186,0.425 13.015,13.015 0 0 0 -1.274,0.85 h -0.418 V 8.723 l 0.212,-1.274 V 6.6 H 144.6 Z"
         transform="translate(5216.098,3143.934)" />
      <path
         id="path-9"
         class="cls-1"
         d="M 6.16,16.37 A 4.784,4.784 0 0 1 4.672,16.158 L 4.884,15.521 5.096,14.885 H 6.16 a 3.457,3.457 0 0 0 3.61,-3.61 c 0,-2.337 -1.274,-3.4 -3.61,-3.4 A 9.753,9.753 0 0 0 4.035,8.085 V 19.557 A 25.792,25.792 0 0 0 4.46,24.442 H 1.487 A 9.2,9.2 0 0 1 1.7,23.382 14.226,14.226 0 0 0 1.912,19.77 V 11.487 A 7.33,7.33 0 0 0 1.7,8.937 C 1.274,7.877 1.062,7.664 0.212,7.664 H 0 L 0.425,6.6 h 7.01 a 5.39,5.39 0 0 1 3.4,0.85 4.28,4.28 0 0 1 1.486,3.4 c 0,3.186 -2.548,5.522 -6.158,5.522"
         transform="translate(5071,3143.934)" />
      <path
         id="path-10"
         class="cls-1"
         d="m 22,24.34 h -2.756 a 9.2,9.2 0 0 0 -0.212,-1.06 c -0.212,-0.85 -0.425,-1.7 -0.85,-2.974 l -0.85,-2.55 h -6.16 l -0.85,2.337 a 7.135,7.135 0 0 0 -0.85,3.186 3.157,3.157 0 0 0 0.213,1.273 H 6.5 V 24.34 A 4.643,4.643 0 0 1 7.137,23.28 10.355,10.355 0 0 0 7.774,21.792 C 7.986,21.155 8.411,20.518 8.411,20.305 L 12.66,9.9 a 27.91,27.91 0 0 0 1.06,-3.186 h 0.638 L 15.42,6.5 h 0.637 a 5.942,5.942 0 0 0 0.425,2.336 l 4.248,11.257 c 0.425,0.85 0.85,2.124 1.487,3.4 0.212,0.425 0.425,0.637 0.637,1.062 z M 14.36,9.05 11.6,16.27 h 5.31 z"
         transform="translate(5078.305,3143.821)" />
      <path
         id="path-11"
         class="cls-1"
         d="M 21.347,16.145 A 4.784,4.784 0 0 1 19.86,15.933 l 0.212,-0.637 0.212,-0.637 h 1.274 a 3.457,3.457 0 0 0 3.61,-3.612 c 0,-2.336 -1.273,-3.4 -3.61,-3.4 a 9.753,9.753 0 0 0 -2.124,0.212 v 11.47 a 25.792,25.792 0 0 0 0.425,4.886 h -3.186 a 9.2,9.2 0 0 1 0.212,-1.062 14.226,14.226 0 0 0 0.212,-3.61 V 11.26 A 7.33,7.33 0 0 0 16.885,8.71 C 16.673,8.074 16.46,7.86 15.611,7.86 H 15.4 L 15.825,6.8 h 7.01 a 5.39,5.39 0 0 1 3.4,0.85 4.28,4.28 0 0 1 1.486,3.4 c 0,2.76 -2.76,5.1 -6.37,5.1"
         transform="translate(5088.308,3144.158)" />
      <path
         id="path-12"
         class="cls-1"
         d="m 38.967,11.6 v 7.22 c -0.212,2.337 -0.85,3.824 -2.55,4.886 A 8.8,8.8 0 0 1 31.533,24.98 10.29,10.29 0 0 1 27.71,24.343 7.07,7.07 0 0 1 25.586,23.069 C 24.524,22 24.1,20.517 24.1,17.97 v -6.8 A 7.33,7.33 0 0 0 23.888,8.62 C 23.676,7.983 23.463,7.77 22.614,7.77 H 22.4 l 0.425,-1.062 h 3.823 c 0,0.85 -0.212,1.487 -0.212,1.912 v 8.283 c 0,2.336 0,2.973 0.425,4.035 0.638,1.487 2.337,2.336 4.46,2.336 a 5.12,5.12 0 0 0 3.187,-0.85 3.778,3.778 0 0 0 1.487,-1.7 11.447,11.447 0 0 0 0.637,-4.673 V 11.386 A 25.793,25.793 0 0 0 36.207,6.501 h 2.76 a 40.462,40.462 0 0 1 0,5.1"
         transform="translate(5096.176,3143.821)" />
      <path
         id="path-13"
         class="cls-1"
         d="m 44.082,22.3 -0.212,1.062 -0.212,0.85 h -9.984 a 9.2,9.2 0 0 1 0.212,-1.062 14.226,14.226 0 0 0 0.212,-3.61 V 11.26 A 7.33,7.33 0 0 0 33.886,8.71 C 33.674,8.074 33.461,7.86 32.612,7.86 H 32.4 L 32.825,6.8 h 3.823 c 0,0.85 -0.212,1.487 -0.212,1.912 v 12.106 a 3.29,3.29 0 0 0 0.425,1.7 c 0.426,0.425 1.063,0.637 2.55,0.637 a 7.964,7.964 0 0 0 2.336,-0.212 c 0.425,0 0.637,-0.212 1.062,-0.212 a 13.01,13.01 0 0 0 1.274,-0.85 l 0.425,0.213 z"
         transform="translate(5107.415,3144.158)" />
      <path
         id="path-14"
         class="cls-1"
         d="m 54.292,24.453 h -2.76 a 9.2,9.2 0 0 0 -0.213,-1.062 c -0.213,-0.85 -0.426,-1.7 -0.85,-2.972 l -0.85,-2.55 h -6.16 l -0.85,2.337 a 10.483,10.483 0 0 0 -0.637,3.186 3.157,3.157 0 0 0 0.212,1.275 H 39 v -0.212 a 4.642,4.642 0 0 1 0.637,-1.062 10.356,10.356 0 0 0 0.637,-1.486 c 0.212,-0.637 0.637,-1.274 0.637,-1.487 l 4.25,-10.407 a 13.844,13.844 0 0 1 0.636,-3.4 h 0.637 L 47.5,6.4 h 0.637 a 11.975,11.975 0 0 0 0.85,2.55 l 4.243,11.255 c 0.425,0.85 0.85,2.124 1.487,3.4 0.212,0.425 0.425,0.637 0.637,1.062 z M 46.646,9.16 l -2.76,7.222 h 5.31 z"
         transform="translate(5114.833,3143.709)" />
      <path
         id="path-15"
         class="cls-2"
         d="M 66.454,1.23 50.1,27.142 a 2,2 0 0 0 0,2.336 c 0.85,1.487 8.283,12.956 8.283,12.956 0,0 1.062,1.912 2.336,0 C 61.993,40.522 77.5,16.947 77.5,16.947 c 0,0 1.274,-1.487 0.425,-2.76 -0.849,-1.273 -8.71,-13.17 -8.71,-13.17 0,0 -1.274,-1.91 -2.76,0.213 z"
         transform="translate(5126.884,3136.772)" />
      <path
         id="path-16"
         class="cls-1"
         d="M 74.6,36.235 92.02,9.473 c 0,0 1.06,-2.973 -2.12,-2.973 H 55.063 A 2.092,2.092 0 0 0 54,9.686 c 0.85,1.7 17.63,26.55 17.63,26.55 0,0 1.273,2.123 2.973,0"
         transform="translate(5131.266,3143.821)" />
      <path
         id="path-17"
         class="cls-3"
         d="M 74.6,36.235 92.02,9.473 c 0,0 1.06,-2.973 -2.12,-2.973 H 55.063 A 2.092,2.092 0 0 0 54,9.686 c 0.85,1.7 17.63,26.55 17.63,26.55 0,0 1.27,2.123 2.97,0 z"
         transform="translate(5131.266,3143.821)" />
    </g>
  </g>
</svg>
