<?xml version="1.0" encoding="UTF-8" standalone="no"?>
<svg
   xmlns:dc="http://purl.org/dc/elements/1.1/"
   xmlns:cc="http://creativecommons.org/ns#"
   xmlns:rdf="http://www.w3.org/1999/02/22-rdf-syntax-ns#"
   xmlns:svg="http://www.w3.org/2000/svg"
   xmlns="http://www.w3.org/2000/svg"
   xmlns:sodipodi="http://sodipodi.sourceforge.net/DTD/sodipodi-0.dtd"
   xmlns:inkscape="http://www.inkscape.org/namespaces/inkscape"
   version="1.1"
   id="svg2"
   xml:space="preserve"
   width="559.49335"
   height="215.49333"
   viewBox="0 0 559.49335 215.49333"
   sodipodi:docname="Teekkarius-151.svg"
   inkscape:version="1.0.2-2 (e86c870879, 2021-01-15)"><metadata
     id="metadata8"><rdf:RDF><cc:Work
         rdf:about=""><dc:format>image/svg+xml</dc:format><dc:type
           rdf:resource="http://purl.org/dc/dcmitype/StillImage" /><dc:title /></cc:Work></rdf:RDF></metadata><defs
     id="defs6"><clipPath
       clipPathUnits="userSpaceOnUse"
       id="clipPath18"><path
         d="M 0,161.62 H 419.62 V 0 H 0 Z"
         id="path16" /></clipPath></defs><sodipodi:namedview
     pagecolor="#ffffff"
     bordercolor="#666666"
     borderopacity="1"
     objecttolerance="10"
     gridtolerance="10"
     guidetolerance="10"
     inkscape:pageopacity="0"
     inkscape:pageshadow="2"
     inkscape:window-width="2560"
     inkscape:window-height="1377"
     id="namedview4"
     showgrid="false"
     inkscape:zoom="2.8840695"
     inkscape:cx="213.88242"
     inkscape:cy="123.12157"
     inkscape:window-x="1072"
     inkscape:window-y="43"
     inkscape:window-maximized="1"
     inkscape:current-layer="g10"
     inkscape:document-rotation="0" /><g
     id="g10"
     inkscape:groupmode="layer"
     inkscape:label="teekkarius_151_logo_musta"
     transform="matrix(1.3333333,0,0,-1.3333333,0,215.49333)"><g
       id="g12"
       style="fill:#4b3c33;fill-opacity:1"><g
         id="g14"
         clip-path="url(#clipPath18)"
         style="fill:#4b3c33;fill-opacity:1"><g
           id="g20"
           transform="translate(47.7401,125.6546)"
           style="fill:#4b3c33;fill-opacity:1"><path
             d="m 0,0 c -1.979,-1.17 -2.25,-2.88 -2.25,-4.68 0,-1.62 0.271,-3.51 0.45,-5.04 l 2.34,-19.709 c 0.18,-1.8 0.27,-3.33 0.27,-3.78 0,-3.24 -2.16,-4.859 -5.039,-6.66 l -7.38,-4.499 c 3.6,-2.79 8.099,-3.96 12.689,-3.96 0.9,0 1.89,0.09 2.79,0.18 v 47.337 z m -19.979,-24.659 c 0,-6.84 1.8,-13.59 7.38,-18.629 l 1.8,1.26 c 2.159,1.529 3.239,3.599 3.239,6.659 0,2.16 -0.27,4.23 -0.54,6.48 l -2.699,21.959 c -6.21,-3.6 -9.18,-10.259 -9.18,-17.729 m 2.7,26.638 c -2.61,0 -7.02,-0.45 -7.02,-4.589 0,-2.79 3.06,-4.59 6.12,-4.59 3.51,0 7.02,1.889 8.28,2.7 l 7.739,4.949 c -4.86,0.811 -9.809,1.53 -15.119,1.53 m 36.988,-40.047 0.99,-0.811 C 16.29,-47.608 7.452,-56.247 -3.258,-56.247 c -15.119,0 -25.18,13.408 -25.18,27.718 0,8.46 4.409,15.569 12.149,20.069 -0.81,-0.18 -1.53,-0.18 -2.34,-0.18 -4.14,0 -7.559,1.89 -7.559,6.57 0,5.67 9.809,11.88 17.548,11.88 6.48,0 22.5,-3.51 26.099,-3.51 3.331,0 4.68,1.17 5.4,2.25 L 23.489,9.539 25.019,8.55 22.77,4.5 c -1.891,-3.511 -4.5,-6.75 -9.09,-6.75 -2.7,0 -6.66,0.81 -8.37,1.17 v -47.068 c 6.03,1.169 11.069,4.86 14.399,10.08"
             style="fill:#4b3c33;fill-opacity:1;fill-rule:nonzero;stroke:none"
             id="path22" /></g><g
           id="g24"
           transform="translate(85.577,104.2416)"
           style="fill:#4b3c33;fill-opacity:1"><path
             d="m 0,0 c -6.747,0 -9.157,-7.39 -9.157,-10.041 0,-1.687 1.607,-1.847 4.98,-1.687 l 7.791,0.322 c 3.294,0.161 3.936,1.205 3.936,3.534 C 7.55,-3.213 5.542,0 0,0 m 9.719,-13.655 -15.02,-0.322 c -2.892,-0.08 -4.177,-0.562 -4.177,-3.373 0,-8.434 4.177,-14.297 11.807,-14.297 5.061,0 8.675,2.731 10.362,4.418 0.321,0.321 0.562,0.562 0.803,0.562 0.321,0 0.964,-0.482 0.964,-0.964 0,-0.321 -0.161,-0.562 -0.562,-0.964 -2.008,-2.33 -6.748,-6.265 -14.217,-6.265 -10.924,0 -17.511,6.827 -17.511,18.474 0,11.888 7.069,18.635 19.278,18.635 10.2,0 14.137,-3.615 14.137,-11.808 0,-3.614 -2.571,-4.016 -5.864,-4.096"
             style="fill:#4b3c33;fill-opacity:1;fill-rule:nonzero;stroke:none"
             id="path26" /></g><g
           id="g28"
           transform="translate(122.4457,104.2416)"
           style="fill:#4b3c33;fill-opacity:1"><path
             d="m 0,0 c -6.747,0 -9.157,-7.39 -9.157,-10.041 0,-1.687 1.607,-1.847 4.98,-1.687 l 7.792,0.322 c 3.293,0.161 3.935,1.205 3.935,3.534 C 7.55,-3.213 5.542,0 0,0 m 9.719,-13.655 -15.02,-0.322 c -2.892,-0.08 -4.177,-0.562 -4.177,-3.373 0,-8.434 4.177,-14.297 11.808,-14.297 5.06,0 8.674,2.731 10.361,4.418 0.321,0.321 0.562,0.562 0.803,0.562 0.321,0 0.964,-0.482 0.964,-0.964 0,-0.321 -0.161,-0.562 -0.562,-0.964 -2.008,-2.33 -6.747,-6.265 -14.217,-6.265 -10.924,0 -17.511,6.827 -17.511,18.474 0,11.888 7.069,18.635 19.278,18.635 10.201,0 14.137,-3.615 14.137,-11.808 0,-3.614 -2.571,-4.016 -5.864,-4.096"
             style="fill:#4b3c33;fill-opacity:1;fill-rule:nonzero;stroke:none"
             id="path30" /></g><g
           id="g32"
           transform="translate(234.1747,70.4252)"
           style="fill:#4b3c33;fill-opacity:1"><path
             d="M 0,0 C -1.687,0 -4.096,0.241 -6.506,0.241 -8.354,0.241 -11.164,0 -12.449,0 c -1.608,0 -2.33,1.205 -4.097,3.454 -3.534,4.498 -6.184,7.791 -10.522,13.173 -2.008,2.49 -2.812,3.053 -3.936,3.053 -0.804,0 -1.365,-0.403 -1.365,-2.169 0,-2.732 0.16,-5.382 0.32,-8.032 0.241,-4.017 0.483,-6.506 6.426,-7.23 0.643,-0.08 0.643,-0.401 0.643,-1.124 0,-0.884 -0.241,-1.125 -0.963,-1.125 -2.571,0 -6.346,0.241 -10.041,0.241 -3.695,0 -7.47,-0.241 -10.04,-0.241 -3.352,0 -2.054,0.17 -2.054,1.054 0,0.723 1.09,1.115 1.732,1.195 5.944,0.724 6.185,3.213 6.426,7.23 0.16,2.65 0.321,12.289 0.321,18.072 0,6.265 -0.161,15.502 -0.321,18.956 -0.241,5.14 -0.964,5.783 -6.586,6.747 -0.723,0.08 -0.965,0.241 -0.965,1.125 0,0.723 0,1.044 0.643,1.124 4.579,0.321 13.093,1.285 13.976,1.285 0.964,0 1.125,-0.321 1.125,-1.124 0,-2.089 -0.642,-20.241 -0.642,-28.113 0,-4.578 0.08,-5.622 1.124,-5.622 2.089,0 10.602,8.192 10.602,9.718 0,0.884 -1.044,0.884 -3.373,1.124 -0.562,0 -0.642,0.403 -0.642,1.125 0,0.884 0.16,1.125 0.803,1.125 1.205,0 3.614,-0.241 7.871,-0.241 4.016,0 6.024,0.241 7.39,0.241 0.643,0 0.963,-0.161 0.963,-1.125 0,-0.722 -0.16,-1.125 -0.803,-1.125 -5.943,-0.401 -7.871,-1.846 -13.976,-6.666 -0.803,-0.642 -1.445,-1.285 -1.445,-1.927 0,-0.483 0.562,-1.205 1.606,-2.41 C -19.116,17.992 -11.566,9.077 -7.148,5.462 -4.819,3.534 -2.249,2.892 0.241,2.249 0.804,2.089 8.323,1.52 8.323,0.797 8.323,-0.087 0.562,0 0,0"
             style="fill:#4b3c33;fill-opacity:1;fill-rule:nonzero;stroke:none"
             id="path34" /></g><g
           id="g36"
           transform="translate(321.807,70.4252)"
           style="fill:#4b3c33;fill-opacity:1"><path
             d="m 0,0 c -2.329,0 -6.024,0.241 -9.397,0.241 -3.696,0 -7.47,-0.241 -10.04,-0.241 -0.724,0 -0.965,0.241 -0.965,1.125 0,0.723 0,1.044 0.642,1.124 5.945,0.724 6.186,3.213 6.426,7.23 0.161,2.65 0.322,5.783 0.322,8.513 0,2.973 -0.161,6.346 -0.322,8.595 -0.32,4.498 -0.963,4.98 -6.586,5.944 -0.723,0.08 -0.964,0.24 -0.964,1.124 0,0.723 0,1.044 0.643,1.125 4.578,0.322 13.093,1.285 13.975,1.285 0.965,0 1.125,-0.321 1.125,-1.125 0,-0.883 -0.642,-7.228 -0.642,-13.735 0,-3.694 0.16,-9.076 0.321,-11.726 C -5.221,5.462 -5.221,2.892 0.321,2.249 0.964,2.169 0.964,1.848 0.964,1.125 0.964,0.241 0.723,0 0,0"
             style="fill:#4b3c33;fill-opacity:1;fill-rule:nonzero;stroke:none"
             id="path38" /></g><g
           id="g40"
           transform="translate(367.9916,71.1488)"
           style="fill:#4b3c33;fill-opacity:1"><path
             d="m 0,0 c -2.972,-0.321 -7.63,-0.482 -9.719,-0.482 -1.927,0 -1.847,0.803 -2.409,3.614 -0.161,0.804 -0.241,0.884 -0.724,0.884 -1.204,0 -3.373,-5.784 -13.333,-5.784 -8.514,0 -12.289,4.82 -12.289,9.398 0,3.133 0.321,7.471 0.321,9.639 0,2.891 -0.16,6.345 -0.321,8.594 -0.322,4.498 -0.883,4.981 -5.463,5.945 -0.722,0.08 -0.962,0.24 -0.962,1.124 0,0.722 0,1.044 0.642,1.125 4.337,0.321 12.048,1.285 12.852,1.285 0.963,0 1.124,-0.321 1.124,-1.125 0,-1.365 -0.643,-11.487 -0.643,-21.768 0,-5.702 2.089,-11.004 8.675,-11.004 6.426,0 9.96,6.747 9.96,13.414 0,4.016 -0.161,8.755 -0.321,11.004 -0.322,4.498 -0.964,4.981 -6.586,5.945 -0.724,0.08 -0.965,0.24 -0.965,1.124 0,0.722 0,1.044 0.642,1.125 4.58,0.321 13.093,1.285 13.977,1.285 0.964,0 1.125,-0.321 1.125,-1.125 0,-1.928 -0.643,-18.153 -0.643,-26.025 0,-3.213 0.482,-4.739 5.542,-5.943 C 1.044,2.088 1.125,2.008 1.125,1.204 1.125,0.24 1.044,0.08 0,0"
             style="fill:#4b3c33;fill-opacity:1;fill-rule:nonzero;stroke:none"
             id="path42" /></g><g
           id="g44"
           transform="translate(384.7787,69.3812)"
           style="fill:#4b3c33;fill-opacity:1"><path
             d="M 0,0 C -5.221,0 -7.068,1.446 -8.675,1.446 -9.639,1.446 -11.566,0 -12.69,0 c -0.723,0 -0.804,0.482 -0.723,1.205 l 0.24,11.647 c 0,1.526 0.08,2.169 1.125,2.169 1.044,0 0.964,-0.563 1.365,-1.768 1.768,-5.301 4.82,-11.004 10.844,-11.004 4.016,0 7.229,3.133 7.229,6.266 0,4.176 -2.651,5.3 -6.908,6.747 -6.425,2.088 -13.414,4.095 -13.414,11.806 0,6.989 5.382,10.041 12.932,10.041 4.177,0 6.988,-0.803 8.595,-0.803 0.802,0 2.008,0.803 2.811,0.803 0.482,0 0.482,-0.321 0.482,-0.803 l -0.563,-9.88 c -0.08,-1.044 -0.401,-1.044 -1.204,-1.044 -1.044,0 -0.804,0.401 -1.205,2.249 -0.884,3.935 -3.374,7.229 -9.237,7.229 -4.096,0 -6.185,-2.41 -6.185,-5.462 0,-3.855 3.374,-5.301 6.426,-6.345 C 6.346,20.964 13.815,20.241 13.815,11.888 13.815,4.257 7.229,0 0,0"
             style="fill:#4b3c33;fill-opacity:1;fill-rule:nonzero;stroke:none"
             id="path46" /></g><g
           id="g48"
           transform="translate(193.3807,19.4115)"
           style="fill:#4b3c33;fill-opacity:1"><path
             d="M 0,0 C -2.694,0 -5.499,0.165 -9.294,0.165 -13.309,0.165 -16.388,0 -19.247,0 c -0.606,0 -0.66,0.275 -0.66,0.88 0,0.715 0.165,0.825 0.604,0.88 5.445,0.44 6.874,0.77 7.204,5.719 0.111,1.65 0.221,5.554 0.221,8.359 0,2.805 -0.11,6.654 -0.221,8.359 -0.054,1.43 -0.66,1.485 -1.099,1.485 -0.605,0 -6.049,-1.485 -7.974,-1.485 -0.33,0 -0.55,0.22 -0.55,0.77 0,1.429 2.584,0.55 7.644,3.904 4.124,2.695 5.279,5.72 6.434,5.72 0.77,0 0.99,-0.22 0.935,-1.265 -0.055,-3.025 -0.22,-9.569 -0.22,-14.518 0,-3.629 0.11,-9.129 0.22,-11.329 C -6.489,3.08 -5.444,2.2 0.055,1.76 0.495,1.705 0.66,1.595 0.66,0.88 0.66,0.275 0.604,0 0,0"
             style="fill:#4b3c33;fill-opacity:1;fill-rule:nonzero;stroke:none"
             id="path50" /></g><g
           id="g52"
           transform="translate(219.8905,51.308)"
           style="fill:#4b3c33;fill-opacity:1"><path
             d="m 0,0 c -1.266,-2.311 -2.255,-3.465 -6.545,-3.465 -3.024,0 -5.773,0.66 -8.304,0.66 -0.824,0 -1.484,-0.22 -1.704,-2.639 l -0.551,-6.105 c -0.054,-0.66 0.221,-0.88 0.661,-0.88 1.099,0 2.75,1.76 7.094,1.76 6.159,0 10.614,-2.475 10.614,-9.568 0,-6.93 -4.675,-12.374 -12.703,-12.374 -5.831,0 -10.669,2.255 -10.669,6.489 0,1.87 1.21,3.409 3.024,3.409 1.814,0 2.475,-0.88 2.475,-1.704 0,-0.88 -0.55,-1.43 -0.55,-2.64 0,-2.585 2.474,-4.014 5.444,-4.014 5.279,0 7.48,4.729 7.48,10.174 0,5.499 -2.476,8.468 -6.6,8.468 -2.475,0 -4.784,-1.594 -5.829,-3.574 -0.441,-0.88 -0.66,-1.21 -1.045,-1.21 -0.165,0 -0.439,0.055 -0.66,0.275 -0.55,0.44 -1.154,0.77 -1.154,1.375 0,1.099 0.934,5.444 1.154,8.249 0.385,4.838 0.385,7.369 0.385,8.194 0,1.209 0.385,1.814 1.1,1.814 0.495,0 1.869,-0.219 3.85,-0.44 1.979,-0.22 4.563,-0.44 7.478,-0.44 5.61,0 6.159,2.97 6.985,2.97 0.33,0 0.439,-0.33 0.439,-0.605 C 1.869,3.739 0.935,1.704 0,0"
             style="fill:#4b3c33;fill-opacity:1;fill-rule:nonzero;stroke:none"
             id="path54" /></g><g
           id="g56"
           transform="translate(245.9051,19.4115)"
           style="fill:#4b3c33;fill-opacity:1"><path
             d="M 0,0 C -2.694,0 -5.499,0.165 -9.294,0.165 -13.309,0.165 -16.388,0 -19.247,0 c -0.606,0 -0.66,0.275 -0.66,0.88 0,0.715 0.165,0.825 0.604,0.88 5.445,0.44 6.874,0.77 7.204,5.719 0.111,1.65 0.22,5.554 0.22,8.359 0,2.805 -0.109,6.654 -0.22,8.359 -0.054,1.43 -0.659,1.485 -1.099,1.485 -0.605,0 -6.049,-1.485 -7.974,-1.485 -0.33,0 -0.55,0.22 -0.55,0.77 0,1.429 2.584,0.55 7.644,3.904 4.124,2.695 5.279,5.72 6.434,5.72 0.77,0 0.99,-0.22 0.935,-1.265 -0.055,-3.025 -0.22,-9.569 -0.22,-14.518 0,-3.629 0.11,-9.129 0.22,-11.329 C -6.489,3.08 -5.444,2.2 0.055,1.76 0.495,1.705 0.66,1.595 0.66,0.88 0.66,0.275 0.604,0 0,0"
             style="fill:#4b3c33;fill-opacity:1;fill-rule:nonzero;stroke:none"
             id="path58" /></g><g
           id="g60"
           transform="translate(154.9051,52.5487)"
           style="fill:#4b3c33;fill-opacity:1"><path
             d="m 0,0 c -1.146,1.286 -0.41,32.656 -0.41,35.387 0,1.767 0.562,2.169 1.366,2.169 1.124,0 1.928,-0.562 3.936,-3.053 4.337,-5.381 6.988,-8.674 10.522,-13.172 1.767,-2.249 2.49,-3.455 4.096,-3.455 1.285,0 4.096,0.242 5.944,0.242 2.409,0 4.819,-0.242 6.506,-0.242 0.562,0 1.322,0.259 1.322,1.143 0,0.722 -0.518,0.946 -1.081,1.106 -2.49,0.643 -5.06,1.286 -7.389,3.213 -4.418,3.616 -11.968,12.531 -15.101,16.306 -1.044,1.205 -1.607,1.928 -1.607,2.41 0,0.643 0.643,1.285 1.447,1.928 6.103,4.819 8.031,6.265 13.975,6.666 0.643,0 0.804,0.402 0.804,1.125 0,0.964 -0.322,1.124 -0.965,1.124 -1.365,0 -3.373,-0.24 -7.388,-0.24 -4.258,0 -6.667,0.24 -7.873,0.24 -0.642,0 -0.803,-0.24 -0.803,-1.124 0,-0.723 0.081,-1.125 0.643,-1.125 2.329,-0.24 3.373,-0.24 3.373,-1.124 0,-1.526 -8.514,-9.719 -10.602,-9.719 -1.044,0 -1.125,1.044 -1.125,5.622 0,7.872 0.643,26.025 0.643,28.114 0,0.802 -0.161,1.124 -1.125,1.124 -0.883,0 -9.397,-0.964 -13.976,-1.286 -0.642,-0.08 -0.642,-0.401 -0.642,-1.124 0,-0.883 0.24,-1.045 0.964,-1.125 5.622,-0.963 6.345,-1.606 6.586,-6.747 0.161,-3.454 0.321,-12.69 0.321,-18.956 0,-5.783 -0.127,-43.143 -0.287,-45.794"
             style="fill:#4b3c33;fill-opacity:1;fill-rule:nonzero;stroke:none"
             id="path62" /></g><g
           id="g64"
           transform="translate(318.2035,118.3617)"
           style="fill:#4b3c33;fill-opacity:1"><path
             d="m 0,0 c -3.6,-1.169 -4.823,-2.394 -5.993,-5.993 -0.114,-0.354 -0.611,-0.354 -0.727,0 -1.169,3.599 -2.392,4.824 -5.993,5.993 -0.352,0.115 -0.352,0.612 0,0.727 3.601,1.169 4.824,2.393 5.993,5.993 0.116,0.353 0.613,0.353 0.727,0 C -4.823,3.12 -3.6,1.896 0,0.727 0.354,0.612 0.354,0.115 0,0"
             style="fill:#4b3c33;fill-opacity:1;fill-rule:nonzero;stroke:none"
             id="path66" /></g><g
           id="g68"
           transform="translate(158.5399,51.7474)"
           style="fill:#4b3c33;fill-opacity:1"><path
             d="m 0,0 c -4.303,-1.397 -5.766,-2.86 -7.164,-7.164 -0.137,-0.422 -0.731,-0.422 -0.868,0 -1.398,4.304 -2.861,5.767 -7.164,7.164 -0.423,0.137 -0.423,0.731 0,0.869 4.303,1.398 5.766,2.86 7.164,7.163 0.137,0.423 0.731,0.423 0.868,0 C -5.766,3.729 -4.303,2.267 0,0.869 0.422,0.731 0.422,0.137 0,0"
             style="fill:#4b3c33;fill-opacity:1;fill-rule:nonzero;stroke:none"
             id="path70" /></g><g
           id="g72"
           transform="translate(254.1185,78.8099)"
           style="fill:#4b3c33;fill-opacity:1"><path
             d="m 0,0 c -1.124,-4.096 -5.061,-6.185 -7.792,-6.185 -4.096,0 -5.863,3.133 -5.863,6.909 0,2.489 0.964,4.498 2.651,5.783 2.007,1.525 6.667,2.249 8.193,2.249 2.41,0 3.534,-0.483 3.534,-3.294 C 0.723,2.731 0.402,1.446 0,0 m 14.922,25.297 c 3.599,-1.433 5.101,-2.894 5.398,-7.064 0.161,-2.249 0.323,-5.622 0.323,-8.594 0,-2.731 -0.205,-5.861 -0.323,-8.514 -0.19,-4.28 -1.848,-7.416 -6.195,-7.195 -3.231,0.164 -6.185,2.259 -6.173,7.436 0.012,5.462 0.482,11.164 0.482,16.546 0,7.068 -4.417,9.8 -12.691,9.8 -7.952,0 -13.253,-3.534 -13.253,-7.711 0,-2.41 0.722,-4.258 4.015,-4.258 2.732,0 3.374,1.688 3.374,3.053 0,0.401 -0.161,1.606 -0.161,2.169 0,1.204 0.884,4.498 5.221,4.498 5.222,0 6.266,-2.892 6.266,-8.996 0,-5.462 -3.053,-5.462 -10.924,-6.426 C -15.583,9.317 -21.206,8.354 -21.206,0 c 0,-5.702 3.776,-9.397 10.202,-9.397 7.47,0 10.442,4.98 11.566,4.98 0.402,0 0.402,-0.161 0.643,-0.884 0.482,-1.686 0.884,-2.811 2.249,-2.811 h 20.803 c 3.373,0 6.907,-0.242 9.237,-0.242 0.723,0 0.963,0.242 0.963,1.125 0,0.723 0,0.964 -0.643,1.125 -5.22,0.723 -5.38,3.212 -5.622,7.229 -0.161,2.65 -0.321,6.988 -0.321,9.156 0,6.587 1.848,14.218 8.112,14.218 3.776,0 4.177,-2.57 4.177,-4.418 0,-1.365 0.161,-3.614 3.454,-3.614 2.249,0 4.578,1.686 4.578,5.059 0,3.213 -2.329,6.186 -8.192,6.186 -8.354,0 -10.442,-5.462 -11.566,-5.462 -0.403,0 -0.563,0.24 -0.563,0.803 0,0.642 0.321,2.971 0.321,3.534 0,0.804 -0.161,1.125 -1.124,1.125 -0.603,0 -6.242,-0.997 -10.501,-0.741"
             style="fill:#4b3c33;fill-opacity:1;fill-rule:nonzero;stroke:none"
             id="path74" /></g><g
           id="g76"
           transform="translate(168.6918,70.4227)"
           style="fill:#4b3c33;fill-opacity:1"><path
             d="m 0,0 h 4.983 c 0.514,0 0.931,0.417 0.931,0.93 v 0.585 c 0,0.514 -0.417,0.931 -0.931,0.931 H 0 c -0.514,0 -0.93,-0.417 -0.93,-0.931 V 0.93 C -0.93,0.417 -0.514,0 0,0"
             style="fill:#4b3c33;fill-opacity:1;fill-rule:nonzero;stroke:none"
             id="path78" /></g></g></g></g></svg>
