<?xml version="1.0" encoding="UTF-8" standalone="no"?>
<svg
   xmlns:dc="http://purl.org/dc/elements/1.1/"
   xmlns:cc="http://creativecommons.org/ns#"
   xmlns:rdf="http://www.w3.org/1999/02/22-rdf-syntax-ns#"
   xmlns:svg="http://www.w3.org/2000/svg"
   xmlns="http://www.w3.org/2000/svg"
   xmlns:sodipodi="http://sodipodi.sourceforge.net/DTD/sodipodi-0.dtd"
   xmlns:inkscape="http://www.inkscape.org/namespaces/inkscape"
   version="1.1"
   id="svg2"
   xml:space="preserve"
   width="1100"
   height="657.19635"
   viewBox="0 0 1100 657.19637"
   sodipodi:docname="TJ.svg"
   inkscape:version="1.0.2-2 (e86c870879, 2021-01-15)"><metadata
     id="metadata8"><rdf:RDF><cc:Work
         rdf:about=""><dc:format>image/svg+xml</dc:format><dc:type
           rdf:resource="http://purl.org/dc/dcmitype/StillImage" /><dc:title /></cc:Work></rdf:RDF></metadata><defs
     id="defs6"><clipPath
       clipPathUnits="userSpaceOnUse"
       id="clipPath18"><path
         d="M 0,841.92 H 595.2 V 0 H 0 Z"
         id="path16" /></clipPath></defs><sodipodi:namedview
     pagecolor="#ffffff"
     bordercolor="#666666"
     borderopacity="1"
     objecttolerance="10"
     gridtolerance="10"
     guidetolerance="10"
     inkscape:pageopacity="0"
     inkscape:pageshadow="2"
     inkscape:window-width="2560"
     inkscape:window-height="1377"
     id="namedview4"
     showgrid="false"
     inkscape:zoom="1.2698895"
     inkscape:cx="243.59434"
     inkscape:cy="322.7607"
     inkscape:window-x="1072"
     inkscape:window-y="43"
     inkscape:window-maximized="1"
     inkscape:current-layer="g14"
     inkscape:document-rotation="0" /><g
     id="g10"
     inkscape:groupmode="layer"
     inkscape:label="pystis"
     transform="matrix(1.3333333,0,0,-1.3333333,-34.02028,884.49184)"><g
       id="g12"
       transform="translate(148.78766)"><g
         id="g14"
         clip-path="url(#clipPath18)"><g
           id="g20"
           transform="translate(121.4426,366.9389)"><path
             d="M 0,0 C -1.048,2.085 -2.001,3.873 -3.364,5.687 -4.707,1.67 -3.999,0.418 0,0 m 265.15,-38.036 c -0.224,-0.123 -0.321,-0.145 -0.331,-0.187 -0.155,-0.694 -0.281,-1.394 -0.448,-2.086 -1.381,-5.735 -2.935,-11.405 -6.25,-16.405 -0.894,-1.348 -0.811,-2.22 0.245,-3.118 1.169,-0.996 2.279,-1.033 3.437,-0.135 1.215,0.943 1.621,2.328 1.995,3.707 0.687,2.528 1.262,5.085 1.979,7.604 0.523,1.836 1.254,3.613 1.777,5.449 0.181,0.633 0.254,1.502 -0.044,2.023 -0.651,1.141 -1.572,2.127 -2.36,3.148 M 186.127,149.97 c -0.199,0.095 -0.402,0.214 -0.619,0.293 -1.044,0.378 -1.883,0.987 -1.892,2.19 -0.01,1.249 0.446,2.332 1.626,2.962 0.418,0.223 0.905,0.335 1.286,0.603 0.683,0.482 0.622,1.501 -0.165,1.698 -1.125,0.281 -2.33,0.482 -3.475,0.39 -3.174,-0.256 -5.621,-2.045 -7.864,-4.13 -1.401,-1.303 -1.685,-3.003 -1.523,-4.824 0.085,-0.952 0.625,-1.459 1.555,-1.47 2.926,-0.035 5.856,-0.126 8.777,-0.017 1.855,0.069 1.85,0.211 2.294,2.305 m 10.162,-274.689 c -0.109,0.014 -0.217,0.027 -0.326,0.04 0,0.559 0.009,1.117 -0.001,1.676 -0.064,3.607 -1.171,6.87 -3.256,9.803 -0.765,1.077 -1.712,1.877 -3.134,1.909 -1.515,0.035 -2.005,-0.487 -1.724,-2.023 0.157,-0.856 0.402,-1.707 0.699,-2.525 1.673,-4.593 3.036,-9.225 2.233,-14.208 -0.063,-0.387 -0.03,-0.802 0.032,-1.192 0.241,-1.514 0.985,-2.293 2.232,-2.386 1.357,-0.102 2.1,0.396 2.401,2.081 0.402,2.254 0.573,4.548 0.844,6.825 M 8.191,63.872 C 6.592,63.408 5.336,63.044 4.385,62.768 4.185,56.551 3.977,50.661 3.842,44.769 3.833,44.352 4.271,43.794 4.656,43.533 c 0.437,-0.295 1.049,-0.329 1.585,-0.474 4.076,-1.102 6.563,-3.744 7.542,-7.822 0.272,-1.135 0.461,-2.291 0.72,-3.598 0.878,0.354 1.616,0.62 2.325,0.948 0.759,0.352 1.491,0.765 2.315,1.191 -4.679,9.761 -8.226,19.637 -10.952,30.094 m 160.772,-190.211 0.378,-0.015 c 0,-2.395 -0.014,-4.791 0.008,-7.185 0.007,-0.792 0.117,-1.583 0.168,-2.375 0.252,-3.908 2.977,-5.181 6.517,-4.829 4.003,0.398 8.797,4.121 8.883,10.226 0.019,1.278 0.074,2.561 -0.006,3.834 -0.242,3.831 -0.918,7.567 -2.384,11.153 -0.944,2.309 -2.711,3.57 -5.004,3.972 -1.625,0.287 -3.347,0.245 -4.999,0.079 -1.877,-0.189 -2.673,-0.986 -2.842,-2.954 -0.341,-3.96 -0.491,-7.936 -0.719,-11.906 m 36.728,267.244 c 2.922,-0.105 6.172,0.988 9.121,3.114 1.369,0.987 2.261,2.321 2.592,3.885 0.729,3.439 -0.608,9.494 -4.409,11.929 -4.747,3.042 -9.822,3.64 -15.116,2.208 -2.337,-0.633 -4.684,-1.524 -6.205,-3.759 -2.912,-4.283 -2.323,-11.394 3.676,-14.907 2.953,-1.729 6.231,-2.343 10.341,-2.47 m 28.836,-229.801 c -1.493,-0.536 -2.792,-1.215 -3.462,-2.648 -0.641,-1.369 -1.225,-2.767 -1.788,-4.17 -0.724,-1.8 -1.698,-3.391 -3.173,-4.709 -1.997,-1.784 -5.094,-2.304 -7.037,1.028 -0.962,1.648 -2.025,3.236 -3.038,4.854 -0.983,1.569 -1.537,1.807 -3.062,0.77 -1.169,-0.794 -2.154,-1.875 -3.162,-2.889 -1.684,-1.693 -3.307,-3.444 -4.981,-5.148 -1.785,-1.814 -3.685,-3.525 -5.377,-5.421 -1.635,-1.833 -1.528,-3.05 -0.424,-5.142 0.572,-1.083 0.764,-2.386 1.017,-3.612 0.192,-0.928 0.15,-1.904 0.319,-2.838 0.358,-1.995 1.007,-2.556 2.909,-2.132 3.801,0.849 7.579,1.807 11.341,2.817 1.893,0.509 3.333,1.715 4.578,3.264 0.93,1.156 2.164,2.07 3.273,3.08 0.936,0.852 2.084,1.546 2.795,2.553 2.114,2.99 4.128,6.056 6.049,9.175 2.067,3.354 2.964,7.107 3.223,11.168 m -136.89,46.042 c -9.741,4.679 -19.017,9.711 -27.686,16.052 -3.06,-4.26 -5.994,-8.322 -8.889,-12.412 -0.24,-0.339 -0.42,-0.96 -0.274,-1.294 1.308,-2.984 2.612,-5.975 4.096,-8.873 0.702,-1.372 2.012,-2.234 3.584,-2.564 1.477,-0.31 2.941,-0.696 4.429,-0.928 5.291,-0.826 9.915,-2.875 13.446,-7.057 0.699,-0.828 1.539,-1.538 2.503,-2.489 2.975,6.622 5.81,12.931 8.791,19.565 M 30.9,12.938 C 24.633,8.686 18.419,4.498 12.256,0.238 c -0.579,-0.4 -1.051,-1.219 -1.201,-1.923 -0.409,-1.917 -0.026,-3.612 1.784,-4.797 2.045,-1.34 3.602,-3.123 4.585,-5.401 0.279,-0.647 0.808,-1.182 1.175,-1.798 0.938,-1.569 1.9,-3.126 2.754,-4.741 0.669,-1.265 1.174,-2.618 1.782,-3.918 0.92,-1.968 1.895,-2.436 3.993,-1.921 1.236,0.304 2.457,0.668 3.691,0.979 3.252,0.819 6.527,1.382 10.052,0.695 3.541,3.685 7.12,7.407 10.585,11.013 C 47.829,-7.509 44.232,-3.665 40.855,0.362 37.478,4.389 34.32,8.599 30.9,12.938 M -1.83,60.969 c -0.415,0.049 -0.582,0.114 -0.726,0.079 -4.326,-1.058 -8.658,-2.098 -12.966,-3.228 -0.526,-0.138 -1.07,-0.677 -1.359,-1.174 -2.487,-4.267 -4.789,-8.648 -7.4,-12.835 -2.68,-4.297 -3.676,-8.966 -3.61,-13.896 0.027,-2.037 0.304,-4.078 1.18,-6.041 1.925,-4.315 4.359,-8.322 6.802,-12.35 1.627,-2.682 3.871,-4.635 6.264,-6.487 1.568,-1.212 2.449,-1.043 3.54,0.67 0.981,1.541 1.735,3.225 2.664,4.802 0.611,1.038 0.452,1.939 -0.158,2.88 -0.39,0.601 -0.722,1.241 -1.07,1.868 -0.715,1.287 -1.424,2.577 -2.186,3.959 6.78,3.298 13.286,6.462 19.703,9.582 0.178,2.164 0.11,4.03 -0.673,5.868 -1.134,2.662 -2.388,3.652 -5.23,3.659 -1.023,0.003 -2.046,-0.221 -3.07,-0.333 -1.842,-0.201 -2.673,0.692 -2.321,2.528 0.135,0.704 0.425,1.382 0.514,2.089 0.389,3.075 0.993,6.153 1.014,9.233 0.02,3.001 -0.575,6.006 -0.912,9.127 m 69.752,-221.948 c 0.098,-0.25 0.195,-0.5 0.293,-0.75 0.674,-0.079 1.352,-0.126 2.02,-0.24 2.423,-0.409 4.939,-0.549 7.247,-1.312 8.888,-2.942 14.947,-8.568 16.541,-18.212 0.18,-1.083 0.533,-2.175 1.011,-3.163 0.922,-1.908 2.19,-2.313 4.089,-1.406 0.561,0.268 1.049,0.703 1.544,1.096 1.436,1.142 2.823,2.347 4.291,3.445 3.701,2.768 7.59,5.309 11.122,8.276 5.516,4.633 11.752,7.891 18.366,10.558 7.142,2.879 13.694,6.805 19.889,11.348 0.319,0.234 0.633,0.497 0.879,0.803 1.05,1.311 0.613,2.536 -1.032,2.718 -1.17,0.129 -2.383,0.203 -3.54,0.041 -2.517,-0.353 -4.996,-0.977 -7.517,-1.286 -1.725,-0.212 -3.502,-0.207 -5.237,-0.062 -1.24,0.104 -2.487,0.964 -2.588,2.136 -0.077,0.898 0.831,1.926 1.419,2.817 0.236,0.358 0.787,0.509 1.196,0.752 0.546,0.326 1.114,0.622 1.637,0.983 1.68,1.159 2.219,2.601 1.914,4.239 -0.249,1.341 -2.052,2.416 -3.722,2.504 -3.016,0.16 -5.793,-0.539 -8.384,-2.227 -2.933,-1.91 -6.061,-3.518 -9.021,-5.389 -1.872,-1.182 -3.653,-2.531 -5.36,-3.944 -1.286,-1.066 -2.421,-2.324 -3.568,-3.548 -2.089,-2.229 -4.691,-3.257 -7.687,-3.317 -2.557,-0.053 -5.117,-0.061 -7.673,0.008 -4.727,0.127 -9.384,-0.335 -13.919,-1.679 -2.512,-0.744 -4.945,-1.755 -7.446,-2.547 -1.663,-0.526 -3.407,-0.801 -5.063,-1.345 -0.64,-0.21 -1.138,-0.852 -1.701,-1.297 m 143.888,34.291 c 0.374,-1.885 1.095,-2.85 2.342,-3.4 1.236,-0.545 2.459,-1.151 3.742,-1.56 4.849,-1.548 8.778,-4.48 12.29,-8.043 1.943,-1.972 2.232,-3.618 1.052,-5.85 -0.636,0.097 -1.384,0.067 -2.009,0.33 -3.45,1.452 -6.85,3.029 -10.313,4.446 -1.232,0.504 -2.585,0.876 -3.905,0.957 -1.571,0.097 -3.167,-0.18 -4.751,-0.301 -0.318,-0.025 -0.645,-0.037 -0.951,-0.119 -1.056,-0.282 -1.449,-1.068 -0.829,-1.966 0.484,-0.702 1.17,-1.301 1.863,-1.816 8.316,-6.178 17.925,-9.273 27.848,-11.586 4.581,-1.068 9.202,-1.962 13.77,-3.077 6.001,-1.465 11.583,-4.016 17.048,-6.852 2.458,-1.276 5.043,-2.276 7.786,-2.97 1.235,1.613 1.691,3.364 1.892,5.198 0.34,3.086 0.407,6.224 1.019,9.252 1.349,6.682 4.768,11.765 11.695,13.823 0.769,0.229 1.464,0.711 2.123,1.041 -0.121,0.482 -0.108,0.686 -0.204,0.777 -2.653,2.508 -6.199,3.013 -9.45,4.179 -0.127,0.046 -0.306,-0.075 -0.462,-0.082 -4.782,-0.212 -9.563,-0.489 -14.347,-0.597 -2.384,-0.055 -4.826,-0.069 -7.154,0.369 -7.897,1.481 -15.76,3.142 -23.623,4.793 -5.761,1.209 -11.438,2.906 -17.379,3.042 -2.932,0.067 -5.866,0.012 -9.093,0.012 m 81.515,96.835 c 1.833,0.344 2.717,1.495 3.416,2.754 1.044,1.883 1.924,3.857 2.944,5.753 2.075,3.856 4.05,7.778 6.354,11.493 1.495,2.412 3.915,3.502 6.89,3.603 3.288,0.109 6.103,-1.07 8.846,-2.563 2.929,-1.592 5.499,-1.222 7.837,1.082 0.451,0.444 0.872,0.928 1.243,1.441 3.001,4.135 4.979,8.732 5.902,13.743 1.014,5.506 2.185,10.958 4.576,16.06 1.473,3.142 3.484,5.73 7.212,6.349 0.206,0.034 0.378,0.277 0.691,0.518 0.001,3.546 -0.997,6.864 -3.131,9.764 -1.764,2.397 -3.326,4.863 -4.241,7.715 -1.098,3.421 -1.897,6.897 -2.032,10.683 -6.947,1.764 -13.85,3.517 -20.712,5.26 -1.713,-5.27 -3.205,-10.316 -4.998,-15.252 -1.813,-4.988 -3.923,-9.868 -5.944,-14.896 9.96,-4.826 19.827,-9.607 29.886,-14.481 -4.873,-8.438 -9.567,-16.567 -14.375,-24.89 -9.271,6.294 -18.367,12.471 -27.666,18.785 -6,-8.866 -12.894,-16.891 -20.5,-24.536 5.988,-6.184 11.866,-12.255 17.802,-18.385 m -99.139,-75.32 c 1.431,1.563 2.972,3.066 4.306,4.735 3.085,3.86 5.93,7.919 9.148,11.662 1.847,2.148 2.211,4.121 1.316,6.755 -2.836,8.339 -4.296,16.999 -5.573,25.684 -0.201,1.362 -0.028,2.778 -0.028,4.193 -4.883,-0.925 -9.4,-1.872 -13.951,-2.619 -4.585,-0.753 -9.201,-1.309 -13.917,-1.967 0.806,-11.129 1.594,-21.977 2.389,-32.964 h -28.627 c 0.787,11.006 1.57,21.942 2.358,32.952 -5.482,0.789 -10.687,1.407 -15.84,2.317 -5.214,0.921 -10.378,2.132 -15.72,3.249 -1.509,-5.336 -2.994,-10.585 -4.47,-15.799 0.362,-0.162 0.501,-0.274 0.643,-0.278 0.397,-0.011 0.803,-0.018 1.194,0.046 5.204,0.861 9.787,-0.814 13.922,-3.724 4.621,-3.252 8.315,-7.558 11.337,-12.225 4.914,-7.588 11.783,-13.152 18.34,-19.076 1.75,-1.581 3.791,-1.943 6.005,-1.131 4.084,1.496 8.118,1.589 12.06,-0.434 1.942,-0.997 3.759,-0.909 5.639,0.204 2.418,1.432 4.872,1.199 7.257,-0.158 0.685,-0.39 1.329,-0.851 2.212,-1.422 m -83.234,22.036 c -9.055,3.308 -17.918,6.545 -26.921,9.834 0.979,2.279 1.823,4.241 2.73,6.35 -1.12,1.045 -2.218,2.077 -3.324,3.1 -3.488,3.225 -7.474,5.375 -12.289,5.836 -5.528,0.531 -9.981,2.596 -11.978,8.32 -0.541,1.55 -1.558,2.933 -2.428,4.524 -2.181,-2.986 -4.236,-5.801 -6.353,-8.7 -1.74,1.411 -3.314,2.687 -5.162,4.187 -0.104,-0.778 -0.187,-1.146 -0.197,-1.517 -0.069,-2.635 -0.181,-5.271 -0.167,-7.905 0.017,-3.056 0.332,-6.086 1.965,-8.776 4.195,-6.909 9.802,-12.41 16.997,-16.091 2.825,-1.444 6.011,-2.194 9.259,-1.062 1.639,0.571 2.597,2.042 2.298,3.709 -0.209,1.164 -0.604,2.303 -0.993,3.426 -0.855,2.469 -2.326,4.726 -2.357,7.476 -0.018,1.528 0.499,2.727 1.617,3.091 1.228,0.398 2.397,-0.044 3.135,-1.529 0.703,-1.414 1.185,-2.949 1.658,-4.464 1.117,-3.575 1.838,-7.315 3.32,-10.727 2.986,-6.876 7.86,-12.346 13.982,-16.638 5.641,-3.953 11.839,-6.926 18.1,-9.742 2.093,-0.941 4.309,-1.653 6.528,-2.257 1.694,-0.461 3.466,-0.535 5.17,0.225 2.061,0.917 2.84,2.668 1.858,4.67 -0.405,0.825 -1.108,1.53 -1.769,2.2 -0.893,0.907 -2.048,1.602 -2.773,2.617 -0.758,1.062 -1.394,2.347 -1.628,3.619 -0.363,1.974 1.062,3.348 3.057,3.296 2.438,-0.066 4.209,-1.479 5.7,-3.145 2.445,-2.733 4.858,-5.519 7.02,-8.477 3.747,-5.123 7.83,-9.87 13.035,-13.583 4.171,-2.975 8.52,-5.568 13.487,-6.938 0.797,1.31 0.756,1.373 0.766,2.937 0.015,2.134 0.105,4.269 0.201,6.402 0.043,0.953 0.185,1.901 0.271,2.852 0.206,2.275 -0.693,3.967 -2.539,5.322 -2.377,1.743 -4.793,3.478 -6.932,5.493 -4.65,4.38 -9.134,8.937 -13.691,13.418 -1.078,1.06 -2.297,2.003 -3.242,3.17 -2.656,3.284 -5.252,6.62 -7.781,10.004 -3.73,4.992 -11.078,7.116 -16.931,4.762 -0.875,-3.009 -1.76,-6.058 -2.699,-9.289 m -132.75,58.897 c -0.187,1.448 -0.363,2.533 -0.461,3.625 -0.2,2.22 -0.302,4.45 -0.549,6.664 -0.303,2.717 -0.607,3.038 -3.317,3.475 -3.525,0.57 -6.673,1.958 -9.668,3.886 -2.399,1.545 -4.907,2.972 -7.509,4.135 -2.271,1.015 -3.251,2.709 -3.531,4.96 -0.373,3.006 0.629,3.649 3.657,2.998 0.784,-0.169 1.509,-0.869 2.138,-1.457 1.403,-1.309 2.655,-2.785 4.105,-4.034 1.504,-1.296 3.11,-2.498 4.784,-3.567 1.704,-1.09 3.625,-1.703 5.694,-1.421 2.233,0.306 4.355,1.125 5.143,3.364 0.856,2.434 0.988,5.064 -0.474,7.398 -2.202,3.516 -4.417,7.034 -6.826,10.409 -3.103,4.348 -6.39,8.565 -9.627,12.817 -1.013,1.33 -2.059,2.645 -3.194,3.872 -3.46,3.735 -7.682,6.499 -12.067,8.966 -4.544,2.556 -8.218,6.045 -11.566,9.936 -0.601,0.698 -1.111,1.61 -1.3,2.5 -0.459,2.151 0.974,3.365 2.912,2.333 1.867,-0.994 3.558,-2.369 5.183,-3.746 1.081,-0.916 1.793,-2.268 2.876,-3.182 2.924,-2.467 5.921,-4.854 8.964,-7.174 1.585,-1.208 3.314,-2.232 5.401,-2.388 3.059,-0.23 4.594,0.906 4.759,3.964 0.146,2.703 0.231,5.472 -0.183,8.131 -0.845,5.428 -1.949,10.822 -3.123,16.193 -1.478,6.758 -3.911,13.154 -7.83,18.919 -1.065,1.567 -1.627,3.262 -1.433,5.19 0.161,1.593 1.084,2.207 2.605,1.6 1.387,-0.555 2.413,-1.532 3.045,-2.889 0.809,-1.736 1.589,-3.486 2.378,-5.231 3.428,-7.58 6.448,-15.297 7.728,-23.576 0.424,-2.746 0.903,-5.505 1.009,-8.271 0.106,-2.777 -0.226,-5.57 -0.352,-8.356 -0.022,-0.478 -0.039,-0.971 0.052,-1.435 0.191,-0.972 0.586,-2.092 1.65,-2.052 0.673,0.025 1.552,0.822 1.913,1.499 0.59,1.109 1.004,2.376 1.187,3.622 0.452,3.071 1.361,5.862 3.606,7.438 -1.756,9.851 -3.441,19.302 -5.167,28.98 2.722,0.318 5.233,0.631 7.748,0.901 2.479,0.267 4.963,0.493 7.745,0.765 -0.71,0.947 -1.128,1.627 -1.664,2.198 -3.117,3.314 -6.247,6.616 -9.401,9.896 -2.77,2.879 -5.473,5.834 -8.39,8.557 -5.358,5.003 -11.565,7.574 -19.118,6.804 -3.535,-0.361 -6.254,-1.392 -8.092,-4.529 -1.909,-3.259 -3.176,-6.609 -2.152,-10.44 0.72,-2.694 1.355,-5.424 2.279,-8.05 1.118,-3.176 1.961,-6.386 2.337,-9.732 0.36,-3.214 -0.608,-5.186 -3.476,-6.678 -0.774,-0.403 -1.584,-0.841 -2.425,-0.994 -3.828,-0.693 -7.652,-1.517 -11.516,-1.853 -3.299,-0.286 -6.495,-0.783 -9.47,-2.194 -2.649,-1.257 -4.316,-3.397 -4.078,-6.448 0.277,-3.574 1.427,-6.918 4.112,-9.426 2.622,-2.448 5.309,-4.864 8.2,-6.976 4.83,-3.53 9.841,-6.813 14.784,-10.186 3.034,-2.071 6.192,-4.003 8.605,-6.829 1.887,-2.208 2.155,-5.844 -0.849,-7.341 -0.499,-0.248 -0.978,-0.54 -1.45,-0.837 -2.047,-1.292 -3.792,-2.84 -4.93,-5.063 -2.25,-4.39 -1.717,-8.815 -0.175,-13.19 1.309,-3.712 4.175,-6.384 6.847,-9.109 1.549,-1.58 3.263,-3.112 5.165,-4.212 3.998,-2.313 8.126,-4.413 12.28,-6.439 4.646,-2.263 9.379,-4.346 14.472,-6.69 m 56.266,-4.751 c -0.752,0 -1.229,0.111 -1.626,-0.02 -1.658,-0.551 -3.296,-1.163 -4.935,-1.771 -3.39,-1.258 -6.527,-0.545 -8.819,2.251 -1.15,1.404 -2.11,2.994 -2.97,4.6 -1.579,2.952 -2.856,6.073 -4.549,8.953 -4.878,8.302 -12.273,11.162 -21.37,9.098 -5.81,-1.317 -7.994,-5.224 -6.249,-10.966 0.573,-1.887 1.378,-3.762 2.401,-5.446 2.672,-4.397 4.879,-8.978 5.913,-14.034 0.296,-1.448 0.448,-3.089 0.074,-4.484 -1.338,-4.982 -3.403,-9.526 -7.778,-12.789 -2.77,-2.065 -4.898,-4.796 -5.617,-8.378 -0.541,-2.7 0.194,-5.071 2.353,-6.593 2.985,-2.106 6.117,-4.083 9.402,-5.666 5.749,-2.771 11.787,-4.841 17.962,-6.503 5.075,-1.365 10.171,-2.689 15.161,-4.324 3.62,-1.187 5.242,-3.666 5.148,-7.192 -0.045,-1.658 -0.46,-3.305 -0.677,-4.961 -0.258,-1.973 -0.624,-3.947 -0.694,-5.93 -0.124,-3.478 2.896,-7.739 6.266,-8.723 2.429,-0.71 4.94,-1.311 7.452,-1.536 6.503,-0.585 13.028,-0.921 19.541,-1.385 2.815,-0.2 5.046,-1.424 6.363,-4 0.652,-1.275 1.093,-2.662 1.773,-3.92 0.748,-1.385 1.445,-2.91 2.555,-3.96 1.608,-1.518 3.492,-2.791 5.394,-3.943 4.228,-2.564 8.6,-4.894 12.802,-7.496 3.653,-2.262 7.502,-3.949 11.77,-4.37 4.875,-0.48 9.776,-0.572 14.096,2.337 2.973,2.002 6.022,3.902 8.444,6.64 2.027,2.29 1.76,4.771 -0.903,6.337 -0.824,0.484 -1.704,0.873 -2.556,1.311 -1.347,0.694 -2.681,0.841 -4.134,0.208 -1.237,-0.54 -2.547,-0.926 -3.848,-1.303 -3.472,-1.004 -6.997,-1.625 -10.594,-0.79 -3.947,0.916 -7.873,1.923 -11.803,2.909 -0.376,0.095 -0.74,0.291 -1.073,0.498 -1.444,0.894 -1.895,1.926 -1.527,3.409 0.382,1.539 1.4,2.283 3.16,2.297 0.399,0.003 0.814,0.036 1.195,-0.055 2.396,-0.569 4.824,-1.046 7.164,-1.795 2.754,-0.881 5.52,-0.785 8.299,-0.472 0.904,0.101 1.997,0.367 2.257,1.486 0.267,1.151 0.004,2.225 -1.013,2.992 -0.19,0.144 -0.366,0.314 -0.574,0.429 -1.664,0.924 -3.261,2.019 -5.017,2.716 -3.326,1.322 -6.727,2.468 -10.13,3.581 -2.191,0.717 -4.419,1.367 -6.674,1.829 -3.193,0.653 -6.443,1.021 -9.638,1.662 -5.928,1.19 -11.838,2.472 -17.748,3.751 -1.625,0.353 -3.29,0.672 -4.803,1.319 -0.861,0.369 -1.661,1.258 -2.116,2.113 -0.772,1.447 -0.099,2.689 1.523,2.985 1.07,0.194 2.195,0.212 3.285,0.14 1.664,-0.111 3.319,-0.534 4.977,-0.524 2.573,0.017 3.262,1.527 2.244,3.382 -0.543,0.989 -1.508,1.943 -2.515,2.446 -3.989,1.99 -7.987,4.009 -12.138,5.611 -4.695,1.811 -9.304,3.651 -13.627,6.32 -8.294,5.121 -16.911,9.609 -26.631,11.523 -1.283,0.252 -2.523,0.972 -3.654,1.682 -1.393,0.874 -1.772,2.186 -1.373,3.739 0.32,1.244 1.45,2.182 3.09,2.134 1.405,-0.042 2.857,-0.302 4.186,-0.759 2.179,-0.751 4.301,-1.684 6.401,-2.643 2.253,-1.029 2.835,0.101 3.13,2.066 0.11,0.724 -0.21,1.569 -0.509,2.285 -0.614,1.467 -1.387,2.867 -2.021,4.326 -1.03,2.374 -2.373,4.583 -4.341,6.223 -3.675,3.064 -7.539,5.899 -11.27,8.896 -0.976,0.784 -1.856,1.741 -2.586,2.759 -0.657,0.916 -0.373,2.514 0.413,3.344 0.777,0.821 1.761,1.114 2.846,0.748 0.675,-0.227 1.347,-0.523 1.948,-0.903 2.163,-1.362 4.291,-2.779 6.438,-4.166 4.018,-2.596 7.362,-5.821 9.682,-10.066 0.724,-1.325 1.614,-2.575 2.556,-3.757 2.928,-3.679 5.929,-7.3 8.877,-10.963 0.847,-1.055 1.85,-1.753 3.233,-1.78 1.289,-0.027 2.264,0.585 2.437,1.833 0.384,2.776 0.508,5.583 -1.146,8.06 -1.222,1.828 -1.929,3.818 -2.365,5.948 -0.444,2.17 -0.351,4.187 1.489,5.808 -2.765,2.36 -5.407,4.615 -8.161,6.966 2.077,2.193 3.981,4.206 6.072,6.416 M 403.41,85.101 c 0.121,-2.163 0.063,-2.337 -1.116,-4.053 -4.807,-7.002 -10.316,-13.382 -16.641,-19.069 -2.785,-2.505 -4.596,-5.678 -5.603,-9.308 -0.682,-2.461 -1.545,-4.874 -2.169,-7.349 -0.737,-2.926 -1.393,-5.879 -1.919,-8.85 -0.383,-2.172 0.712,-4.127 2.47,-4.945 1.756,-0.816 3.239,-0.453 4.946,1.215 0.23,0.224 0.464,0.445 0.664,0.693 3.128,3.87 7.256,6.462 11.483,8.906 0.72,0.416 1.664,0.592 2.51,0.607 1.279,0.024 1.982,-1.185 1.428,-2.342 -0.234,-0.488 -0.616,-0.947 -1.033,-1.297 -2.501,-2.107 -4.997,-4.222 -7.562,-6.247 -3.254,-2.571 -6.576,-5.056 -9.865,-7.582 -1.833,-1.408 -3.652,-2.834 -5.492,-4.232 -1.463,-1.112 -2.513,-2.584 -2.74,-4.348 -0.221,-1.72 -0.111,-3.526 0.137,-5.253 0.37,-2.577 1.556,-3.205 4.034,-2.173 11.092,4.62 20.463,11.377 26.848,21.807 2.302,3.763 4.349,7.628 5.083,12.047 0.608,3.671 0.297,7.026 -3.208,9.292 -1.449,0.936 -2.03,2.355 -2.235,4.028 -0.588,4.805 1.008,8.661 4.515,12.008 4.433,4.232 7.76,9.291 10.049,15.009 0.844,2.11 0.968,4.115 -0.221,6.189 -1.227,2.139 -1.748,4.474 -0.888,6.897 0.983,2.77 2.004,5.528 3.112,8.25 0.659,1.621 1.598,3.128 2.26,4.749 0.731,1.789 0.074,4.242 -1.239,5.246 -1.182,0.904 -3.062,0.996 -4.488,-0.017 -5.563,-3.948 -11.892,-4.774 -18.458,-4.618 -3.279,0.078 -5.78,2.037 -6.594,5.192 -0.375,1.453 -0.577,2.986 -0.606,4.487 -0.08,4.157 0.082,8.32 -0.068,12.473 -0.094,2.616 -0.365,5.265 -0.935,7.814 -0.779,3.476 -2.344,4.967 -6.161,5.173 -2.709,0.147 -5.309,-0.376 -7.505,-1.947 -2.699,-1.929 -4.941,-4.457 -6.139,-7.527 -2.29,-5.859 -4.544,-11.796 -4.829,-18.18 -0.166,-3.718 -2.044,-5.758 -5.327,-7.138 -3.298,-1.385 -6.446,-3.131 -9.639,-4.76 -2.574,-1.314 -4.164,-3.635 -4.996,-6.197 -1.579,-4.862 -1.9,-9.832 0.456,-14.684 3.496,-0.401 6.996,-0.803 10.556,-1.212 -1.711,-9.523 -3.215,-18.77 -5.012,-28.043 -1.645,0.308 -2.982,0.559 -4.415,0.828 0.012,-2.441 0.7,-4.386 1.807,-6.158 1.646,-2.637 3.378,-5.222 5.112,-7.805 1.99,-2.965 3.336,-6.141 3.58,-9.755 0.061,-0.91 0.459,-1.798 0.68,-2.611 2.828,-0.298 5.24,-1.01 7.473,-2.369 1.916,-1.166 3.138,-0.736 3.795,1.404 0.391,1.273 0.525,2.658 0.572,4 0.207,5.904 0.322,11.811 0.507,17.716 0.125,3.987 0.365,7.971 0.455,11.959 0.061,2.631 -0.636,5.003 -2.599,6.954 -1.98,1.967 -3.801,4.091 -5.719,6.122 -4.097,4.336 -5.909,9.586 -6.027,15.441 -0.043,2.127 0.276,4.269 0.542,6.391 0.114,0.919 0.724,1.675 1.718,1.76 1.072,0.092 2.092,-0.19 2.59,-1.291 0.457,-1.009 0.934,-2.029 1.216,-3.094 0.572,-2.157 0.886,-4.39 1.548,-6.516 1.162,-3.728 2.372,-7.452 3.815,-11.078 1.142,-2.869 4.502,-3.132 6.464,-0.98 2.073,2.274 3.285,4.955 3.62,7.925 0.447,3.955 0.762,7.944 0.791,11.921 0.047,6.212 1.108,12.221 3.002,18.097 0.434,1.344 1.144,2.633 1.928,3.813 0.316,0.475 1.168,0.802 1.786,0.817 0.877,0.023 1.486,-0.653 1.527,-1.548 0.052,-1.183 0.125,-2.407 -0.107,-3.553 -0.837,-4.148 -1.548,-8.293 -1.634,-12.548 -0.057,-2.864 -0.405,-5.724 -0.676,-8.581 -0.574,-6.027 -1.21,-12.049 -1.753,-18.078 -0.115,-1.272 -0.035,-2.692 1.327,-3.347 1.311,-0.63 2.467,0.159 3.562,0.827 0.267,0.163 0.498,0.402 0.707,0.64 1.94,2.22 3.784,4.531 5.83,6.648 1.768,1.828 3.712,3.496 5.673,5.12 0.944,0.782 2.118,1.185 3.44,0.218 M 253.125,-64.617 c -0.942,-2.858 -1.358,-5.336 -1.417,-7.9 -0.049,-2.147 -0.17,-4.301 -0.436,-6.43 -0.485,-3.879 -2.74,-6.958 -6.816,-7.533 -0.549,-0.078 -1.099,-0.223 -1.617,-0.421 -0.35,-0.134 -0.704,-0.363 -0.954,-0.64 -1.374,-1.53 -2.048,-6.215 -0.987,-7.963 0.405,-0.667 1.286,-1.206 2.06,-1.44 0.709,-0.215 1.581,-0.019 2.353,0.133 3.012,0.592 5.77,1.839 8.319,3.517 3.349,2.202 6.95,3.896 10.64,5.414 2.314,0.953 4.438,2.186 6.005,4.176 1.576,2.003 3.078,4.064 4.586,6.121 2.951,4.022 4.54,8.497 4.842,13.515 0.206,3.426 1.041,6.773 2.667,9.857 0.885,1.679 2.193,2.395 3.64,2.041 1.585,-0.387 2.488,-1.671 2.335,-3.669 -0.083,-1.092 -0.425,-2.178 -0.756,-3.233 -0.525,-1.67 -1.28,-3.279 -1.681,-4.975 -0.621,-2.62 0.738,-4.239 3.443,-4.141 1.418,0.051 2.911,0.203 4.22,0.703 5.48,2.09 10.55,4.901 14.873,8.953 2.365,2.217 3.457,4.886 3.384,8.112 -0.1,4.476 -0.082,8.953 -0.195,13.427 -0.147,5.87 1.742,11.305 3.489,16.77 0.291,0.911 0.795,1.744 2.051,1.564 1.192,-0.17 1.903,-0.852 2.122,-1.963 0.137,-0.689 0.166,-1.462 -0.005,-2.134 -0.451,-1.767 -1.025,-3.505 -1.574,-5.247 -1.11,-3.526 -1.253,-7.011 0.287,-10.473 1.281,-2.88 3.943,-4.738 6.456,-4.411 1.982,0.258 3.277,1.586 4.458,3 1.281,1.532 2.434,3.167 3.662,4.743 2.421,3.109 4.313,6.471 5.636,10.22 1.218,3.446 2.697,6.825 4.351,10.087 1.181,2.327 3.005,4.323 4.254,6.623 2.433,4.484 4.665,9.077 6.98,13.625 0.215,0.422 0.367,0.898 0.662,1.254 1.228,1.486 3.129,1.328 3.818,-0.466 0.402,-1.048 0.433,-2.343 0.284,-3.481 -0.564,-4.269 -2.904,-7.764 -5.418,-11.057 -4.394,-5.756 -7.979,-11.954 -10.785,-18.598 -0.733,-1.735 -1.146,-3.651 -1.406,-5.525 -0.267,-1.922 1.009,-3.1 2.905,-2.691 1.2,0.258 2.336,0.957 3.417,1.598 3.841,2.28 7.631,4.645 11.479,6.911 0.737,0.434 1.641,0.745 2.483,0.783 0.709,0.032 1.636,-0.213 2.121,-0.688 1.169,-1.143 1.131,-3.391 -0.036,-4.57 -1.001,-1.01 -2.087,-2.002 -3.302,-2.721 -2.469,-1.46 -4.982,-2.882 -7.597,-4.051 -8.638,-3.862 -16.615,-8.838 -24.387,-14.173 -3.553,-2.44 -7.097,-4.892 -10.638,-7.35 -3.538,-2.456 -7.18,-4.783 -10.566,-7.437 -2.819,-2.209 -5.328,-4.814 -7.985,-7.232 -0.891,-0.811 -1.887,-1.593 -1.6,-2.975 0.318,-1.54 1.668,-1.785 2.924,-2.062 0.459,-0.101 0.966,-0.18 1.417,-0.092 1.873,0.362 3.759,0.703 5.592,1.22 2.217,0.623 4.364,1.492 6.582,2.112 1.915,0.536 3.178,0.049 3.936,-1.248 0.959,-1.642 0.804,-3.839 -0.471,-5.06 -2.004,-1.919 -4.382,-3.234 -7.115,-3.728 -5.715,-1.033 -11.472,-1.848 -17.165,-2.981 -4.991,-0.994 -9.969,-2.126 -14.862,-3.518 -5.28,-1.503 -10.459,-3.364 -15.672,-5.099 -2.266,-0.754 -4.54,-1.499 -6.747,-2.404 -1.455,-0.597 -2.668,-1.728 -2.711,-3.373 -0.043,-1.599 0.943,-2.848 2.341,-3.671 0.549,-0.322 1.12,-0.626 1.716,-0.847 2.461,-0.911 4.921,-1.832 7.411,-2.663 1.581,-0.527 3.249,-0.806 4.814,-1.375 1.898,-0.69 2.205,-2.381 0.753,-3.742 -0.332,-0.312 -0.813,-0.588 -1.254,-0.641 -2.025,-0.246 -4.07,-0.624 -6.089,-0.536 -2.044,0.089 -4.053,0.788 -6.1,1.003 -2.446,0.256 -4.929,0.511 -7.372,0.36 -4.758,-0.297 -9.482,-1.146 -14.281,-0.389 -0.888,0.141 -1.888,-0.19 -2.792,-0.454 -1.135,-0.331 -1.683,-1.107 -1.438,-1.997 4.766,-1.645 9.269,-3.199 13.771,-4.752 0.901,-0.312 1.794,-0.652 2.706,-0.926 5.061,-1.517 10.199,-2.502 15.512,-2.543 5.981,-0.046 11.962,-0.284 17.943,-0.282 2.533,0 4.819,0.829 6.42,3.068 1.671,2.337 3.501,4.561 5.215,6.868 1.99,2.68 3.091,5.727 3.627,9.006 0.296,1.806 0.706,3.593 1.017,5.397 0.606,3.511 2.426,6.254 5.425,8.084 1.474,0.899 3.153,1.627 4.834,1.991 4.977,1.078 10.026,1.827 14.999,2.916 4.197,0.918 8.404,1.906 12.467,3.274 4.992,1.681 7.17,5.864 4.654,11.001 -0.457,0.933 -1.032,1.828 -1.339,2.808 -0.421,1.341 -0.826,2.734 -0.906,4.124 -0.197,3.441 1.736,5.622 4.601,7.188 2.8,1.531 5.59,3.083 8.34,4.7 5.946,3.499 11.379,7.717 16.192,12.625 2.944,3.001 5.38,6.504 8.002,9.815 1.559,1.968 2.442,4.235 3.108,6.67 1.053,3.846 -0.679,6.515 -4.292,7.879 -1.402,0.529 -2.916,0.789 -4.396,1.077 -6.96,1.354 -9.585,8.478 -6.022,13.467 1.665,2.33 3.057,4.857 4.541,7.313 0.323,0.533 0.626,1.12 0.751,1.721 0.828,3.969 0.594,7.947 -0.179,11.883 -0.483,2.454 -1.794,4.508 -4.191,5.479 -2.707,1.097 -5.591,1.413 -8.449,0.733 -1.195,-0.284 -2.596,-0.83 -3.327,-1.727 -1.904,-2.335 -3.781,-4.784 -5.131,-7.46 -1.678,-3.327 -2.739,-6.961 -4.203,-10.404 -2.383,-5.604 -5.292,-10.91 -9.31,-15.546 -1.278,-1.475 -2.785,-2.547 -4.679,-3.147 -3.501,-1.112 -6.58,0.049 -9.626,1.57 -1.281,0.64 -2.531,1.361 -3.86,1.877 -1.677,0.65 -2.876,0.216 -3.914,-1.283 -0.452,-0.653 -0.791,-1.386 -1.153,-2.097 -3.007,-5.904 -5.981,-11.826 -9.021,-17.714 -1.802,-3.492 -4.132,-6.444 -8.215,-7.482 -0.582,-0.149 -1.117,-0.588 -1.605,-0.978 -1.432,-1.141 -2.836,-2.321 -4.243,-3.495 -3.291,-2.746 -6.578,-5.499 -9.976,-8.339 -1.238,1.657 -2.36,3.157 -3.711,4.964 -0.457,-1.393 -0.826,-2.355 -1.085,-3.346 -0.669,-2.543 -1.184,-5.131 -1.956,-7.641 -1.131,-3.685 -3.072,-6.835 -6.56,-8.798 -3.009,-1.692 -6.165,-1.123 -8.359,1.54 -0.599,0.727 -1.151,1.494 -1.958,2.548 m 10.152,69.643 c 44.62,44.436 57.086,120.737 13.722,180.621 -43.336,59.844 -124.113,75.432 -186.33,37.447 C 27.505,184.531 5.127,104.739 38.928,39.269 73.49,-27.677 147.784,-48.645 203.237,-30.944 c 0.167,3.488 0.238,6.998 0.52,10.49 0.84,10.353 2.658,20.544 5.373,30.568 0.586,2.16 1.39,4.238 2.796,6.043 1.14,1.464 3.327,3.279 4.606,3.672 0.018,-0.076 0.066,-0.159 0.051,-0.227 -2.8,-12.55 -4.566,-25.256 -5.419,-38.073 -0.472,-7.086 -0.524,-14.202 -0.707,-21.306 -0.185,-7.111 0.085,-14.206 1.039,-21.263 0.758,-5.606 1.432,-11.226 2.355,-16.805 0.613,-3.704 1.718,-7.334 3.626,-10.593 1.068,-1.826 2.413,-3.581 3.964,-5.009 1.606,-1.479 3.197,-1.074 4.442,0.728 0.77,1.115 1.518,2.264 2.102,3.481 1.493,3.111 3.917,4.899 7.26,5.652 2.014,0.454 4.01,1.057 5.945,1.778 3.092,1.152 5.342,3.144 5.802,6.639 0.186,1.417 0.359,2.837 0.502,4.26 0.23,2.299 0.342,4.612 0.666,6.896 0.507,3.585 2.28,6.628 4.521,9.374 2.796,3.427 4.544,7.323 5.351,11.616 0.72,3.833 1.278,7.702 1.76,11.573 0.482,3.876 0.439,7.756 -0.238,11.632 -0.327,1.878 -0.47,3.802 -0.515,5.711 -0.107,4.484 -0.614,8.926 -1.729,13.253 -2.931,11.367 -4.832,22.919 -6.639,34.5 -1.314,8.426 -2.694,16.847 -4.296,25.223 -0.729,3.819 -1.732,7.659 -3.213,11.242 -1.732,4.187 -3.995,8.175 -6.255,12.119 -2.706,4.721 -4.489,9.701 -4.751,15.131 -0.278,5.741 -0.34,11.493 -0.499,17.239 -0.031,1.118 -0.041,2.238 -0.111,3.354 -0.471,7.576 -2.677,14.713 -5.631,21.637 -1.032,2.417 -2.831,4.175 -5.226,4.949 -1.672,-1.519 -3.106,-3.019 -4.736,-4.263 -4.695,-3.584 -10.135,-4.131 -15.727,-3.281 -3.676,0.559 -7.154,2.043 -9.638,4.879 -1.391,1.589 -2.81,2.156 -4.739,2.073 -6.929,-0.297 -13.866,-0.447 -20.783,-0.918 -4.518,-0.308 -9.025,-0.956 -13.502,-1.67 -4.714,-0.751 -9.388,-1.758 -14.078,-2.662 -8.764,-1.69 -17.46,-3.663 -25.898,-6.618 -2.839,-0.994 -5.577,-2.237 -7.9,-3.893 0.462,-1.291 0.938,-2.377 1.239,-3.51 0.726,-2.735 0.658,-5.52 0.413,-8.318 -0.715,-8.152 -4.895,-13.635 -12.643,-16.269 -1.932,-0.657 -4.005,-0.902 -5.97,-1.326 -2.164,-4.515 -0.994,-10.729 3.388,-13.963 6.962,-5.137 14.923,-7.993 23.026,-10.308 6.545,-1.87 13.31,-2.94 20.295,-2.312 5.237,0.471 10.497,0.668 15.668,1.682 8.047,1.579 16.197,2.885 23.456,7.05 3.45,1.98 6.99,3.897 10.119,6.321 6.015,4.662 10.522,10.691 13.858,17.492 2.491,5.077 4.548,10.366 6.83,15.547 0.347,0.792 0.729,1.651 1.338,2.219 0.42,0.393 1.398,0.63 1.869,0.403 0.465,-0.224 0.905,-1.159 0.833,-1.715 -0.254,-1.967 -0.637,-3.93 -1.144,-5.849 -1.018,-3.864 -2.2,-7.727 -1.837,-11.759 0.299,-3.318 1.026,-6.595 1.514,-9.897 0.509,-3.444 -0.756,-5.799 -3.814,-7.093 -2.342,-0.991 -4.776,-1.161 -7.257,-1.201 -3.576,-0.058 -6.961,-0.774 -9.866,-3.021 -3.929,-3.04 -8.14,-5.589 -12.711,-7.565 -0.687,-0.296 -1.379,-1.107 -1.602,-1.824 -0.3,-0.969 0.562,-1.653 1.393,-1.971 2.294,-0.876 4.575,-1.942 6.961,-2.384 3.435,-0.636 6.959,-0.777 10.443,-1.153 0.546,-0.059 1.088,-0.211 1.613,-0.376 0.762,-0.239 1.347,-0.812 1.145,-1.578 -0.16,-0.604 -0.675,-1.277 -1.221,-1.575 -0.666,-0.365 -1.522,-0.446 -2.307,-0.517 -3.645,-0.33 -7.283,-0.398 -10.943,-0.015 -4.75,0.498 -9,1.991 -12.344,5.534 -1.559,1.651 -3.434,1.81 -5.506,1.397 -9.444,-1.884 -18.824,-4.257 -28.555,-4.082 -4.543,0.082 -9.119,0.038 -13.616,0.578 -5.216,0.627 -10.274,2.132 -15.21,4.014 -6.86,2.615 -13.24,5.959 -18.212,11.523 -1.003,1.123 -2.122,2.274 -2.697,3.621 -1.623,3.804 -1.987,7.832 -1.455,11.937 0.091,0.699 0.134,1.404 0.198,2.106 -2.413,2.123 -4.661,4.31 -6.39,6.85 -2.696,3.96 -3.948,8.463 -2.511,13.185 1.827,6.009 6.379,9.523 12.163,11.137 3.976,1.11 8.21,1.27 12.321,0.199 1.681,-0.437 3.299,-1.116 5.042,-1.719 5.822,4.6 12.734,7.085 19.683,9.454 7.408,2.526 15.054,4.129 22.748,5.487 8.315,1.467 16.631,2.966 25.118,3.03 0.446,0.003 0.889,0.154 1.503,0.267 0,0.921 -0.047,1.712 0.008,2.496 0.182,2.593 1.221,4.887 3.216,6.474 4.025,3.2 8.683,4.75 13.844,4.052 1.397,-0.188 2.333,0.086 3.176,1.016 1.237,1.366 2.843,2.008 4.544,2.508 0.894,0.263 1.78,0.558 2.569,0.807 0.32,1.555 0.159,2.767 -0.539,3.932 -0.644,1.074 -0.528,2.165 0.295,3.105 0.607,0.693 1.385,1.068 2.352,0.795 1.284,-0.363 1.656,-1.371 1.8,-2.541 0.067,-0.553 0.064,-1.126 0.213,-1.657 0.355,-1.277 1.343,-2.199 2.093,-1.907 1.137,0.44 1.079,1.521 0.924,2.443 -0.262,1.569 -0.758,3.098 -1.028,4.666 -0.173,1.006 -0.243,2.065 -0.127,3.074 0.13,1.133 1.292,1.859 2.477,1.756 1.189,-0.104 1.629,-0.889 1.678,-1.957 0.03,-0.636 -0.058,-1.276 -0.05,-1.915 0.03,-2.54 0.049,-5.081 0.13,-7.619 0.038,-1.164 0.826,-1.693 1.905,-1.733 1.067,-0.039 1.882,0.422 2.069,1.556 0.129,0.78 0.211,1.586 0.169,2.373 -0.227,4.296 -0.504,8.589 -0.751,12.884 -0.078,1.354 -0.179,2.711 -0.157,4.065 0.03,1.869 0.799,2.865 2.111,2.931 1.289,0.065 2.151,-0.973 2.325,-2.8 0.016,-0.159 0.052,-0.318 0.047,-0.476 -0.167,-4.763 -0.352,-9.525 -0.499,-14.288 -0.064,-2.077 -0.061,-4.157 -0.069,-6.235 -0.003,-0.752 0.126,-1.492 1.031,-1.657 1.107,-0.201 1.369,0.669 1.533,1.44 0.163,0.768 0.227,1.583 0.172,2.367 -0.21,3.016 -0.536,6.026 -0.704,9.044 -0.052,0.928 0.134,1.925 0.461,2.797 0.183,0.488 0.824,0.981 1.353,1.127 1.248,0.343 1.972,-0.165 2.254,-1.452 0.135,-0.615 0.133,-1.27 0.121,-1.905 -0.115,-6.307 0.284,-12.62 -0.416,-18.924 -0.196,-1.764 0.241,-3.599 0.375,-5.255 1.324,-0.553 2.104,-0.207 2.426,0.755 0.323,0.964 0.553,2.006 0.567,3.017 0.059,4.399 -0.004,8.799 0.046,13.198 0.012,1.183 0.124,2.407 0.469,3.526 0.166,0.538 0.933,1.135 1.514,1.245 0.884,0.168 1.436,-0.567 1.668,-1.399 0.105,-0.375 0.091,-0.794 0.072,-1.191 -0.171,-3.585 -0.366,-7.168 -0.532,-10.753 -0.154,-3.347 -0.284,-6.694 -0.419,-10.041 -0.041,-1.035 0.273,-1.846 1.665,-2.257 0.26,0.858 0.636,1.645 0.711,2.461 0.118,1.266 0.099,2.555 0.018,3.827 -0.257,4.007 -0.03,7.978 0.781,11.909 0.379,1.833 1.186,2.675 2.275,2.541 1.119,-0.138 1.415,-0.763 1.306,-2.875 -0.1,-1.911 -0.29,-3.818 -0.332,-5.729 -0.098,-4.396 0.327,-8.862 -0.322,-13.169 -0.587,-3.889 0.384,-7.031 1.998,-10.387 4.129,-8.588 5.041,-17.868 5.341,-27.243 0.138,-4.305 0.217,-8.617 0.516,-12.912 0.252,-3.616 1.393,-7.009 3.103,-10.23 3.373,-6.355 6.459,-12.835 7.972,-19.94 1.512,-7.097 3.222,-14.155 4.529,-21.289 1.997,-10.901 3.724,-21.852 5.558,-32.784 0.461,-2.742 0.891,-5.49 1.388,-8.561 M 4.04,87.342 c -0.981,10.728 -1.035,21.219 0.028,32.016 -11.122,1.149 -22.067,2.279 -33.237,3.433 1.67,9.504 3.279,18.662 4.946,28.151 10.864,-2.446 21.406,-5.422 32.396,-8.046 2.748,10.281 6.228,20.241 10.994,30.03 -10.035,4.87 -19.906,9.66 -30.098,14.606 4.777,8.29 9.494,16.477 14.343,24.891 9.225,-6.255 18.32,-12.422 27.652,-18.75 6.16,8.801 12.871,16.976 20.584,24.484 -7.752,7.972 -15.432,15.868 -23.305,23.964 7.311,6.14 14.538,12.21 22.028,18.501 6.603,-9.13 13.035,-18.022 19.482,-26.936 4.599,2.87 8.982,5.762 13.519,8.391 4.544,2.633 9.241,5.003 14.168,7.647 -4.455,9.954 -8.961,20.027 -13.55,30.281 9.06,3.306 17.868,6.519 26.975,9.841 3.058,-10.762 6.058,-21.319 9.084,-31.969 5.233,1.083 10.396,2.272 15.605,3.197 5.157,0.915 10.362,1.563 15.866,2.376 -0.469,10.972 -1.677,21.883 -2.219,32.98 h 28.441 c -0.014,-5.453 -0.722,-10.878 -1.018,-16.318 -0.298,-5.479 -0.82,-10.946 -1.261,-16.641 5.4,-0.788 10.657,-1.432 15.866,-2.352 5.168,-0.912 10.286,-2.101 15.732,-3.233 2.954,10.397 5.95,20.942 8.939,31.464 1.765,-0.009 23.669,-7.747 27.047,-9.552 -4.487,-10.005 -8.98,-20.022 -13.589,-30.298 9.787,-4.4 18.832,-9.724 27.699,-15.962 6.486,8.972 12.913,17.862 19.523,27.006 7.498,-6.006 14.642,-12.195 22.084,-18.415 -7.778,-8.007 -15.437,-15.892 -23.242,-23.926 7.551,-7.627 14.443,-15.65 20.514,-24.545 9.286,6.3 18.377,12.467 27.657,18.763 4.822,-8.354 9.511,-16.475 14.359,-24.876 -10.093,-4.902 -19.963,-9.698 -30.05,-14.598 4.559,-9.672 8.214,-19.589 10.914,-30.081 10.835,2.732 21.449,5.408 32.38,8.164 1.668,-9.414 3.302,-18.64 4.992,-28.18 -10.987,-1.35 -21.98,-2.199 -33.053,-3.491 0.223,-5.388 0.614,-10.703 0.617,-16.018 0.003,-5.251 -0.387,-10.503 -0.615,-16.04 4.211,-0.409 8.437,-0.819 12.887,-1.251 0,1.137 0.015,1.924 -0.002,2.711 -0.144,6.296 1.863,11.92 5.397,17.039 1.99,2.883 3.89,5.875 7.107,7.624 0.555,0.302 1.077,0.721 1.669,0.884 3.263,0.9 5.072,3.224 6.027,6.263 0.714,2.274 1.258,4.611 1.725,6.95 1.016,5.083 2.895,9.787 6.017,13.936 2.155,2.864 4.38,5.681 6.685,8.426 1.788,2.131 4.116,3.423 6.879,4.014 4.185,0.894 8.32,1.103 12.488,-0.104 3.308,-0.96 5.521,-3.133 6.95,-6.127 1.419,-2.975 2.182,-6.173 2.476,-9.445 0.32,-3.571 0.437,-7.159 0.69,-10.736 0.102,-1.429 0.207,-2.878 0.521,-4.269 0.737,-3.252 5.865,-5.296 9.118,-3.706 0.142,0.07 0.288,0.146 0.409,0.247 3.414,2.866 7.402,3.279 11.69,3.12 4.606,-0.171 8.608,-4.075 9.286,-8.488 0.756,-4.91 -0.311,-9.528 -2.548,-13.907 -1.017,-1.99 -2.089,-3.954 -3.112,-5.941 -1.146,-2.229 -1.26,-4.335 -0.327,-6.851 1.532,-4.134 0.927,-8.414 -1.17,-12.263 -1.597,-2.929 -3.771,-5.538 -5.473,-8.417 -1.785,-3.015 -3.356,-6.159 -4.935,-9.291 -1.048,-2.079 -0.474,-4.043 0.759,-5.871 1.311,-1.947 2.218,-4.051 2.562,-6.385 0.829,-5.599 0.034,-10.951 -2.395,-16.067 -2.17,-4.57 -5.239,-8.373 -9.511,-11.13 -4.864,-3.14 -9.088,-7.011 -13.133,-11.125 -3.099,-3.153 -6.84,-5.412 -10.823,-7.34 -4.331,-2.097 -8.379,-4.63 -11.259,-8.677 -1.514,-2.126 -1.211,-3.259 1.353,-3.921 1.845,-0.476 3.756,-0.704 5.6,-1.182 3.012,-0.781 5.258,-2.546 6.49,-5.473 0.825,-1.954 1.021,-4.021 0.842,-6.092 -0.407,-4.755 -1.772,-9.235 -4.277,-13.315 -3.563,-5.801 -7.584,-11.286 -12.399,-16.096 -4.768,-4.765 -10.057,-8.857 -16.624,-10.985 -1.43,-0.464 -2.788,-1.205 -4.106,-1.946 -1.618,-0.909 -2.112,-2.627 -1.279,-4.303 0.422,-0.85 0.929,-1.692 1.554,-2.4 4.391,-4.984 3.416,-11.098 -0.143,-15.711 -2.723,-3.527 -6.503,-4.987 -10.708,-5.636 -5.426,-0.835 -10.873,-1.534 -16.284,-2.451 -4.08,-0.692 -8.134,-1.562 -12.168,-2.491 -2.55,-0.587 -4.516,-2.06 -5.28,-4.695 -0.619,-2.139 -1.227,-4.296 -1.598,-6.486 -1.039,-6.144 -4.033,-11.199 -8.367,-15.544 -0.392,-0.392 -0.923,-0.646 -1.39,-0.963 0.058,-0.211 0.115,-0.423 0.172,-0.634 1.82,-0.648 3.625,-1.34 5.462,-1.935 5.259,-1.702 10.677,-2.482 16.178,-2.902 1.526,-0.116 3.048,-0.781 4.487,-1.395 2.181,-0.929 2.949,-2.905 2.906,-5.067 -0.046,-2.314 -1.155,-4.165 -3.475,-4.946 -1.345,-0.453 -2.752,-0.826 -4.159,-0.978 -3.478,-0.376 -6.981,-0.522 -10.458,-0.912 -4.271,-0.479 -8.23,-2.03 -11.739,-4.436 -2.57,-1.761 -3.939,-4.626 -4.876,-7.516 -1.412,-4.356 -1.667,-8.748 0.626,-12.99 1.04,-1.926 0.869,-4.069 0.598,-6.109 -0.302,-2.257 -2.736,-3.894 -4.997,-3.277 -2.044,0.558 -4.133,1.321 -5.9,2.462 -8.882,5.735 -18.701,9.204 -28.734,12.171 -9.317,2.755 -18.681,5.348 -27.987,8.139 -5.132,1.539 -10.069,3.612 -14.455,6.768 -1.678,1.208 -3.199,2.634 -4.82,3.926 -2.704,2.156 -3.599,2.403 -5.956,0.92 -0.677,-0.425 -1.674,-0.474 -2.522,-0.466 -1.902,0.017 -3.456,-0.573 -5.085,-1.644 -5.558,-3.65 -11.512,-4.409 -17.733,-1.678 -0.512,0.224 -0.994,0.523 -1.516,0.714 -0.724,0.265 -1.264,0.14 -1.881,-0.506 -5.827,-6.09 -12.297,-11.415 -19.665,-15.526 -3.61,-2.013 -7.492,-3.537 -11.232,-5.32 -3.515,-1.677 -7.155,-3.162 -10.462,-5.186 -2.623,-1.603 -4.914,-3.798 -7.197,-5.9 -3.291,-3.031 -6.364,-6.301 -9.682,-9.3 -1.804,-1.632 -3.63,-3.311 -6.124,-4.017 -6.052,-1.715 -11.917,2.989 -12.819,7.515 -0.732,3.677 -1.512,7.369 -3.309,10.704 -0.976,1.813 -2.167,3.523 -3.385,5.188 -1.297,1.772 -3.326,2.449 -5.326,3.005 -2.951,0.819 -5.955,0.896 -8.997,0.432 -3.304,-0.503 -6.599,-0.878 -9.929,0.161 -1.13,0.353 -2.167,0.699 -2.786,1.648 -0.95,1.455 -1.996,2.94 -2.506,4.567 -0.533,1.704 -0.066,3.257 1.517,4.654 3.583,3.161 7.636,4.806 12.368,4.977 3.478,0.126 6.735,0.958 9.747,2.835 2.965,1.849 6.38,2.383 9.786,2.879 2.006,0.291 2.817,0.703 4.316,1.986 -0.822,0.443 -1.485,0.964 -2.236,1.179 -5.654,1.619 -10.781,4.355 -15.75,7.407 -1.69,1.038 -3.413,2.132 -4.807,3.517 -2.007,1.991 -3.447,4.455 -3.719,7.346 -0.362,3.861 -2.746,5.678 -6.228,6.079 -3.47,0.398 -6.991,0.497 -10.489,0.491 -7.366,-0.013 -14.684,0.191 -21.641,3.018 -2.435,0.99 -4.218,2.706 -4.648,5.35 -0.252,1.549 -0.096,3.198 0.093,4.776 0.168,1.413 0.634,2.79 0.966,4.184 0.481,2.018 1.042,4.021 1.422,6.059 0.659,3.545 -0.423,5.614 -3.811,6.651 -2.955,0.905 -6.01,1.555 -9.064,2.052 -8.122,1.319 -16.192,3.024 -23.809,6.051 -5.364,2.132 -10.451,5.171 -13.276,10.778 -2.261,4.485 -1.916,8.782 0.71,12.898 1.15,1.803 2.642,3.396 4.048,5.023 2.399,2.775 4.889,5.47 7.262,8.268 0.765,0.902 1.281,2.014 1.906,3.034 1.662,2.717 0.55,4.804 -1.887,6.184 -2.149,1.217 -4.367,2.329 -6.624,3.331 -10.009,4.442 -19.597,9.668 -28.959,15.329 -5.898,3.566 -10.822,8.227 -14.739,13.835 -4.547,6.511 -5.246,13.56 -1.741,20.805 0.679,1.403 1.767,2.633 2.783,3.844 1.533,1.827 1.85,3.092 0.346,4.885 -1.467,1.747 -3.258,3.261 -5.064,4.676 -5.529,4.331 -11.213,8.467 -16.678,12.876 -2.974,2.399 -5.763,5.108 -7.428,8.657 -2.449,5.223 -3.322,10.642 -1.3,16.215 0.846,2.331 3.046,3.473 5.054,4.519 5.215,2.715 10.758,4.366 16.708,4.44 1.187,0.014 2.37,0.286 3.554,0.446 2.295,0.31 3.549,1.581 3.831,3.895 0.221,1.814 -0.275,3.51 -1.055,5.095 -2.269,4.607 -3.27,9.505 -3.179,14.585 0.035,1.867 0.523,3.814 1.213,5.564 1.478,3.751 3.608,7.089 6.957,9.543 2.975,2.179 6.361,3.32 9.898,3.968 3.714,0.681 7.464,0.532 11.123,-0.503 2.225,-0.628 4.336,-1.468 6.29,-2.821 5.799,-4.015 10.292,-9.287 14.455,-14.846 3.777,-5.042 7.333,-10.251 10.891,-15.451 0.781,-1.142 1.535,-1.578 2.922,-1.396 3.294,0.431 6.609,0.699 10.182,1.061"
             style="fill:#b9d8c2;fill-opacity:1;fill-rule:nonzero;stroke:none"
             id="path22" /></g><g
           id="g24"
           transform="translate(205.8791,358.0229)"><path
             d="m 0,0 c -0.473,1.496 0.32,2.51 1.264,3.38 2.169,1.999 4.313,4.039 6.617,5.873 5.298,4.215 10.645,8.372 16.056,12.439 2.289,1.72 4.77,3.189 7.2,4.713 2.495,1.566 5.05,3.036 7.55,4.594 2.141,1.334 3.849,3.134 5.034,5.348 1.127,2.104 2.28,4.231 3.069,6.472 1.921,5.459 4.701,10.452 7.725,15.346 2.892,4.68 5.69,9.418 8.546,14.121 0.413,0.679 0.892,1.323 1.385,1.947 0.946,1.196 2.113,1.861 3.729,1.703 1.187,-0.117 2.397,0.015 3.594,-0.035 1.953,-0.082 2.508,-1.119 1.493,-2.838 C 72.615,71.965 71.907,70.895 71.136,69.881 64.196,60.751 58.599,50.885 54.425,40.185 53.068,36.707 51.304,33.377 49.566,30.063 48.072,27.214 45.717,25.271 42.654,24.128 40.125,23.185 37.616,22.143 35.204,20.934 30.826,18.741 27.104,15.571 23.411,12.425 20.292,9.768 17.031,7.471 13.25,5.805 10.205,4.462 7.379,2.622 4.456,1.003 3.078,0.239 1.745,-0.729 0,0"
             style="fill:#b9d8c2;fill-opacity:1;fill-rule:nonzero;stroke:none"
             id="path26" /></g><g
           id="g28"
           transform="translate(243.323,375.0346)"><path
             d="m 0,0 c 1.895,-0.037 2.554,-0.634 2.113,-2.5 -0.621,-2.628 -1.404,-5.238 -2.372,-7.759 -2.488,-6.479 -4.574,-13.062 -5.791,-19.907 -0.124,-0.696 -0.307,-1.422 -0.646,-2.031 -0.493,-0.886 -2.001,-1.223 -3.218,-0.989 -1.234,0.238 -1.36,1.085 -1.463,2.111 -0.321,3.213 0.191,6.353 1.082,9.384 1.031,3.504 2.418,6.904 3.645,10.351 1.041,2.925 2.028,5.869 3.126,8.773 C -2.725,-0.452 -1.95,0.039 0,0"
             style="fill:#b9d8c2;fill-opacity:1;fill-rule:nonzero;stroke:none"
             id="path30" /></g><g
           id="g32"
           transform="translate(246.7155,489.1293)"
           style="fill:#b9d8c2"><path
             d="m 0,0 c -0.875,0.22 -1.58,0.345 -2.248,0.576 -1.362,0.471 -2.336,1.522 -2.187,2.502 0.178,1.17 0.874,2.004 2.036,2.431 1.748,0.644 3.458,0.627 5.067,-0.33 C 4.611,4.024 4.584,1.909 2.585,0.831 1.771,0.392 0.8,0.247 0,0"
             style="fill:#b9d8c2;fill-opacity:1;fill-rule:nonzero;stroke:none"
             id="path34" /></g><g
           id="g36"
           transform="translate(274.7146,462.7636)"
           style="fill:#b9d8c2"><path
             d="M 0,0 C -0.681,0.173 -1.406,0.25 -2.032,0.539 -3.121,1.042 -3.786,1.924 -3.75,3.184 -3.713,4.44 -2.986,5.276 -1.912,5.779 -0.789,6.304 0.383,6.365 1.573,5.891 2.997,5.324 3.905,4.078 3.755,2.801 3.617,1.623 2.297,0.342 0.989,0.146 0.676,0.099 0.351,0.139 0.031,0.139 0.021,0.092 0.01,0.046 0,0"
             style="fill:#b9d8c2;fill-opacity:1;fill-rule:nonzero;stroke:none"
             id="path38" /></g><g
           id="g40"
           transform="translate(245.635,458.7182)"
           style="fill:#b9d8c2"><path
             d="m 0,0 c -0.533,0.237 -1.452,0.526 -2.24,1.023 -1.164,0.735 -1.599,2 -1.238,3.073 C -3.167,5.021 -2.101,5.63 -0.7,5.411 0.21,5.269 1.137,4.902 1.93,4.426 2.971,3.801 3.442,2.422 3.13,1.548 2.83,0.709 1.497,-0.049 0,0"
             style="fill:#b9d8c2;fill-opacity:1;fill-rule:nonzero;stroke:none"
             id="path42" /></g><g
           id="g44"
           transform="translate(261.4651,477.6987)"
           style="fill:#b9d8c2"><path
             d="m 0,0 c -0.063,-1.617 -1.349,-2.763 -3.01,-2.682 -1.636,0.08 -2.891,1.411 -2.777,2.945 0.123,1.638 1.365,2.726 3.05,2.672 C -1.079,2.881 0.065,1.655 0,0"
             style="fill:#b9d8c2;fill-opacity:1;fill-rule:nonzero;stroke:none"
             id="path46" /></g><g
           id="g48"
           transform="translate(242.2634,479.5224)"
           style="fill:#b9d8c2"><path
             d="M 0,0 C 1.455,0.056 2.209,-0.685 2.273,-2.087 2.36,-4.017 0.245,-5.224 -1.165,-5.367 -2.381,-5.491 -3.416,-4.569 -3.49,-3.5 -3.606,-1.827 -1.856,-0.071 0,0"
             style="fill:#b9d8c2;fill-opacity:1;fill-rule:nonzero;stroke:none"
             id="path50" /></g><g
           id="g52"
           transform="translate(325.3689,517.1718)"><path
             d="m 0,0 c -0.51,0.113 -0.82,0.171 -1.125,0.25 -1.94,0.503 -3.346,1.925 -3.279,3.311 0.078,1.638 1.785,2.959 3.962,3.105 C 0.797,6.75 1.938,6.507 2.928,5.746 4.712,4.373 4.656,2.125 2.731,1.001 1.863,0.494 0.818,0.29 0,0"
             style="fill:#b9d8c2;fill-opacity:1;fill-rule:nonzero;stroke:none"
             id="path54" /></g></g></g></g></svg>
