<?xml version="1.0" encoding="UTF-8" standalone="no"?>
<svg
   xmlns:dc="http://purl.org/dc/elements/1.1/"
   xmlns:cc="http://creativecommons.org/ns#"
   xmlns:rdf="http://www.w3.org/1999/02/22-rdf-syntax-ns#"
   xmlns:svg="http://www.w3.org/2000/svg"
   xmlns="http://www.w3.org/2000/svg"
   xmlns:sodipodi="http://sodipodi.sourceforge.net/DTD/sodipodi-0.dtd"
   xmlns:inkscape="http://www.inkscape.org/namespaces/inkscape"
   version="1.1"
   id="svg2"
   xml:space="preserve"
   width="483.46667"
   height="260.65332"
   viewBox="0 0 483.46667 260.65332"
   sodipodi:docname="Unisport.svg"
   inkscape:version="1.0.2-2 (e86c870879, 2021-01-15)"><metadata
     id="metadata8"><rdf:RDF><cc:Work
         rdf:about=""><dc:format>image/svg+xml</dc:format><dc:type
           rdf:resource="http://purl.org/dc/dcmitype/StillImage" /><dc:title></dc:title></cc:Work></rdf:RDF></metadata><defs
     id="defs6" /><sodipodi:namedview
     pagecolor="#ffffff"
     bordercolor="#666666"
     borderopacity="1"
     objecttolerance="10"
     gridtolerance="10"
     guidetolerance="10"
     inkscape:pageopacity="0"
     inkscape:pageshadow="2"
     inkscape:window-width="2560"
     inkscape:window-height="1377"
     id="namedview4"
     showgrid="false"
     inkscape:zoom="2.262824"
     inkscape:cx="241.73334"
     inkscape:cy="130.32666"
     inkscape:window-x="1072"
     inkscape:window-y="43"
     inkscape:window-maximized="1"
     inkscape:current-layer="g10" /><g
     id="g10"
     inkscape:groupmode="layer"
     inkscape:label="ink_ext_XXXXXX"
     transform="matrix(1.3333333,0,0,-1.3333333,0,260.65333)"><g
       id="g12"
       transform="scale(0.1)"><path
         d="m 2556.74,1411.15 c 0,155.99 70.76,295.45 181.93,388.03 138.1,136.22 322.84,155.74 445.62,155.74 278.77,0 441.68,-221.45 441.68,-500.21 0,-278.77 -192.19,-494.976 -470.95,-494.976 -278.76,0 -598.28,172.656 -598.28,451.416"
         style="fill:#f5a80e;fill-opacity:1;fill-rule:evenodd;stroke:none"
         id="path14" /><path
         d="m 3476.31,1610.86 c -41.98,7.41 -81.96,-19.85 -90.83,-61.17 l -182.37,13.54 16.74,167.81 c 34.5,3.28 63.96,29.07 70.25,64.84 7.02,39.8 -17.12,77.84 -54.87,89.26 l 0.22,2.17 c -0.25,-0.67 -0.49,-1.31 -0.73,-1.99 -2.84,0.84 -5.73,1.56 -8.7,2.08 -42.95,7.59 -83.93,-21.09 -91.5,-64.05 -6.39,-36.37 13.23,-71.24 45.46,-85.71 -21.24,-56.57 -41.22,-108.94 -59.87,-156.76 l -195.63,72.76 c 0.43,1.74 0.89,3.45 1.2,5.24 7.57,42.96 -21.12,83.94 -64.08,91.52 -42.96,7.58 -83.92,-21.09 -91.48,-64.05 -7.57,-42.96 21.11,-83.94 64.08,-91.52 32.05,-5.66 62.98,8.88 79.75,34.47 l 163.72,-121.92 -225.42,-237.11 c -11.32,12.27 -26.54,21.12 -44.24,24.25 -42.96,7.59 -83.92,-21.09 -91.49,-64.06 -7.57,-42.96 21.14,-83.93 64.09,-91.52 42.96,-7.58 83.92,21.1 91.49,64.06 3.23,18.35 -0.2,36.31 -8.48,51.49 l 270.83,189.83 142.4,-238.27 c -18.91,-11.36 -33.01,-30.48 -37.14,-53.93 -7.55,-42.96 21.13,-83.93 64.09,-91.51 42.97,-7.59 83.93,21.09 91.49,64.05 7.56,42.95 -21.12,83.93 -64.09,91.52 -10.1,1.78 -20.07,1.5 -29.54,-0.45 l -89.68,263.11 174.66,32.92 c 7.97,-28.29 31.39,-51.03 62.27,-56.48 42.95,-7.59 83.92,21.1 91.48,64.06 7.57,42.95 -21.12,83.93 -64.08,91.52"
         style="fill:#ffffff;fill-opacity:1;fill-rule:nonzero;stroke:none"
         id="path16" /><path
         d="M 5,362.191 C 5,257.309 85.2656,197.129 189.219,197.129 c 103.972,0 184.238,60.18 184.238,165.062 v 289.098 c 0,27.371 -11.855,41.981 -32.832,41.981 -20.977,0 -32.844,-14.61 -32.844,-41.981 V 378.621 c 0,-83.012 -44.676,-126.781 -118.562,-126.781 -73.867,0 -118.5549,43.769 -118.5549,126.781 v 272.668 c 0,27.371 -11.8555,41.981 -32.8321,41.981 C 16.8633,693.27 5,678.66 5,651.289 Z m 1098.05,289.098 c 0,27.371 -11.86,41.981 -32.84,41.981 -20.97,0 -32.83,-14.61 -32.83,-41.981 V 239.09 c 0,-27.371 11.86,-41.961 32.83,-41.961 20.98,0 32.84,14.59 32.84,41.961 z m 279.98,41.981 c -73.87,0 -152.33,-48.34 -152.33,-127.7 0,-60.199 35.59,-89.379 84.83,-109.429 l 113.08,-46.532 c 35.59,-14.589 67.5,-31.91 67.5,-74.781 0,-45.59 -41.95,-82.988 -104.88,-82.988 -85.72,0 -115.82,69.32 -146.84,69.32 -16.4,0 -30.99,-21.898 -30.99,-31.922 0,-31.008 69.3,-92.109 175.1,-92.109 102.13,0 178.75,54.711 178.75,140.453 0,76.598 -55.63,108.52 -121.29,134.957 l -99.42,40.141 c -32.83,12.769 -44.68,35.57 -44.68,57.461 0,46.5 49.23,68.398 94.84,68.398 65.66,0 99.41,-51.988 124.94,-51.988 27.36,0 32.83,17.32 32.83,31.91 1.84,34.668 -76.6,74.809 -171.44,74.809 M 2264,445.18 c 0,88.48 35.57,193.359 137.72,193.359 102.13,0 137.69,-104.879 137.69,-193.359 0,-88.461 -35.56,-193.34 -137.69,-193.34 -102.15,0 -137.72,104.879 -137.72,193.34 m 346.57,0 c 0,122.211 -65.69,248.09 -208.85,248.09 -142.29,0 -208.85,-125.879 -208.85,-248.09 0,-136.801 69.3,-248.051 208.85,-248.051 139.53,0 208.85,111.25 208.85,248.051"
         style="fill:#17559e;fill-opacity:1;fill-rule:nonzero;stroke:none"
         id="path18" /><path
         d="M 5,362.191 C 5,257.309 85.2656,197.129 189.219,197.129 c 103.972,0 184.238,60.18 184.238,165.062 v 289.098 c 0,27.371 -11.855,41.981 -32.832,41.981 -20.977,0 -32.844,-14.61 -32.844,-41.981 V 378.621 c 0,-83.012 -44.676,-126.781 -118.562,-126.781 -73.867,0 -118.5549,43.769 -118.5549,126.781 v 272.668 c 0,27.371 -11.8555,41.981 -32.8321,41.981 C 16.8633,693.27 5,678.66 5,651.289 Z m 1098.05,289.098 c 0,27.371 -11.86,41.981 -32.84,41.981 -20.97,0 -32.83,-14.61 -32.83,-41.981 V 239.09 c 0,-27.371 11.86,-41.961 32.83,-41.961 20.98,0 32.84,14.59 32.84,41.961 z m 279.98,41.981 c -73.87,0 -152.33,-48.34 -152.33,-127.7 0,-60.199 35.59,-89.379 84.83,-109.429 l 113.08,-46.532 c 35.59,-14.589 67.5,-31.91 67.5,-74.781 0,-45.59 -41.95,-82.988 -104.88,-82.988 -85.72,0 -115.82,69.32 -146.84,69.32 -16.4,0 -30.99,-21.898 -30.99,-31.922 0,-31.008 69.3,-92.109 175.1,-92.109 102.13,0 178.75,54.711 178.75,140.453 0,76.598 -55.63,108.52 -121.29,134.957 l -99.42,40.141 c -32.83,12.769 -44.68,35.57 -44.68,57.461 0,46.5 49.23,68.398 94.84,68.398 65.66,0 99.41,-51.988 124.94,-51.988 27.36,0 32.83,17.32 32.83,31.91 1.84,34.668 -76.6,74.809 -171.44,74.809 M 2264,445.18 c 0,88.48 35.57,193.359 137.72,193.359 102.13,0 137.69,-104.879 137.69,-193.359 0,-88.461 -35.56,-193.34 -137.69,-193.34 -102.15,0 -137.72,104.879 -137.72,193.34 m 346.57,0 c 0,122.211 -65.69,248.09 -208.85,248.09 -142.29,0 -208.85,-125.879 -208.85,-248.09 0,-136.801 69.3,-248.051 208.85,-248.051 139.53,0 208.85,111.25 208.85,248.051"
         style="fill:none;stroke:#17559e;stroke-width:10;stroke-linecap:butt;stroke-linejoin:miter;stroke-miterlimit:4;stroke-dasharray:none;stroke-opacity:1"
         id="path20" /><path
         d="m 2766.7,228.172 c 0,0 0.18,255.539 0,277.609 -0.1,11.879 -6.49,144.59 152.68,155"
         style="fill:none;stroke:#17559e;stroke-width:70;stroke-linecap:round;stroke-linejoin:miter;stroke-miterlimit:4;stroke-dasharray:none;stroke-opacity:1"
         id="path22" /><path
         d="m 3097.32,805.789 c 0,0 0.18,-401.16 0,-423.25 -0.09,-11.867 -6.48,-144.57 152.68,-155"
         style="fill:none;stroke:#17559e;stroke-width:65.2;stroke-linecap:round;stroke-linejoin:miter;stroke-miterlimit:4;stroke-dasharray:none;stroke-opacity:1"
         id="path24" /><path
         d="m 3021.25,660.781 h 235.63"
         style="fill:none;stroke:#17559e;stroke-width:65.1969;stroke-linecap:round;stroke-linejoin:miter;stroke-miterlimit:4;stroke-dasharray:none;stroke-opacity:1"
         id="path26" /><path
         d="m 1889.22,250.59 c -102.15,0 -137.72,104.879 -137.72,193.34 0,88.48 35.57,193.359 137.72,193.359 102.13,0 137.69,-104.879 137.69,-193.359 0,-88.461 -35.56,-193.34 -137.69,-193.34 z m 0,441.43 c -142.29,0 -208.85,-125.879 -208.85,-248.09 0,-54.789 -0.37,-361.8987 -0.37,-405.9612 0,-45.93755 65.94,-41.25005 65.94,-2.1875 0,29.6875 -0.39,217.5977 -0.14,217.3277 34.83,-35.179 82.05,-57.23 143.42,-57.23 139.53,0 208.85,111.25 208.85,248.051 0,122.211 -65.69,248.09 -208.85,248.09"
         style="fill:#17559e;fill-opacity:1;fill-rule:nonzero;stroke:none"
         id="path28" /><path
         d="m 1889.22,250.59 c -102.15,0 -137.72,104.879 -137.72,193.34 0,88.48 35.57,193.359 137.72,193.359 102.13,0 137.69,-104.879 137.69,-193.359 0,-88.461 -35.56,-193.34 -137.69,-193.34 z m 0,441.43 c -142.29,0 -208.85,-125.879 -208.85,-248.09 0,-54.789 -0.37,-361.8987 -0.37,-405.9612 0,-45.93755 65.94,-41.25005 65.94,-2.1875 0,29.6875 -0.39,217.5977 -0.14,217.3277 34.83,-35.179 82.05,-57.23 143.42,-57.23 139.53,0 208.85,111.25 208.85,248.051 0,122.211 -65.69,248.09 -208.85,248.09 z"
         style="fill:none;stroke:#17559e;stroke-width:10;stroke-linecap:butt;stroke-linejoin:miter;stroke-miterlimit:4;stroke-dasharray:none;stroke-opacity:1"
         id="path30" /><path
         d="m 889.707,528.191 c 0,104.879 -80.254,165.079 -184.219,165.079 -103.965,0 -184.226,-60.2 -184.226,-165.079 V 239.09 c 0,-27.371 11.863,-41.961 32.82,-41.961 20.996,0 32.852,14.59 32.852,41.961 v 272.691 c 0,82.989 44.668,126.758 118.554,126.758 73.867,0 118.555,-43.769 118.555,-126.758 V 239.09 c 0,-27.371 11.855,-41.961 32.832,-41.961 20.977,0 32.832,14.59 32.832,41.961 v 289.101"
         style="fill:#17559e;fill-opacity:1;fill-rule:nonzero;stroke:none"
         id="path32" /><path
         d="m 889.707,528.191 c 0,104.879 -80.254,165.079 -184.219,165.079 -103.965,0 -184.226,-60.2 -184.226,-165.079 V 239.09 c 0,-27.371 11.863,-41.961 32.82,-41.961 20.996,0 32.852,14.59 32.852,41.961 v 272.691 c 0,82.989 44.668,126.758 118.554,126.758 73.867,0 118.555,-43.769 118.555,-126.758 V 239.09 c 0,-27.371 11.855,-41.961 32.832,-41.961 20.977,0 32.832,14.59 32.832,41.961 z"
         style="fill:none;stroke:#17559e;stroke-width:10;stroke-linecap:butt;stroke-linejoin:miter;stroke-miterlimit:4;stroke-dasharray:none;stroke-opacity:1"
         id="path34" /></g></g></svg>
