<?xml version="1.0" encoding="UTF-8" standalone="no"?>
<svg
   xmlns:dc="http://purl.org/dc/elements/1.1/"
   xmlns:cc="http://creativecommons.org/ns#"
   xmlns:rdf="http://www.w3.org/1999/02/22-rdf-syntax-ns#"
   xmlns:svg="http://www.w3.org/2000/svg"
   xmlns="http://www.w3.org/2000/svg"
   xmlns:sodipodi="http://sodipodi.sourceforge.net/DTD/sodipodi-0.dtd"
   xmlns:inkscape="http://www.inkscape.org/namespaces/inkscape"
   version="1.1"
   id="svg2"
   xml:space="preserve"
   width="1587.4"
   height="1641.3066"
   viewBox="0 0 1587.4 1641.3066"
   sodipodi:docname="Teekkarius-152.svg"
   inkscape:version="1.0.2-2 (e86c870879, 2021-01-15)"><metadata
     id="metadata8"><rdf:RDF><cc:Work
         rdf:about=""><dc:format>image/svg+xml</dc:format><dc:type
           rdf:resource="http://purl.org/dc/dcmitype/StillImage" /><dc:title></dc:title></cc:Work></rdf:RDF></metadata><defs
     id="defs6"><clipPath
       clipPathUnits="userSpaceOnUse"
       id="clipPath18"><path
         d="M 0,1230.982 H 1190.551 V 0 H 0 Z"
         id="path16" /></clipPath></defs><sodipodi:namedview
     pagecolor="#002626"
     bordercolor="#666666"
     borderopacity="1"
     objecttolerance="10"
     gridtolerance="10"
     guidetolerance="10"
     inkscape:pageopacity="0"
     inkscape:pageshadow="2"
     inkscape:window-width="2560"
     inkscape:window-height="1377"
     id="namedview4"
     showgrid="false"
     inkscape:zoom="0.61414484"
     inkscape:cx="799.12375"
     inkscape:cy="830.37581"
     inkscape:window-x="1072"
     inkscape:window-y="43"
     inkscape:window-maximized="1"
     inkscape:current-layer="g64" /><g
     id="g10"
     inkscape:groupmode="layer"
     inkscape:label="TPV_logot_VALMIIT"
     transform="matrix(1.3333333,0,0,-1.3333333,0,1641.3067)"><g
       id="g12"><g
         id="g14"
         clip-path="url(#clipPath18)"><g
           id="g20"
           transform="translate(888.3753,583.5507)"><path
             d="m 0,0 c -8.07,14.211 -33.656,37.699 -33.656,37.699 l -0.005,-0.003 c -1.354,-8.395 -5.062,-16.288 -10.78,-22.713 l -67.897,-76.291 c -8.524,-9.578 -20.735,-15.057 -33.557,-15.057 h -227.491 c -6.798,0 -13.507,1.543 -19.622,4.512 l -180.693,87.744 c -6.38,3.098 -11.88,7.644 -16.116,13.209 0,0 -8.675,-32.094 1.801,-40.345 12.28,-9.672 152.564,-79.484 187.252,-94.367 42.212,-18.111 146.971,-41.769 190.866,-47.646 61.625,-8.251 137.51,2.513 155.42,7.87 25.963,7.765 66.277,41.738 72.82,68.552 C 24.885,-50.023 8.07,-14.211 0,0"
             style="fill:#000000;fill-opacity:1;fill-rule:nonzero;stroke:none"
             id="path22" /></g><g
           id="g24"
           transform="translate(302.3594,777.3726)"><path
             d="m 0,0 c 0,0 65.749,82.82 105.678,116.892 21.51,18.355 47.661,18.146 85.314,14.885 l 253.891,-28.246 c 15.791,-2.853 29.794,-11.88 38.912,-25.085 l 58.462,-84.669 c 14.939,-21.636 14.142,-50.456 -1.969,-71.233 l -77.075,-99.4 c -11.425,-14.735 -29.022,-23.357 -47.666,-23.357 H 210.22 c -9.636,0 -19.132,2.309 -27.692,6.733 l -171.315,88.534 c -20.039,10.356 -32.625,31.028 -32.625,53.585 v 5.267 C -21.412,-28.325 -11.088,-13.951 0,0"
             style="fill:#ffffff;fill-opacity:1;fill-rule:nonzero;stroke:none"
             id="path26" /></g><g
           id="g28"
           transform="translate(302.3594,777.3726)"><path
             d="m 0,0 c 0,0 65.749,82.82 105.678,116.892 21.51,18.355 47.661,18.146 85.314,14.885 l 253.891,-28.246 c 15.791,-2.853 29.794,-11.88 38.912,-25.085 l 58.462,-84.669 c 14.939,-21.636 14.142,-50.456 -1.969,-71.233 l -77.075,-99.4 c -11.425,-14.735 -29.022,-23.357 -47.666,-23.357 H 210.22 c -9.636,0 -19.132,2.309 -27.692,6.733 l -171.315,88.534 c -20.039,10.356 -32.625,31.028 -32.625,53.585 v 5.267 C -21.412,-28.325 -11.088,-13.951 0,0 Z"
             style="fill:none;stroke:#231f20;stroke-width:3;stroke-linecap:butt;stroke-linejoin:miter;stroke-miterlimit:10;stroke-dasharray:none;stroke-opacity:1"
             id="path30" /></g><g
           id="g32"
           transform="translate(919.6438,340.3914)"><path
             d="m 0,0 c -4.506,4.678 -10.52,7.534 -15.967,11.071 -25.826,16.768 -39.042,48.923 -65.823,64.119 -16.33,9.266 -35.97,11.06 -54.662,9.29 -18.693,-1.77 -36.886,-6.853 -55.295,-10.548 -18.738,-3.762 -37.73,-6.09 -56.7,-8.415 -14.534,-1.781 -29.068,-3.562 -43.602,-5.343 -6.012,-0.737 -12.075,-1.475 -18.11,-0.962 -5.956,0.506 -11.731,2.218 -17.547,3.599 -11.85,2.815 -31.252,8.647 -46.09,7.566 -2.433,3.601 -5.77,6.495 -9.882,8.021 -3.686,1.368 -7.68,1.613 -11.608,1.786 -18.707,0.821 -38.882,-0.148 -53.81,-11.453 -4.025,-3.049 -7.723,-7.166 -8.26,-12.187 -0.354,-3.302 0.704,-6.573 1.748,-9.725 0.721,-2.178 1.443,-4.357 2.164,-6.535 0.331,-1.281 0.748,-2.536 1.245,-3.761 0.22,-0.663 0.439,-1.326 0.659,-1.989 l -0.233,0.986 c 4.372,-9.779 13.805,-17.461 24.379,-20.028 7.607,-1.846 15.543,-1.328 23.054,0.909 -0.832,2.857 -1.45,5.785 -1.807,8.788 -0.976,8.194 0.675,17.138 4.536,24.872 -3.641,-7.588 -5.18,-16.272 -4.23,-24.246 2.45,-20.588 16.829,-37.762 32.491,-51.347 11.352,-9.845 24.222,-18.755 38.985,-21.554 13.18,-2.499 26.714,0.066 40,1.922 41.441,5.792 83.846,4.622 124.906,-3.445 16.699,-3.281 33.596,-7.886 47.414,-17.822 10.021,-7.205 18.096,-17.088 23.161,-28.343 2.264,-5.032 3.989,-10.418 7.432,-14.73 3.442,-4.312 9.257,-7.365 14.486,-5.604 8.542,2.877 8.851,14.694 7.516,23.608 6.598,-0.789 11.908,-5.531 17.643,-8.889 5.734,-3.358 13.728,-5.14 18.533,-0.551 6.132,5.858 1.932,15.986 2.324,24.457 0.96,20.73 29.314,29.087 36.681,48.487 C 9.299,-18.599 6.974,-7.239 0,0"
             style="fill:#000000;fill-opacity:1;fill-rule:nonzero;stroke:none"
             id="path34" /></g><g
           id="g36"
           transform="translate(831.1138,735.8657)"><path
             d="m 0,0 c -0.958,2.249 -3.432,3.376 -5.695,4.302 -4.795,1.963 -9.719,3.955 -14.898,4.116 -2.865,0.088 -5.881,-0.364 -8.487,0.829 -1.751,0.802 -3.072,2.238 -4.422,3.642 2.826,5.856 2.458,13.433 -0.864,19.202 -4.566,7.931 -13.421,12.639 -22.414,14.336 -8.993,1.697 -18.249,0.782 -27.354,-0.138 -9.195,-0.929 -18.672,-2.643 -27.923,-2.496 -5.271,0.084 -10.399,1.776 -15.645,1.751 -11.55,-0.056 -32.097,-10.042 -34.408,-22.568 -0.642,-3.483 0.38,-7.081 1.937,-10.262 4.409,-9.009 13.035,-15.484 22.477,-18.866 9.443,-3.383 19.68,-3.936 29.696,-3.401 18.987,1.014 37.541,5.787 55.817,11.1 2.271,-0.104 5.137,0.661 6.843,0.594 4.827,-0.191 9.618,-1.993 13.288,-5.151 1.98,-1.703 3.661,-3.774 5.861,-5.18 4.548,-2.908 10.405,-2.472 15.743,-1.671 2.752,0.413 5.602,0.94 7.85,2.581 C -0.351,-5.64 1.091,-2.56 0,0"
             style="fill:#a58041;fill-opacity:1;fill-rule:nonzero;stroke:none"
             id="path38" /></g><g
           id="g40"
           transform="translate(733.0042,839.4313)"><path
             d="m 0,0 c 3.679,-2.324 7.564,-5.572 7.58,-9.924 0.014,-3.757 -2.93,-6.852 -6,-9.02 -10.387,-7.334 -23.727,-8.818 -36.435,-9.242 -11.829,-0.394 -23.681,-0.07 -35.47,0.969 -5.599,0.493 -11.32,1.186 -16.34,3.713 -22.71,11.432 -1.063,34.12 15.383,36.261 C -46.32,16.008 -21.741,13.733 0,0"
             style="fill:#179965;fill-opacity:1;fill-rule:nonzero;stroke:none"
             id="path42" /></g><g
           id="g44"
           transform="translate(484.3611,855.7036)"><path
             d="M 0,0 C 2.384,-0.949 5.043,-2.652 4.977,-5.217 4.944,-6.512 4.184,-7.673 3.34,-8.655 c -5.395,-6.282 -14.419,-7.826 -22.689,-8.237 -11.728,-0.583 -23.529,0.304 -35.04,2.628 -7.723,1.559 -16.394,3.525 -7.853,11.345 7.513,6.878 18.442,6.431 27.93,6.728 C -22.807,4.17 -10.877,4.328 0,0"
             style="fill:#8e4e78;fill-opacity:1;fill-rule:nonzero;stroke:none"
             id="path46" /></g><g
           id="g48"
           transform="translate(591.7391,877.678)"><path
             d="m 0,0 c 5.109,-2.508 10.155,-6.546 9.945,-11.595 -0.2,-4.816 -5.208,-8.529 -10.425,-10.308 -7.635,-2.603 -16.121,-2.386 -24.331,-2.131 -10.271,0.319 -20.811,0.687 -30.269,4.139 -4.168,1.52 -8.464,4.159 -8.939,8.025 -1.306,10.633 13.223,17.86 23.683,17.393 C -25.943,4.879 -13.213,6.486 0,0"
             style="fill:#0a4c7b;fill-opacity:1;fill-rule:nonzero;stroke:none"
             id="path50" /></g><g
           id="g52"
           transform="translate(599.1616,799.0336)"><path
             d="m 0,0 c -1.602,4.82 -5.997,8.326 -10.799,9.984 -4.801,1.657 -10,1.709 -15.072,1.439 -7.683,-0.41 -15.434,-1.548 -22.484,-4.629 -3.01,-1.314 -5.953,-3.05 -7.892,-5.7 -3.425,-4.683 -3.006,-11.046 -2.438,-16.819 0.17,-1.728 0.371,-3.541 1.37,-4.961 0.914,-1.297 2.377,-2.089 3.841,-2.701 5.342,-2.231 11.256,-2.624 17.045,-2.715 5.948,-0.093 12.289,0.292 17.903,2.106 5.957,-0.276 12.639,0.706 16.266,5.423 2.389,3.108 2.946,7.232 3.059,11.151 C 0.871,-4.922 0.789,-2.374 0,0"
             style="fill:#000000;fill-opacity:1;fill-rule:nonzero;stroke:none"
             id="path54" /></g><g
           id="g56"
           transform="translate(854.6212,745.8287)"><path
             d="m 0,0 c 2.386,-15.934 -1.634,-32.578 -11.973,-45.912 l -77.075,-99.4 c -11.425,-14.735 -29.022,-23.357 -47.667,-23.357 h -205.327 c -9.636,0 -19.131,2.309 -27.692,6.733 l -171.315,88.534 c -17.349,8.966 -29.104,25.665 -31.95,44.625 -0.444,-2.539 -0.675,-5.125 -0.675,-7.732 v -50.243 c 0,-6.208 1.287,-12.349 3.779,-18.035 l 8.428,-19.226 c 4.287,-9.778 11.916,-17.71 21.52,-22.374 l 180.693,-87.744 c 6.115,-2.97 12.824,-4.512 19.622,-4.512 h 227.491 c 12.822,0 25.033,5.479 33.557,15.057 l 67.897,76.291 c 7.32,8.226 11.364,18.853 11.364,29.865 V -5.922 C 0.677,-3.301 0.444,-1.406 0,0"
             style="fill:#ffffff;fill-opacity:1;fill-rule:nonzero;stroke:none"
             id="path58" /></g><g
           id="g60"
           transform="translate(854.6212,745.8287)"><path
             d="m 0,0 c 2.386,-15.934 -1.634,-32.578 -11.973,-45.912 l -77.075,-99.4 c -11.425,-14.735 -29.022,-23.357 -47.667,-23.357 h -205.327 c -9.636,0 -19.131,2.309 -27.692,6.733 l -171.315,88.534 c -17.349,8.966 -29.104,25.665 -31.95,44.625 -0.444,-2.539 -0.675,-5.125 -0.675,-7.732 v -50.243 c 0,-6.208 1.287,-12.349 3.779,-18.035 l 8.428,-19.226 c 4.287,-9.778 11.916,-17.71 21.52,-22.374 l 180.693,-87.744 c 6.115,-2.97 12.824,-4.512 19.622,-4.512 h 227.491 c 12.822,0 25.033,5.479 33.557,15.057 l 67.897,76.291 c 7.32,8.226 11.364,18.853 11.364,29.865 V -5.922 C 0.677,-3.301 0.444,-1.406 0,0 Z"
             style="fill:none;stroke:#231f20;stroke-width:3;stroke-linecap:butt;stroke-linejoin:miter;stroke-miterlimit:10;stroke-dasharray:none;stroke-opacity:1"
             id="path62" /></g><g
           id="g64"
           transform="translate(676.8704,162.9181)"><path
             d="m 0,0 c -2.427,5.36 -8.159,9.711 -13.927,8.553 -4.955,-0.995 -8.575,-7.351 -5.626,-11.456 -9.437,-5.008 -14.355,-15.889 -23.208,-21.868 -17.497,-11.818 -42.063,-0.392 -61.977,-7.41 -6.128,-2.16 -13.891,-5.684 -18.208,-0.827 -3.245,3.649 -1.474,9.698 2.041,13.087 3.516,3.388 8.285,5.096 12.383,7.752 5.916,3.835 10.306,9.555 15.364,14.466 10.304,10.004 23.332,16.608 35.616,24.049 12.284,7.441 24.407,16.31 31.141,28.995 6.734,12.685 6.54,30.04 -3.904,39.898 -7.602,7.176 -18.812,9.025 -29.264,8.813 -10.452,-0.213 -20.906,-2.136 -31.306,-1.082 -6.929,0.702 -13.645,2.701 -20.458,4.156 0.464,0.984 1.251,1.854 2.179,2.429 1.799,1.114 3.98,1.379 6.084,1.618 3.675,0.417 7.351,0.834 11.027,1.251 5.487,0.623 11.084,1.275 16.094,3.599 5.01,2.324 9.421,6.652 10.368,12.092 0.098,0.561 0.15,1.118 0.171,1.672 -8.868,-1.111 -17.755,-1.681 -26.487,-0.026 -12.116,2.298 -22.955,8.712 -32.727,16.38 -1.761,0.425 -3.48,1.01 -5.133,1.818 -4.543,2.221 -8.4,5.966 -13.325,7.117 -4.221,0.987 -8.62,-0.082 -12.822,-1.146 -0.203,-0.052 -0.408,-0.109 -0.612,-0.173 -1.206,2.905 -3.254,5.397 -6.065,6.787 -3.029,1.497 -6.523,1.602 -9.876,2.019 -9.147,1.138 -22.474,4.889 -29.663,10.982 -3.2,2.713 -4.431,6.347 -8.18,8.566 -3.891,2.304 -8.93,1.45 -12.63,4.356 -2.96,2.327 -4.133,6.304 -6.828,8.932 -1.753,1.709 -4.14,2.676 -6.578,2.847 0.253,0.56 0.238,1.203 0.152,1.811 -0.862,6.084 -7.953,9.368 -14.095,9.165 -6.141,-0.204 -11.997,-2.715 -18.119,-3.243 -0.49,-0.042 -1.018,-0.063 -1.437,0.197 -0.55,0.341 -0.733,1.062 -0.727,1.709 0.034,3.635 4.004,5.675 6.803,7.995 1.14,0.946 2.228,2.466 1.576,3.797 -0.449,0.917 -1.536,1.297 -2.523,1.563 -5.792,1.558 -11.732,2.048 -17.709,1.732 -0.246,-0.013 -1.153,0.007 -2.339,-0.009 0.094,2.54 -2.273,5.253 -4.727,6.666 -3.112,1.792 -6.997,3.418 -7.805,6.917 5.135,1.766 10.706,1.523 16.136,1.565 18.953,0.144 37.869,4.046 55.332,11.414 3.229,1.362 6.783,3.278 7.574,6.692 0.992,4.285 -2.883,8.009 -6.359,10.703 -4.442,3.442 -15.646,5.671 -13.326,10.326 1.77,2.57 5.866,1.012 6.152,3.877 0.016,0.994 -0.459,1.772 -1.194,2.363 0.695,0.1 1.387,0.209 2.068,0.324 l 17.998,3.039 c 1.308,0.221 2.651,0.454 3.786,1.142 1.655,1.003 2.636,2.845 3.141,4.713 1.774,6.566 -2.164,14.164 -8.553,16.499 -3.868,1.413 -8.704,1.309 -11.233,4.559 -1.602,2.058 -1.728,4.865 -1.787,7.473 -0.888,39.247 -1.776,78.494 -2.663,117.742 -0.153,6.733 -0.118,14.065 4.031,19.371 7.031,8.993 21.012,7.026 31.586,11.325 0.766,0.312 1.524,0.677 2.216,1.128 9.417,-6.143 20.265,-9.861 31.753,-9.319 17.155,0.81 32.475,10.578 49.037,15.125 7.375,2.025 15.076,3.034 22.094,6.073 7.019,3.04 13.519,8.703 14.892,16.227 1.552,8.506 -4.103,17.135 -11.706,21.254 -7.603,4.12 -16.682,4.513 -25.288,3.672 -8.606,-0.841 -17.101,-2.816 -25.743,-3.081 -10.271,-0.316 -20.457,1.792 -30.422,4.297 -10.802,2.717 -22.103,5.927 -32.888,3.143 -21.27,-5.49 -20.73,-26.976 -9.591,-40.967 1.188,-1.491 2.436,-2.948 3.737,-4.364 -6.61,-2.223 -13.66,-6.987 -20.023,-9.373 -4.327,-1.622 -8.941,-3.465 -11.488,-7.322 -2.369,-3.588 -2.444,-8.168 -2.44,-12.468 0.04,-38.892 0.08,-77.785 0.12,-116.677 0.002,-1.643 -0.014,-3.361 -0.781,-4.814 -0.944,-1.789 -2.857,-2.846 -4.76,-3.533 -4.698,-1.697 -9.834,-1.736 -14.646,-3.076 -4.812,-1.341 -9.693,-4.634 -10.43,-9.575 -1.003,-6.718 6.132,-11.981 12.819,-13.177 6.687,-1.196 13.782,-0.109 20.167,-2.426 0.115,-3.422 -5.079,-3.817 -7.483,-6.255 -2.573,-2.61 -1.059,-7.246 1.973,-9.36 -3.518,-0.35 -6.993,-1.142 -10.307,-2.374 -1.109,-0.412 -2.242,-0.901 -3.018,-1.794 -2.454,-2.823 0.206,-7.242 3.331,-9.299 3.125,-2.056 11.841,-3.643 8.3,-7.183 -5.949,-5.62 -15.192,-4.941 -23.367,-5.323 -8.828,-0.413 -17.575,-2.503 -25.637,-6.125 -6.842,-3.073 -10.01,-6.842 -13.391,-12.728 -0.974,0.032 -1.952,0.005 -2.914,-0.078 -7.641,-0.653 -14.765,-3.946 -22.101,-6.18 -10.413,-3.171 -21.363,-4.178 -32.209,-3.671 -9.789,0.457 -19.578,4.158 -29.227,4.267 -14.501,0.163 -30.802,-19.842 -11.266,-27.206 5.382,-2.028 11.342,-1.55 17.066,-0.989 5.725,0.56 11.653,1.152 17.106,-0.677 1.998,-0.67 3.967,-1.725 5.145,-3.471 1.841,-2.73 1.316,-6.378 0.438,-9.551 -4.717,-17.043 -18.028,-31.468 -34.638,-37.537 -8.86,-3.237 -18.78,-4.353 -26.269,-10.089 -12.156,-9.313 -14.665,-28.375 -28.165,-35.603 -14.834,-7.943 -34.546,2.977 -49.497,-4.743 -1.047,-0.541 -2.066,-1.18 -2.85,-2.06 -3.119,-3.504 -1.118,-9.487 2.776,-12.103 3.894,-2.616 8.874,-2.807 13.564,-2.902 8.407,-0.17 16.913,-0.324 25.036,-2.496 8.123,-2.173 15.957,-6.611 20.511,-13.679 3.301,-5.123 4.93,-11.597 9.817,-15.237 2.4,-1.788 5.354,-2.679 8.3,-3.206 7.034,-1.258 14.897,-0.382 20.251,4.35 1.694,1.497 3.107,3.387 3.7,5.567 2.082,7.662 -6.136,13.973 -13.427,17.114 -7.292,3.141 -16.108,7.162 -16.845,15.067 -0.581,6.245 4.447,11.5 9.368,15.389 21.79,17.218 48.716,26.369 72.935,39.961 7.145,4.009 14.549,9 17.204,16.75 3.575,10.44 -2.579,22.845 2.544,32.619 3.144,5.998 9.671,9.232 15.437,12.785 2.249,1.386 4.433,2.879 6.549,4.462 1.273,-0.206 2.574,-0.293 3.86,-0.32 5.361,-0.114 10.739,0.595 15.888,2.093 0.53,0.154 1.068,0.329 1.586,0.542 2.065,-0.071 4.13,-0.142 6.194,-0.212 2.467,-0.084 5.762,-1.012 5.608,-3.476 -0.117,-1.896 -2.296,-2.834 -4.098,-3.438 -2.565,-0.86 -5.138,-1.926 -7.11,-3.779 -1.971,-1.853 -3.247,-4.645 -2.662,-7.286 0.596,-2.688 2.979,-4.683 5.565,-5.626 5.651,-2.061 11.914,0.065 17.388,2.559 5.473,2.495 11.114,5.448 17.115,5.039 0.722,-0.049 1.58,-0.254 1.816,-0.938 0.225,-0.65 -0.253,-1.306 -0.494,-1.95 -0.78,-2.091 1.187,-4.386 3.376,-4.817 0.233,-0.045 0.466,-0.069 0.698,-0.088 -2.457,-2.646 -3.532,-6.598 -2.521,-10.086 0.469,-1.617 1.34,-3.193 1.184,-4.869 -0.145,-1.555 -1.152,-2.88 -2.16,-4.073 -17.399,-20.602 -46.104,-29.551 -62.076,-51.277 -1.59,-2.163 -3.073,-4.532 -3.418,-7.193 -0.717,-5.528 3.836,-10.62 9.07,-12.535 5.234,-1.914 10.992,-1.446 16.556,-1.121 11.256,0.656 23.085,0.489 33.04,-4.803 6.24,-3.318 11.825,-10.955 8.223,-17.036 -2.696,-4.553 -8.8,-5.318 -14.005,-6.272 -8.267,-1.515 -17.328,-5.994 -18.939,-14.243 -0.453,-2.319 -0.253,-4.727 -0.7,-7.047 -1.33,-6.899 -8.1,-11.534 -14.908,-13.272 -16.532,-4.22 -33.388,4.185 -48.383,12.325 -2.634,1.43 -5.633,3.453 -5.571,6.449 0.048,2.29 1.919,4.072 3.651,5.571 2.486,2.153 4.972,4.305 7.458,6.457 1.283,1.111 2.697,2.743 1.994,4.288 -0.579,1.272 -2.228,1.563 -3.624,1.636 -9.086,0.479 -18.637,-1.245 -25.839,-6.805 -7.203,-5.56 -11.41,-15.519 -8.459,-24.126 1.437,-4.193 4.349,-7.696 7.281,-11.02 9.433,-10.698 20.899,-21.233 35.095,-22.61 4.981,-0.484 10.045,0.21 14.988,-0.567 5.328,-0.837 10.224,-3.331 15.263,-5.255 13.606,-5.194 28.762,-6.249 42.956,-2.989 3.399,0.78 6.903,1.896 9.317,4.413 4.059,4.232 3.771,10.824 4.545,16.638 1.269,9.54 6.212,18.543 13.58,24.735 3.171,2.665 6.757,4.818 9.81,7.617 11.85,10.865 13.348,29.428 8.999,44.906 -2.046,7.284 -5.716,14.823 -12.556,18.055 -6.479,3.063 -14.068,1.506 -21.229,1.804 -7.161,0.298 -15.567,4.163 -15.947,11.319 -0.158,2.952 1.17,5.815 2.98,8.152 5.022,6.485 13.314,9.377 21.218,11.567 12.134,3.362 25.081,5.841 37.219,2.492 4.497,-1.242 9.165,-3.67 10.821,-8.032 2.363,-6.226 -2.413,-13.424 -0.244,-19.722 1.828,-5.308 8.299,-7.946 13.817,-6.912 5.519,1.034 10.098,4.904 13.682,9.226 3.185,3.84 5.858,8.313 6.759,13.181 0.109,-0.106 0.203,-0.208 0.319,-0.317 2.018,-1.213 6.84,2.659 9.193,2.747 10.051,0.377 14.77,-2.864 22.136,-9.712 0.603,-0.56 0.99,-1.704 0.711,-2.702 -0.123,-0.441 -1.673,-2.608 -2.067,-2.842 -4.076,-2.422 -7.987,-1.193 -12.674,-1.91 -2.405,-0.368 -5.281,-1.535 -5.442,-3.962 -0.15,-2.279 2.236,-3.824 4.351,-4.688 2.623,-1.071 5.412,-1.954 7.54,-3.825 2.127,-1.872 3.392,-5.115 2.025,-7.596 -0.207,-0.375 -0.47,-0.703 -0.754,-1.015 -3.521,-0.56 -6.898,-1.685 -9.924,-3.6 -9.122,-5.777 -12.94,-18.393 -9.15,-28.503 3.791,-10.111 14.449,-17.015 25.246,-17.019 5.949,-0.002 12.576,2.548 14.653,8.122 1.71,4.586 -1.764,8.834 -5.254,11.165 8.062,6.607 28.357,4.713 38.31,3.759 9.392,-0.901 20.254,-4.319 23.097,-13.316 1.829,-5.788 -0.553,-12.357 -4.914,-16.579 -4.363,-4.222 -10.39,-6.359 -16.404,-7.181 -5.452,-0.744 -12.516,-1.676 -13.689,-7.051 -0.531,-2.437 0.502,-5.064 -0.27,-7.436 -0.64,-1.967 -2.383,-3.338 -4.045,-4.57 -20.545,-15.222 -57.953,-29.902 -66.3,-38.249 -8.347,-8.347 -3.382,-21.242 1.85,-29.94 4.023,-6.688 12.224,-9.374 19.766,-11.378 14.847,-3.944 29.864,-7.248 44.995,-9.899 11.396,-1.996 23.157,-3.615 34.463,-1.157 2.913,0.634 5.852,1.579 8.137,3.495 2.769,2.323 4.276,5.807 6.693,8.494 10.156,11.29 31.922,5.066 41.002,17.237 3.741,5.014 4.031,11.718 4.174,17.973 C 2.337,-11.472 2.426,-5.36 0,0"
             style="fill:#af1439;fill-opacity:1;fill-rule:nonzero;stroke:none"
             id="path66" /></g><g
           id="g68"
           transform="translate(549.9258,780.14)"><path
             d="m 0,0 c -7.697,-15.055 -32.16,-24.022 -48.614,-27.914 -26.707,-6.316 -52.04,-17.31 -77.209,-28.249 -13.778,-5.988 -28.321,-12.601 -36.615,-25.126 -7.069,-10.676 -8.486,-24.23 -7.146,-36.964 1.34,-12.735 5.188,-25.051 7.862,-37.574 7.769,-36.393 5.541,-74.204 0.424,-111.063 -1.835,-13.222 -4.033,-26.716 -1.486,-39.819 2.945,-15.15 11.981,-28.386 21.818,-40.279 14.326,-17.321 35.802,-35.745 56.917,-43.455"
             style="fill:none;stroke:#000000;stroke-width:10;stroke-linecap:butt;stroke-linejoin:miter;stroke-miterlimit:10;stroke-dasharray:none;stroke-opacity:1"
             id="path70" /></g><g
           id="g72"
           transform="translate(804.7428,501.974)"><path
             d="m 0,0 c -1.194,5.996 -4.541,11.901 -10.047,14.56 -5.505,2.658 -14.904,1.431 -17.553,-4.079 -0.429,-0.892 -1.513,-1.558 -1.702,-2.524 l -1.413,-2.853 c -0.643,-4.687 -0.309,-9.506 0.974,-14.059 0.458,-1.627 1.052,-3.251 2.09,-4.585 1.996,-2.568 5.359,-3.704 8.597,-4.01 0.988,-0.093 1.982,-0.096 2.976,-0.053 3.393,-0.691 7.102,0.048 9.89,2.131 1.084,0.81 2.007,1.808 2.763,2.923 1.413,1.325 2.589,2.91 3.23,4.729 C 0.683,-5.33 0.516,-2.588 0,0"
             style="fill:#a5802d;fill-opacity:1;fill-rule:nonzero;stroke:none"
             id="path74" /></g><g
           id="g76"
           transform="translate(755.1833,664.9836)"><path
             d="M 0,0 C -0.177,1.2 -0.421,2.496 -1.318,3.312 L -5.4,8.501 c 0,0 -4.058,4.497 -6.905,8.068 -1.947,2.44 -3.992,4.961 -6.808,6.306 -3.64,1.738 -7.905,1.221 -11.899,0.665 -24.965,-3.474 -37.919,0.746 -62.884,-2.728 -7.862,-3.261 -18.318,-6.267 -25.828,-11.468 -6.998,-4.846 -15.999,-10.22 -13.956,-18.483 1.435,-5.803 7.134,-9.416 12.573,-11.894 10.079,-4.592 16.98,-9.256 27.664,-12.854 8.977,-3.564 13.14,-9.336 19.671,-15.679 7.362,-7.152 7.529,-8.257 7.293,-19.404 -0.225,-10.67 -0.48,-21.338 -0.72,-32.007 -0.105,-4.66 -0.128,-9.631 2.379,-13.56 2.507,-3.93 8.564,-5.922 11.917,-2.684 1.825,1.763 2.324,4.457 2.679,6.97 1.59,11.257 2.182,22.656 1.766,34.017 -0.389,10.637 -1.324,22.418 5.301,30.748 10.164,12.78 32.999,10.7 41.093,24.881 C 1.424,-14.494 1.028,-6.961 0,0"
             style="fill:#b2492c;fill-opacity:1;fill-rule:nonzero;stroke:none"
             id="path78" /></g></g></g><text
       transform="matrix(0.16385359,0.98867477,0.90552922,-0.15007401,185.4541,655.1279)"
       style="font-variant:normal;font-weight:normal;font-stretch:normal;font-size:176.493px;font-family:'Arno Pro';-inkscape-font-specification:ArnoPro-Regular;writing-mode:lr-tb;fill:#b9d8c2;fill-opacity:1;fill-rule:nonzero;stroke:none"
       id="text82"><tspan
         x="0"
         y="0"
         id="tspan80"
         style="fill:#b9d8c2;fill-opacity:1">T</tspan></text><text
       transform="matrix(0.50298731,0.88756267,0.81292011,-0.46068699,208.5439,775.4648)"
       style="font-variant:normal;font-weight:normal;font-stretch:normal;font-size:173.377px;font-family:'Arno Pro';-inkscape-font-specification:ArnoPro-Regular;writing-mode:lr-tb;fill:#b9d8c2;fill-opacity:1;fill-rule:nonzero;stroke:none"
       id="text86"><tspan
         x="0"
         y="0"
         id="tspan84"
         style="fill:#b9d8c2;fill-opacity:1">E</tspan></text><text
       transform="matrix(0.77654334,0.68791626,0.63006383,-0.71123788,269.1982,875.6709)"
       style="font-variant:normal;font-weight:normal;font-stretch:normal;font-size:170.494px;font-family:'Arno Pro';-inkscape-font-specification:ArnoPro-Regular;writing-mode:lr-tb;fill:#b9d8c2;fill-opacity:1;fill-rule:nonzero;stroke:none"
       id="text90"><tspan
         x="0"
         y="0"
         id="tspan88"
         style="fill:#b9d8c2;fill-opacity:1">E</tspan></text><text
       transform="matrix(0.93232123,0.39483653,0.36163119,-0.85391479,358.5254,952.0312)"
       style="font-variant:normal;font-weight:normal;font-stretch:normal;font-size:174.695px;font-family:'Arno Pro';-inkscape-font-specification:ArnoPro-Regular;writing-mode:lr-tb;fill:#b9d8c2;fill-opacity:1;fill-rule:nonzero;stroke:none"
       id="text94"><tspan
         x="0"
         y="0"
         id="tspan92"
         style="fill:#b9d8c2;fill-opacity:1">K</tspan></text><text
       transform="matrix(0.99934818,-0.03941484,-0.03610021,-0.91530454,478.5752,1010.0791)"
       style="font-variant:normal;font-weight:normal;font-stretch:normal;font-size:176.852px;font-family:'Arno Pro';-inkscape-font-specification:ArnoPro-Regular;writing-mode:lr-tb;fill:#b9d8c2;fill-opacity:1;fill-rule:nonzero;stroke:none"
       id="text98"><tspan
         x="0"
         y="0"
         id="tspan96"
         style="fill:#b9d8c2;fill-opacity:1">K</tspan></text><text
       transform="matrix(0.90228112,-0.47073648,-0.43114821,-0.82640091,709.6787,985.8125)"
       style="font-variant:normal;font-weight:normal;font-stretch:normal;font-size:173.799px;font-family:'Arno Pro';-inkscape-font-specification:ArnoPro-Regular;writing-mode:lr-tb;fill:#b9d8c2;fill-opacity:1;fill-rule:nonzero;stroke:none"
       id="text102"><tspan
         x="0"
         y="0"
         id="tspan100"
         style="fill:#b9d8c2;fill-opacity:1">R</tspan></text><text
       transform="matrix(0.77279297,-0.69293254,-0.6346582,-0.7078029,814.3926,925.9258)"
       style="font-variant:normal;font-weight:normal;font-stretch:normal;font-size:170.406px;font-family:'Arno Pro';-inkscape-font-specification:ArnoPro-Regular;writing-mode:lr-tb;fill:#b9d8c2;fill-opacity:1;fill-rule:nonzero;stroke:none"
       id="text106"><tspan
         x="0"
         y="0"
         id="tspan104"
         style="fill:#b9d8c2;fill-opacity:1">I</tspan></text><text
       transform="matrix(0.54075773,-0.86873279,-0.79567369,-0.49528108,867.1172,883.3311)"
       style="font-variant:normal;font-weight:normal;font-stretch:normal;font-size:172.849px;font-family:'Arno Pro';-inkscape-font-specification:ArnoPro-Regular;writing-mode:lr-tb;fill:#b9d8c2;fill-opacity:1;fill-rule:nonzero;stroke:none"
       id="text110"><tspan
         x="0"
         y="0"
         id="tspan108"
         style="fill:#b9d8c2;fill-opacity:1">U</tspan></text><text
       transform="matrix(0.21270217,-0.98084011,-0.89835376,-0.19481447,933.334,768.2983)"
       style="font-variant:normal;font-weight:normal;font-stretch:normal;font-size:176.233px;font-family:'Arno Pro';-inkscape-font-specification:ArnoPro-Regular;writing-mode:lr-tb;fill:#b9d8c2;fill-opacity:1;fill-rule:nonzero;stroke:none"
       id="text114"><tspan
         x="0"
         y="0"
         id="tspan112"
         style="fill:#b9d8c2;fill-opacity:1">S</tspan></text><text
       transform="matrix(1.0440903,-0.0411795,-0.03771647,-0.956284,0,0)"
       style="font-variant:normal;font-weight:normal;font-stretch:normal;font-size:169.273px;font-family:'Arno Pro';-inkscape-font-specification:ArnoPro-Regular;writing-mode:lr-tb;fill:#b9d8c2;fill-opacity:1;fill-rule:nonzero;stroke:none;stroke-width:0.957147"
       id="text98-2"
       x="532.17053"
       y="-1074.1381"><tspan
         x="532.17053"
         y="-1074.1381"
         id="tspan96-1"
         style="fill:#b9d8c2;fill-opacity:1;stroke-width:0.957147">A</tspan></text></g></svg>
