<?xml version="1.0" encoding="UTF-8" standalone="no"?>
<svg
   xmlns:dc="http://purl.org/dc/elements/1.1/"
   xmlns:cc="http://creativecommons.org/ns#"
   xmlns:rdf="http://www.w3.org/1999/02/22-rdf-syntax-ns#"
   xmlns:svg="http://www.w3.org/2000/svg"
   xmlns="http://www.w3.org/2000/svg"
   xmlns:sodipodi="http://sodipodi.sourceforge.net/DTD/sodipodi-0.dtd"
   xmlns:inkscape="http://www.inkscape.org/namespaces/inkscape"
   version="1.1"
   id="svg2"
   xml:space="preserve"
   width="1587.4"
   height="1641.3066"
   viewBox="0 0 1587.4 1641.3066"
   sodipodi:docname="Teekkarius-152.svg"
   inkscape:version="1.0.2-2 (e86c870879, 2021-01-15)"><metadata
     id="metadata8"><rdf:RDF><cc:Work
         rdf:about=""><dc:format>image/svg+xml</dc:format><dc:type
           rdf:resource="http://purl.org/dc/dcmitype/StillImage" /><dc:title /></cc:Work></rdf:RDF></metadata><defs
     id="defs6"><clipPath
       clipPathUnits="userSpaceOnUse"
       id="clipPath18"><path
         d="M 0,1230.982 H 1190.551 V 0 H 0 Z"
         id="path16" /></clipPath></defs><sodipodi:namedview
     pagecolor="#002626"
     bordercolor="#666666"
     borderopacity="1"
     objecttolerance="10"
     gridtolerance="10"
     guidetolerance="10"
     inkscape:pageopacity="0"
     inkscape:pageshadow="2"
     inkscape:window-width="2560"
     inkscape:window-height="1377"
     id="namedview4"
     showgrid="false"
     inkscape:zoom="0.61414484"
     inkscape:cx="799.12375"
     inkscape:cy="830.37581"
     inkscape:window-x="1072"
     inkscape:window-y="43"
     inkscape:window-maximized="1"
     inkscape:current-layer="g10"
     inkscape:document-rotation="0" /><g
     id="g10"
     inkscape:groupmode="layer"
     inkscape:label="TPV_logot_VALMIIT"
     transform="matrix(1.3333333,0,0,-1.3333333,0,1641.3067)"><g
       id="g12"><g
         id="g14"
         clip-path="url(#clipPath18)"><g
           id="g20"
           transform="translate(888.3753,583.5507)"><path
             d="m 0,0 c -8.07,14.211 -33.656,37.699 -33.656,37.699 l -0.005,-0.003 c -1.354,-8.395 -5.062,-16.288 -10.78,-22.713 l -67.897,-76.291 c -8.524,-9.578 -20.735,-15.057 -33.557,-15.057 h -227.491 c -6.798,0 -13.507,1.543 -19.622,4.512 l -180.693,87.744 c -6.38,3.098 -11.88,7.644 -16.116,13.209 0,0 -8.675,-32.094 1.801,-40.345 12.28,-9.672 152.564,-79.484 187.252,-94.367 42.212,-18.111 146.971,-41.769 190.866,-47.646 61.625,-8.251 137.51,2.513 155.42,7.87 25.963,7.765 66.277,41.738 72.82,68.552 C 24.885,-50.023 8.07,-14.211 0,0"
             style="fill:#000000;fill-opacity:1;fill-rule:nonzero;stroke:none"
             id="path22" /></g><g
           id="g24"
           transform="translate(302.3594,777.3726)"><path
             d="m 0,0 c 0,0 65.749,82.82 105.678,116.892 21.51,18.355 47.661,18.146 85.314,14.885 l 253.891,-28.246 c 15.791,-2.853 29.794,-11.88 38.912,-25.085 l 58.462,-84.669 c 14.939,-21.636 14.142,-50.456 -1.969,-71.233 l -77.075,-99.4 c -11.425,-14.735 -29.022,-23.357 -47.666,-23.357 H 210.22 c -9.636,0 -19.132,2.309 -27.692,6.733 l -171.315,88.534 c -20.039,10.356 -32.625,31.028 -32.625,53.585 v 5.267 C -21.412,-28.325 -11.088,-13.951 0,0"
             style="fill:#ffffff;fill-opacity:1;fill-rule:nonzero;stroke:none"
             id="path26" /></g><g
           id="g28"
           transform="translate(302.3594,777.3726)"><path
             d="m 0,0 c 0,0 65.749,82.82 105.678,116.892 21.51,18.355 47.661,18.146 85.314,14.885 l 253.891,-28.246 c 15.791,-2.853 29.794,-11.88 38.912,-25.085 l 58.462,-84.669 c 14.939,-21.636 14.142,-50.456 -1.969,-71.233 l -77.075,-99.4 c -11.425,-14.735 -29.022,-23.357 -47.666,-23.357 H 210.22 c -9.636,0 -19.132,2.309 -27.692,6.733 l -171.315,88.534 c -20.039,10.356 -32.625,31.028 -32.625,53.585 v 5.267 C -21.412,-28.325 -11.088,-13.951 0,0 Z"
             style="fill:none;stroke:#231f20;stroke-width:3;stroke-linecap:butt;stroke-linejoin:miter;stroke-miterlimit:10;stroke-dasharray:none;stroke-opacity:1"
             id="path30" /></g><g
           id="g32"
           transform="translate(919.6438,340.3914)"><path
             d="m 0,0 c -4.506,4.678 -10.52,7.534 -15.967,11.071 -25.826,16.768 -39.042,48.923 -65.823,64.119 -16.33,9.266 -35.97,11.06 -54.662,9.29 -18.693,-1.77 -36.886,-6.853 -55.295,-10.548 -18.738,-3.762 -37.73,-6.09 -56.7,-8.415 -14.534,-1.781 -29.068,-3.562 -43.602,-5.343 -6.012,-0.737 -12.075,-1.475 -18.11,-0.962 -5.956,0.506 -11.731,2.218 -17.547,3.599 -11.85,2.815 -31.252,8.647 -46.09,7.566 -2.433,3.601 -5.77,6.495 -9.882,8.021 -3.686,1.368 -7.68,1.613 -11.608,1.786 -18.707,0.821 -38.882,-0.148 -53.81,-11.453 -4.025,-3.049 -7.723,-7.166 -8.26,-12.187 -0.354,-3.302 0.704,-6.573 1.748,-9.725 0.721,-2.178 1.443,-4.357 2.164,-6.535 0.331,-1.281 0.748,-2.536 1.245,-3.761 0.22,-0.663 0.439,-1.326 0.659,-1.989 l -0.233,0.986 c 4.372,-9.779 13.805,-17.461 24.379,-20.028 7.607,-1.846 15.543,-1.328 23.054,0.909 -0.832,2.857 -1.45,5.785 -1.807,8.788 -0.976,8.194 0.675,17.138 4.536,24.872 -3.641,-7.588 -5.18,-16.272 -4.23,-24.246 2.45,-20.588 16.829,-37.762 32.491,-51.347 11.352,-9.845 24.222,-18.755 38.985,-21.554 13.18,-2.499 26.714,0.066 40,1.922 41.441,5.792 83.846,4.622 124.906,-3.445 16.699,-3.281 33.596,-7.886 47.414,-17.822 10.021,-7.205 18.096,-17.088 23.161,-28.343 2.264,-5.032 3.989,-10.418 7.432,-14.73 3.442,-4.312 9.257,-7.365 14.486,-5.604 8.542,2.877 8.851,14.694 7.516,23.608 6.598,-0.789 11.908,-5.531 17.643,-8.889 5.734,-3.358 13.728,-5.14 18.533,-0.551 6.132,5.858 1.932,15.986 2.324,24.457 0.96,20.73 29.314,29.087 36.681,48.487 C 9.299,-18.599 6.974,-7.239 0,0"
             style="fill:#000000;fill-opacity:1;fill-rule:nonzero;stroke:none"
             id="path34" /></g><g
           id="g36"
           transform="translate(831.1138,735.8657)"><path
             d="m 0,0 c -0.958,2.249 -3.432,3.376 -5.695,4.302 -4.795,1.963 -9.719,3.955 -14.898,4.116 -2.865,0.088 -5.881,-0.364 -8.487,0.829 -1.751,0.802 -3.072,2.238 -4.422,3.642 2.826,5.856 2.458,13.433 -0.864,19.202 -4.566,7.931 -13.421,12.639 -22.414,14.336 -8.993,1.697 -18.249,0.782 -27.354,-0.138 -9.195,-0.929 -18.672,-2.643 -27.923,-2.496 -5.271,0.084 -10.399,1.776 -15.645,1.751 -11.55,-0.056 -32.097,-10.042 -34.408,-22.568 -0.642,-3.483 0.38,-7.081 1.937,-10.262 4.409,-9.009 13.035,-15.484 22.477,-18.866 9.443,-3.383 19.68,-3.936 29.696,-3.401 18.987,1.014 37.541,5.787 55.817,11.1 2.271,-0.104 5.137,0.661 6.843,0.594 4.827,-0.191 9.618,-1.993 13.288,-5.151 1.98,-1.703 3.661,-3.774 5.861,-5.18 4.548,-2.908 10.405,-2.472 15.743,-1.671 2.752,0.413 5.602,0.94 7.85,2.581 C -0.351,-5.64 1.091,-2.56 0,0"
             style="fill:#a58041;fill-opacity:1;fill-rule:nonzero;stroke:none"
             id="path38" /></g><g
           id="g40"
           transform="translate(733.0042,839.4313)"><path
             d="m 0,0 c 3.679,-2.324 7.564,-5.572 7.58,-9.924 0.014,-3.757 -2.93,-6.852 -6,-9.02 -10.387,-7.334 -23.727,-8.818 -36.435,-9.242 -11.829,-0.394 -23.681,-0.07 -35.47,0.969 -5.599,0.493 -11.32,1.186 -16.34,3.713 -22.71,11.432 -1.063,34.12 15.383,36.261 C -46.32,16.008 -21.741,13.733 0,0"
             style="fill:#179965;fill-opacity:1;fill-rule:nonzero;stroke:none"
             id="path42" /></g><g
           id="g44"
           transform="translate(484.3611,855.7036)"><path
             d="M 0,0 C 2.384,-0.949 5.043,-2.652 4.977,-5.217 4.944,-6.512 4.184,-7.673 3.34,-8.655 c -5.395,-6.282 -14.419,-7.826 -22.689,-8.237 -11.728,-0.583 -23.529,0.304 -35.04,2.628 -7.723,1.559 -16.394,3.525 -7.853,11.345 7.513,6.878 18.442,6.431 27.93,6.728 C -22.807,4.17 -10.877,4.328 0,0"
             style="fill:#8e4e78;fill-opacity:1;fill-rule:nonzero;stroke:none"
             id="path46" /></g><g
           id="g48"
           transform="translate(591.7391,877.678)"><path
             d="m 0,0 c 5.109,-2.508 10.155,-6.546 9.945,-11.595 -0.2,-4.816 -5.208,-8.529 -10.425,-10.308 -7.635,-2.603 -16.121,-2.386 -24.331,-2.131 -10.271,0.319 -20.811,0.687 -30.269,4.139 -4.168,1.52 -8.464,4.159 -8.939,8.025 -1.306,10.633 13.223,17.86 23.683,17.393 C -25.943,4.879 -13.213,6.486 0,0"
             style="fill:#0a4c7b;fill-opacity:1;fill-rule:nonzero;stroke:none"
             id="path50" /></g><g
           id="g52"
           transform="translate(599.1616,799.0336)"><path
             d="m 0,0 c -1.602,4.82 -5.997,8.326 -10.799,9.984 -4.801,1.657 -10,1.709 -15.072,1.439 -7.683,-0.41 -15.434,-1.548 -22.484,-4.629 -3.01,-1.314 -5.953,-3.05 -7.892,-5.7 -3.425,-4.683 -3.006,-11.046 -2.438,-16.819 0.17,-1.728 0.371,-3.541 1.37,-4.961 0.914,-1.297 2.377,-2.089 3.841,-2.701 5.342,-2.231 11.256,-2.624 17.045,-2.715 5.948,-0.093 12.289,0.292 17.903,2.106 5.957,-0.276 12.639,0.706 16.266,5.423 2.389,3.108 2.946,7.232 3.059,11.151 C 0.871,-4.922 0.789,-2.374 0,0"
             style="fill:#000000;fill-opacity:1;fill-rule:nonzero;stroke:none"
             id="path54" /></g><g
           id="g56"
           transform="translate(854.6212,745.8287)"><path
             d="m 0,0 c 2.386,-15.934 -1.634,-32.578 -11.973,-45.912 l -77.075,-99.4 c -11.425,-14.735 -29.022,-23.357 -47.667,-23.357 h -205.327 c -9.636,0 -19.131,2.309 -27.692,6.733 l -171.315,88.534 c -17.349,8.966 -29.104,25.665 -31.95,44.625 -0.444,-2.539 -0.675,-5.125 -0.675,-7.732 v -50.243 c 0,-6.208 1.287,-12.349 3.779,-18.035 l 8.428,-19.226 c 4.287,-9.778 11.916,-17.71 21.52,-22.374 l 180.693,-87.744 c 6.115,-2.97 12.824,-4.512 19.622,-4.512 h 227.491 c 12.822,0 25.033,5.479 33.557,15.057 l 67.897,76.291 c 7.32,8.226 11.364,18.853 11.364,29.865 V -5.922 C 0.677,-3.301 0.444,-1.406 0,0"
             style="fill:#ffffff;fill-opacity:1;fill-rule:nonzero;stroke:none"
             id="path58" /></g><g
           id="g60"
           transform="translate(854.6212,745.8287)"><path
             d="m 0,0 c 2.386,-15.934 -1.634,-32.578 -11.973,-45.912 l -77.075,-99.4 c -11.425,-14.735 -29.022,-23.357 -47.667,-23.357 h -205.327 c -9.636,0 -19.131,2.309 -27.692,6.733 l -171.315,88.534 c -17.349,8.966 -29.104,25.665 -31.95,44.625 -0.444,-2.539 -0.675,-5.125 -0.675,-7.732 v -50.243 c 0,-6.208 1.287,-12.349 3.779,-18.035 l 8.428,-19.226 c 4.287,-9.778 11.916,-17.71 21.52,-22.374 l 180.693,-87.744 c 6.115,-2.97 12.824,-4.512 19.622,-4.512 h 227.491 c 12.822,0 25.033,5.479 33.557,15.057 l 67.897,76.291 c 7.32,8.226 11.364,18.853 11.364,29.865 V -5.922 C 0.677,-3.301 0.444,-1.406 0,0 Z"
             style="fill:none;stroke:#231f20;stroke-width:3;stroke-linecap:butt;stroke-linejoin:miter;stroke-miterlimit:10;stroke-dasharray:none;stroke-opacity:1"
             id="path62" /></g><g
           id="g64"
           transform="translate(676.8704,162.9181)"><path
             d="m 0,0 c -2.427,5.36 -8.159,9.711 -13.927,8.553 -4.955,-0.995 -8.575,-7.351 -5.626,-11.456 -9.437,-5.008 -14.355,-15.889 -23.208,-21.868 -17.497,-11.818 -42.063,-0.392 -61.977,-7.41 -6.128,-2.16 -13.891,-5.684 -18.208,-0.827 -3.245,3.649 -1.474,9.698 2.041,13.087 3.516,3.388 8.285,5.096 12.383,7.752 5.916,3.835 10.306,9.555 15.364,14.466 10.304,10.004 23.332,16.608 35.616,24.049 12.284,7.441 24.407,16.31 31.141,28.995 6.734,12.685 6.54,30.04 -3.904,39.898 -7.602,7.176 -18.812,9.025 -29.264,8.813 -10.452,-0.213 -20.906,-2.136 -31.306,-1.082 -6.929,0.702 -13.645,2.701 -20.458,4.156 0.464,0.984 1.251,1.854 2.179,2.429 1.799,1.114 3.98,1.379 6.084,1.618 3.675,0.417 7.351,0.834 11.027,1.251 5.487,0.623 11.084,1.275 16.094,3.599 5.01,2.324 9.421,6.652 10.368,12.092 0.098,0.561 0.15,1.118 0.171,1.672 -8.868,-1.111 -17.755,-1.681 -26.487,-0.026 -12.116,2.298 -22.955,8.712 -32.727,16.38 -1.761,0.425 -3.48,1.01 -5.133,1.818 -4.543,2.221 -8.4,5.966 -13.325,7.117 -4.221,0.987 -8.62,-0.082 -12.822,-1.146 -0.203,-0.052 -0.408,-0.109 -0.612,-0.173 -1.206,2.905 -3.254,5.397 -6.065,6.787 -3.029,1.497 -6.523,1.602 -9.876,2.019 -9.147,1.138 -22.474,4.889 -29.663,10.982 -3.2,2.713 -4.431,6.347 -8.18,8.566 -3.891,2.304 -8.93,1.45 -12.63,4.356 -2.96,2.327 -4.133,6.304 -6.828,8.932 -1.753,1.709 -4.14,2.676 -6.578,2.847 0.253,0.56 0.238,1.203 0.152,1.811 -0.862,6.084 -7.953,9.368 -14.095,9.165 -6.141,-0.204 -11.997,-2.715 -18.119,-3.243 -0.49,-0.042 -1.018,-0.063 -1.437,0.197 -0.55,0.341 -0.733,1.062 -0.727,1.709 0.034,3.635 4.004,5.675 6.803,7.995 1.14,0.946 2.228,2.466 1.576,3.797 -0.449,0.917 -1.536,1.297 -2.523,1.563 -5.792,1.558 -11.732,2.048 -17.709,1.732 -0.246,-0.013 -1.153,0.007 -2.339,-0.009 0.094,2.54 -2.273,5.253 -4.727,6.666 -3.112,1.792 -6.997,3.418 -7.805,6.917 5.135,1.766 10.706,1.523 16.136,1.565 18.953,0.144 37.869,4.046 55.332,11.414 3.229,1.362 6.783,3.278 7.574,6.692 0.992,4.285 -2.883,8.009 -6.359,10.703 -4.442,3.442 -15.646,5.671 -13.326,10.326 1.77,2.57 5.866,1.012 6.152,3.877 0.016,0.994 -0.459,1.772 -1.194,2.363 0.695,0.1 1.387,0.209 2.068,0.324 l 17.998,3.039 c 1.308,0.221 2.651,0.454 3.786,1.142 1.655,1.003 2.636,2.845 3.141,4.713 1.774,6.566 -2.164,14.164 -8.553,16.499 -3.868,1.413 -8.704,1.309 -11.233,4.559 -1.602,2.058 -1.728,4.865 -1.787,7.473 -0.888,39.247 -1.776,78.494 -2.663,117.742 -0.153,6.733 -0.118,14.065 4.031,19.371 7.031,8.993 21.012,7.026 31.586,11.325 0.766,0.312 1.524,0.677 2.216,1.128 9.417,-6.143 20.265,-9.861 31.753,-9.319 17.155,0.81 32.475,10.578 49.037,15.125 7.375,2.025 15.076,3.034 22.094,6.073 7.019,3.04 13.519,8.703 14.892,16.227 1.552,8.506 -4.103,17.135 -11.706,21.254 -7.603,4.12 -16.682,4.513 -25.288,3.672 -8.606,-0.841 -17.101,-2.816 -25.743,-3.081 -10.271,-0.316 -20.457,1.792 -30.422,4.297 -10.802,2.717 -22.103,5.927 -32.888,3.143 -21.27,-5.49 -20.73,-26.976 -9.591,-40.967 1.188,-1.491 2.436,-2.948 3.737,-4.364 -6.61,-2.223 -13.66,-6.987 -20.023,-9.373 -4.327,-1.622 -8.941,-3.465 -11.488,-7.322 -2.369,-3.588 -2.444,-8.168 -2.44,-12.468 0.04,-38.892 0.08,-77.785 0.12,-116.677 0.002,-1.643 -0.014,-3.361 -0.781,-4.814 -0.944,-1.789 -2.857,-2.846 -4.76,-3.533 -4.698,-1.697 -9.834,-1.736 -14.646,-3.076 -4.812,-1.341 -9.693,-4.634 -10.43,-9.575 -1.003,-6.718 6.132,-11.981 12.819,-13.177 6.687,-1.196 13.782,-0.109 20.167,-2.426 0.115,-3.422 -5.079,-3.817 -7.483,-6.255 -2.573,-2.61 -1.059,-7.246 1.973,-9.36 -3.518,-0.35 -6.993,-1.142 -10.307,-2.374 -1.109,-0.412 -2.242,-0.901 -3.018,-1.794 -2.454,-2.823 0.206,-7.242 3.331,-9.299 3.125,-2.056 11.841,-3.643 8.3,-7.183 -5.949,-5.62 -15.192,-4.941 -23.367,-5.323 -8.828,-0.413 -17.575,-2.503 -25.637,-6.125 -6.842,-3.073 -10.01,-6.842 -13.391,-12.728 -0.974,0.032 -1.952,0.005 -2.914,-0.078 -7.641,-0.653 -14.765,-3.946 -22.101,-6.18 -10.413,-3.171 -21.363,-4.178 -32.209,-3.671 -9.789,0.457 -19.578,4.158 -29.227,4.267 -14.501,0.163 -30.802,-19.842 -11.266,-27.206 5.382,-2.028 11.342,-1.55 17.066,-0.989 5.725,0.56 11.653,1.152 17.106,-0.677 1.998,-0.67 3.967,-1.725 5.145,-3.471 1.841,-2.73 1.316,-6.378 0.438,-9.551 -4.717,-17.043 -18.028,-31.468 -34.638,-37.537 -8.86,-3.237 -18.78,-4.353 -26.269,-10.089 -12.156,-9.313 -14.665,-28.375 -28.165,-35.603 -14.834,-7.943 -34.546,2.977 -49.497,-4.743 -1.047,-0.541 -2.066,-1.18 -2.85,-2.06 -3.119,-3.504 -1.118,-9.487 2.776,-12.103 3.894,-2.616 8.874,-2.807 13.564,-2.902 8.407,-0.17 16.913,-0.324 25.036,-2.496 8.123,-2.173 15.957,-6.611 20.511,-13.679 3.301,-5.123 4.93,-11.597 9.817,-15.237 2.4,-1.788 5.354,-2.679 8.3,-3.206 7.034,-1.258 14.897,-0.382 20.251,4.35 1.694,1.497 3.107,3.387 3.7,5.567 2.082,7.662 -6.136,13.973 -13.427,17.114 -7.292,3.141 -16.108,7.162 -16.845,15.067 -0.581,6.245 4.447,11.5 9.368,15.389 21.79,17.218 48.716,26.369 72.935,39.961 7.145,4.009 14.549,9 17.204,16.75 3.575,10.44 -2.579,22.845 2.544,32.619 3.144,5.998 9.671,9.232 15.437,12.785 2.249,1.386 4.433,2.879 6.549,4.462 1.273,-0.206 2.574,-0.293 3.86,-0.32 5.361,-0.114 10.739,0.595 15.888,2.093 0.53,0.154 1.068,0.329 1.586,0.542 2.065,-0.071 4.13,-0.142 6.194,-0.212 2.467,-0.084 5.762,-1.012 5.608,-3.476 -0.117,-1.896 -2.296,-2.834 -4.098,-3.438 -2.565,-0.86 -5.138,-1.926 -7.11,-3.779 -1.971,-1.853 -3.247,-4.645 -2.662,-7.286 0.596,-2.688 2.979,-4.683 5.565,-5.626 5.651,-2.061 11.914,0.065 17.388,2.559 5.473,2.495 11.114,5.448 17.115,5.039 0.722,-0.049 1.58,-0.254 1.816,-0.938 0.225,-0.65 -0.253,-1.306 -0.494,-1.95 -0.78,-2.091 1.187,-4.386 3.376,-4.817 0.233,-0.045 0.466,-0.069 0.698,-0.088 -2.457,-2.646 -3.532,-6.598 -2.521,-10.086 0.469,-1.617 1.34,-3.193 1.184,-4.869 -0.145,-1.555 -1.152,-2.88 -2.16,-4.073 -17.399,-20.602 -46.104,-29.551 -62.076,-51.277 -1.59,-2.163 -3.073,-4.532 -3.418,-7.193 -0.717,-5.528 3.836,-10.62 9.07,-12.535 5.234,-1.914 10.992,-1.446 16.556,-1.121 11.256,0.656 23.085,0.489 33.04,-4.803 6.24,-3.318 11.825,-10.955 8.223,-17.036 -2.696,-4.553 -8.8,-5.318 -14.005,-6.272 -8.267,-1.515 -17.328,-5.994 -18.939,-14.243 -0.453,-2.319 -0.253,-4.727 -0.7,-7.047 -1.33,-6.899 -8.1,-11.534 -14.908,-13.272 -16.532,-4.22 -33.388,4.185 -48.383,12.325 -2.634,1.43 -5.633,3.453 -5.571,6.449 0.048,2.29 1.919,4.072 3.651,5.571 2.486,2.153 4.972,4.305 7.458,6.457 1.283,1.111 2.697,2.743 1.994,4.288 -0.579,1.272 -2.228,1.563 -3.624,1.636 -9.086,0.479 -18.637,-1.245 -25.839,-6.805 -7.203,-5.56 -11.41,-15.519 -8.459,-24.126 1.437,-4.193 4.349,-7.696 7.281,-11.02 9.433,-10.698 20.899,-21.233 35.095,-22.61 4.981,-0.484 10.045,0.21 14.988,-0.567 5.328,-0.837 10.224,-3.331 15.263,-5.255 13.606,-5.194 28.762,-6.249 42.956,-2.989 3.399,0.78 6.903,1.896 9.317,4.413 4.059,4.232 3.771,10.824 4.545,16.638 1.269,9.54 6.212,18.543 13.58,24.735 3.171,2.665 6.757,4.818 9.81,7.617 11.85,10.865 13.348,29.428 8.999,44.906 -2.046,7.284 -5.716,14.823 -12.556,18.055 -6.479,3.063 -14.068,1.506 -21.229,1.804 -7.161,0.298 -15.567,4.163 -15.947,11.319 -0.158,2.952 1.17,5.815 2.98,8.152 5.022,6.485 13.314,9.377 21.218,11.567 12.134,3.362 25.081,5.841 37.219,2.492 4.497,-1.242 9.165,-3.67 10.821,-8.032 2.363,-6.226 -2.413,-13.424 -0.244,-19.722 1.828,-5.308 8.299,-7.946 13.817,-6.912 5.519,1.034 10.098,4.904 13.682,9.226 3.185,3.84 5.858,8.313 6.759,13.181 0.109,-0.106 0.203,-0.208 0.319,-0.317 2.018,-1.213 6.84,2.659 9.193,2.747 10.051,0.377 14.77,-2.864 22.136,-9.712 0.603,-0.56 0.99,-1.704 0.711,-2.702 -0.123,-0.441 -1.673,-2.608 -2.067,-2.842 -4.076,-2.422 -7.987,-1.193 -12.674,-1.91 -2.405,-0.368 -5.281,-1.535 -5.442,-3.962 -0.15,-2.279 2.236,-3.824 4.351,-4.688 2.623,-1.071 5.412,-1.954 7.54,-3.825 2.127,-1.872 3.392,-5.115 2.025,-7.596 -0.207,-0.375 -0.47,-0.703 -0.754,-1.015 -3.521,-0.56 -6.898,-1.685 -9.924,-3.6 -9.122,-5.777 -12.94,-18.393 -9.15,-28.503 3.791,-10.111 14.449,-17.015 25.246,-17.019 5.949,-0.002 12.576,2.548 14.653,8.122 1.71,4.586 -1.764,8.834 -5.254,11.165 8.062,6.607 28.357,4.713 38.31,3.759 9.392,-0.901 20.254,-4.319 23.097,-13.316 1.829,-5.788 -0.553,-12.357 -4.914,-16.579 -4.363,-4.222 -10.39,-6.359 -16.404,-7.181 -5.452,-0.744 -12.516,-1.676 -13.689,-7.051 -0.531,-2.437 0.502,-5.064 -0.27,-7.436 -0.64,-1.967 -2.383,-3.338 -4.045,-4.57 -20.545,-15.222 -57.953,-29.902 -66.3,-38.249 -8.347,-8.347 -3.382,-21.242 1.85,-29.94 4.023,-6.688 12.224,-9.374 19.766,-11.378 14.847,-3.944 29.864,-7.248 44.995,-9.899 11.396,-1.996 23.157,-3.615 34.463,-1.157 2.913,0.634 5.852,1.579 8.137,3.495 2.769,2.323 4.276,5.807 6.693,8.494 10.156,11.29 31.922,5.066 41.002,17.237 3.741,5.014 4.031,11.718 4.174,17.973 C 2.337,-11.472 2.426,-5.36 0,0"
             style="fill:#af1439;fill-opacity:1;fill-rule:nonzero;stroke:none"
             id="path66" /></g><g
           id="g68"
           transform="translate(549.9258,780.14)"><path
             d="m 0,0 c -7.697,-15.055 -32.16,-24.022 -48.614,-27.914 -26.707,-6.316 -52.04,-17.31 -77.209,-28.249 -13.778,-5.988 -28.321,-12.601 -36.615,-25.126 -7.069,-10.676 -8.486,-24.23 -7.146,-36.964 1.34,-12.735 5.188,-25.051 7.862,-37.574 7.769,-36.393 5.541,-74.204 0.424,-111.063 -1.835,-13.222 -4.033,-26.716 -1.486,-39.819 2.945,-15.15 11.981,-28.386 21.818,-40.279 14.326,-17.321 35.802,-35.745 56.917,-43.455"
             style="fill:none;stroke:#000000;stroke-width:10;stroke-linecap:butt;stroke-linejoin:miter;stroke-miterlimit:10;stroke-dasharray:none;stroke-opacity:1"
             id="path70" /></g><g
           id="g72"
           transform="translate(804.7428,501.974)"><path
             d="m 0,0 c -1.194,5.996 -4.541,11.901 -10.047,14.56 -5.505,2.658 -14.904,1.431 -17.553,-4.079 -0.429,-0.892 -1.513,-1.558 -1.702,-2.524 l -1.413,-2.853 c -0.643,-4.687 -0.309,-9.506 0.974,-14.059 0.458,-1.627 1.052,-3.251 2.09,-4.585 1.996,-2.568 5.359,-3.704 8.597,-4.01 0.988,-0.093 1.982,-0.096 2.976,-0.053 3.393,-0.691 7.102,0.048 9.89,2.131 1.084,0.81 2.007,1.808 2.763,2.923 1.413,1.325 2.589,2.91 3.23,4.729 C 0.683,-5.33 0.516,-2.588 0,0"
             style="fill:#a5802d;fill-opacity:1;fill-rule:nonzero;stroke:none"
             id="path74" /></g><g
           id="g76"
           transform="translate(755.1833,664.9836)"><path
             d="M 0,0 C -0.177,1.2 -0.421,2.496 -1.318,3.312 L -5.4,8.501 c 0,0 -4.058,4.497 -6.905,8.068 -1.947,2.44 -3.992,4.961 -6.808,6.306 -3.64,1.738 -7.905,1.221 -11.899,0.665 -24.965,-3.474 -37.919,0.746 -62.884,-2.728 -7.862,-3.261 -18.318,-6.267 -25.828,-11.468 -6.998,-4.846 -15.999,-10.22 -13.956,-18.483 1.435,-5.803 7.134,-9.416 12.573,-11.894 10.079,-4.592 16.98,-9.256 27.664,-12.854 8.977,-3.564 13.14,-9.336 19.671,-15.679 7.362,-7.152 7.529,-8.257 7.293,-19.404 -0.225,-10.67 -0.48,-21.338 -0.72,-32.007 -0.105,-4.66 -0.128,-9.631 2.379,-13.56 2.507,-3.93 8.564,-5.922 11.917,-2.684 1.825,1.763 2.324,4.457 2.679,6.97 1.59,11.257 2.182,22.656 1.766,34.017 -0.389,10.637 -1.324,22.418 5.301,30.748 10.164,12.78 32.999,10.7 41.093,24.881 C 1.424,-14.494 1.028,-6.961 0,0"
             style="fill:#b2492c;fill-opacity:1;fill-rule:nonzero;stroke:none"
             id="path78" /></g></g></g><g
       aria-label="T"
       transform="matrix(0.16385359,0.98867477,0.90552922,-0.15007401,185.4541,655.1279)"
       id="text82"
       style="font-variant:normal;font-weight:normal;font-stretch:normal;font-size:176.493px;font-family:'Arno Pro';-inkscape-font-specification:ArnoPro-Regular;writing-mode:lr-tb;fill:#b9d8c2;fill-opacity:1;fill-rule:nonzero;stroke:none"><path
         d="M 81.539764,-4.5888179 C 75.362509,-5.2947899 72.362128,-5.6477759 69.538241,-6.5302409 65.478902,-7.5891988 64.066958,-9.7071148 63.537479,-15.88437 63.008,-24.885512 63.008,-73.774072 63.008,-99.718543 c 0,-0.529477 0.352986,-1.235447 0.882465,-1.411947 4.059339,-0.17649 16.413848,-0.17649 24.709019,0 3.353367,0.1765 5.471283,1.58844 6.883227,5.1183 1.411944,3.353367 2.294409,9.530622 2.823888,15.707877 0.529479,0.705972 5.118301,0.705972 5.647771,-0.176493 0.88247,-9.530622 2.29441,-23.650064 4.05934,-29.827314 -0.17649,-0.35299 -1.23545,-0.88247 -1.76493,-0.88247 -5.11829,2.29441 -9.001139,2.6474 -17.119817,2.6474 H 23.826554 c -6.53024,0 -11.119058,-1.05896 -14.2959322,-2.6474 -0.352986,-0.17649 -1.941423,0.35299 -1.941423,0.70597 -0.352986,7.5892 -2.1179159,21.708643 -3.5298599,29.121349 0.352986,0.882465 4.7653109,1.941423 5.4712829,1.411944 2.4709022,-6.706734 4.7653112,-13.060482 6.8832272,-16.413849 2.117916,-3.52986 4.412325,-4.765314 7.412705,-4.941804 6.706734,-0.17649 19.767216,-0.17649 22.767597,0 0.529479,0 1.235451,0.70597 1.235451,1.411944 0,29.297838 -0.176493,67.067339 -0.705972,80.833792 -0.176493,8.118678 -1.058958,11.6485382 -6.706734,12.7074961 -2.647395,0.705972 -7.05972,1.235451 -12.531003,1.76493 -0.529479,0.705972 -0.705972,4.23583191 0,5.11829689 C 32.474711,0.52947899 41.475854,0 54.536336,0 65.302409,0 75.715495,0.52947899 80.833792,0.52947899 81.716257,0.176493 82.069243,-3.7063529 81.539764,-4.5888179 Z"
         style="fill:#b9d8c2;fill-opacity:1"
         id="path884" /></g><g
       aria-label="E"
       transform="matrix(0.50298731,0.88756267,0.81292011,-0.46068699,208.5439,775.4648)"
       id="text86"
       style="font-variant:normal;font-weight:normal;font-stretch:normal;font-size:173.377px;font-family:'Arno Pro';-inkscape-font-specification:ArnoPro-Regular;writing-mode:lr-tb;fill:#b9d8c2;fill-opacity:1;fill-rule:nonzero;stroke:none"><path
         d="m 6.414949,-102.46581 c 3.987671,0.52013 6.93508,1.04027 9.188981,1.73377 4.161048,1.040266 4.854556,2.600659 5.20131,8.842231 0.173377,3.120786 0.173377,18.551338 0.173377,34.328645 0,19.591601 0,38.663071 -0.173377,41.957234 -0.520131,6.0681951 -1.73377,8.322096 -5.894818,9.362358 C 11.789636,-5.374687 7.108457,-5.027933 1.73377,-4.507802 1.040262,-3.640917 1.213639,0 1.907147,0.520131 9.0156039,0.520131 17.684454,0 29.300713,0 c 18.031208,0 30.514352,0.693508 45.07802,0.693508 8.668849,0 9.709111,-0.866885 10.749373,-2.774032 2.600655,-5.20131 6.414949,-18.377962 7.281834,-23.752649 -0.693508,-0.866885 -4.161048,-2.080524 -5.027933,-1.907147 -2.253901,5.20131 -5.894818,12.13639 -8.668849,15.257176 -3.120786,3.9876711 -5.374687,5.548064 -12.829898,5.721441 -7.108457,0 -22.192256,-0.173377 -25.659796,-1.040262 -2.080524,-0.6935079 -3.987671,-3.120786 -3.987671,-6.588326 -0.346754,-8.322096 -0.346754,-26.700058 -0.346754,-34.6754 0,-0.520131 0.520131,-1.387016 0.866885,-1.387016 6.414949,-0.173377 20.80524,-0.173377 26.00655,0.346754 3.987671,0.346754 5.20131,2.600655 5.894818,5.027933 0.693508,2.080524 0.866885,3.46754 1.387016,7.108457 0.866885,0.866885 5.027933,0.693508 5.894818,-0.173377 -0.173377,-4.334425 -0.346754,-9.362358 -0.346754,-15.777307 0,-6.068195 0.693508,-12.829898 1.213639,-16.297438 -0.693508,-0.866885 -4.681179,-1.040262 -5.721441,-0.520131 -0.520131,2.600655 -1.213639,5.027933 -1.907147,6.93508 -0.866885,2.774032 -2.080524,4.854556 -5.894818,5.20131 -6.241572,0.520131 -19.591601,0.520131 -26.526681,0.346754 -0.520131,0 -0.866885,-0.693508 -0.866885,-1.213639 0,-7.801965 0,-27.046811 0.173377,-36.755923 0,-0.866885 0.866885,-2.947409 2.080524,-3.294163 2.253901,-0.173377 23.232518,-0.173377 26.526681,0 5.721441,0.520131 7.281834,2.427278 8.66885,6.588326 0.693508,2.600655 1.387016,5.548064 1.907147,10.575997 0.520131,0.520131 4.681178,0.520131 5.374686,-0.346754 0.520131,-6.93508 1.73377,-18.551342 3.120786,-23.752652 0,-0.17337 -0.520131,-0.69351 -0.693508,-0.86688 -3.640917,0.52013 -12.65652,0.69351 -19.244846,0.69351 H 29.647467 c -9.709112,0 -18.724716,-0.69351 -23.059141,-0.69351 -0.693508,0.86688 -1.040262,4.16105 -0.173377,4.85455 z"
         style="fill:#b9d8c2;fill-opacity:1"
         id="path887" /></g><g
       aria-label="E"
       transform="matrix(0.77654334,0.68791626,0.63006383,-0.71123788,269.1982,875.6709)"
       id="text90"
       style="font-variant:normal;font-weight:normal;font-stretch:normal;font-size:170.494px;font-family:'Arno Pro';-inkscape-font-specification:ArnoPro-Regular;writing-mode:lr-tb;fill:#b9d8c2;fill-opacity:1;fill-rule:nonzero;stroke:none"><path
         d="m 6.3082781,-100.76196 c 3.9213619,0.51149 6.8197599,1.022968 9.0361819,1.704944 4.091856,1.022964 4.773832,2.55741 5.11482,8.695194 0.170494,3.068892 0.170494,18.242859 0.170494,33.757813 0,19.265822 0,38.020163 -0.170494,41.259549 -0.511482,5.9672898 -1.70494,8.1837119 -5.796796,9.2066759 -3.068892,0.85247 -7.6722299,1.193458 -12.957544,1.70494 C 1.022964,-3.5803741 1.193458,0 1.875434,0.51148201 8.8656882,0.51148201 17.390388,0 28.813487,0 c 17.731376,0 30.006944,0.68197601 44.32844,0.68197601 8.524701,0 9.547665,-0.85247001 10.570629,-2.72790401 2.55741,-5.1148201 6.308278,-18.072364 7.160748,-23.357678 -0.681976,-0.852471 -4.091856,-2.045929 -4.944326,-1.875435 -2.216422,5.114821 -5.796796,11.934581 -8.524701,15.003473 -3.068892,3.9213618 -5.285314,5.4558079 -12.616556,5.6263019 -6.990254,0 -21.823232,-0.170494 -25.233112,-1.022964 -2.045928,-0.6819761 -3.921362,-3.0688919 -3.921362,-6.4787719 -0.340988,-8.183712 -0.340988,-26.256077 -0.340988,-34.098801 0,-0.511482 0.511482,-1.363952 0.85247,-1.363952 6.308278,-0.170494 20.45928,-0.170494 25.5741,0.340988 3.921362,0.340988 5.11482,2.55741 5.796796,4.944326 0.681976,2.045928 0.85247,3.40988 1.363952,6.990254 0.85247,0.85247 4.944326,0.681976 5.796796,-0.170494 -0.170494,-4.26235 -0.340988,-9.206676 -0.340988,-15.514954 0,-5.96729 0.681976,-12.616556 1.193458,-16.026436 -0.681976,-0.85247 -4.603338,-1.022964 -5.626302,-0.511482 -0.511482,2.55741 -1.193458,4.944326 -1.875434,6.81976 -0.85247,2.727904 -2.045928,4.773832 -5.796796,5.11482 -6.137784,0.511482 -19.265822,0.511482 -26.085582,0.340988 -0.511482,0 -0.85247,-0.681976 -0.85247,-1.193458 0,-7.67223 0,-26.597065 0.170494,-36.144729 0,-0.85247 0.85247,-2.898398 2.045928,-3.239386 2.216422,-0.170494 22.846196,-0.170494 26.085582,0 5.626302,0.511482 7.160748,2.386916 8.5247,6.478772 0.681976,2.55741 1.363952,5.455808 1.875434,10.400134 0.511482,0.511482 4.603339,0.511482 5.285315,-0.340988 0.511482,-6.81976 1.70494,-18.242858 3.068892,-23.35768 0,-0.17049 -0.511482,-0.68197 -0.681976,-0.85247 -3.580374,0.51148 -12.446063,0.68198 -18.924835,0.68198 H 29.154475 c -9.547665,0 -18.413353,-0.68198 -22.6757029,-0.68198 -0.681976,0.85247 -1.022964,4.09186 -0.170494,4.77383 z"
         style="fill:#b9d8c2;fill-opacity:1"
         id="path890" /></g><g
       aria-label="K"
       transform="matrix(0.93232123,0.39483653,0.36163119,-0.85391479,358.5254,952.0312)"
       id="text94"
       style="font-variant:normal;font-weight:normal;font-stretch:normal;font-size:174.695px;font-family:'Arno Pro';-inkscape-font-specification:ArnoPro-Regular;writing-mode:lr-tb;fill:#b9d8c2;fill-opacity:1;fill-rule:nonzero;stroke:none"><path
         d="m 35.463086,-56.601182 c 0,-12.053956 0,-27.951202 0.174695,-35.637782 0.349391,-5.93963 0.873476,-8.035966 4.891461,-9.084136 1.921645,-0.69878 5.93963,-1.22287 8.73475,-1.74695 0.524085,-1.04817 0.524085,-4.19268 0,-4.89146 -4.716765,0 -12.053955,0.52408 -21.138096,0.52408 -11.355175,0 -17.993586,-0.52408 -22.0115707,-0.52408 -0.8734751,0.69878 -0.8734751,4.19268 0,4.89146 3.1445101,0.34939 6.6384107,0.87347 8.7347507,1.39756 4.54207,1.22286 5.24085,2.969811 5.59024,8.210661 0.34939,10.307006 0.174695,23.234436 0.174695,37.210037 0.174695,15.198465 0.174695,31.619796 -0.174695,40.005156 -0.34939,6.4637156 -1.04817,9.0841407 -5.764935,10.3070058 -2.271035,0.524085 -5.5902406,0.873475 -9.6082258,1.39756 -0.524085,0.69878 -0.524085,4.5420702 0,5.06615522 C 7.6865803,0.52408502 18.517671,0 26.553641,0 35.463086,0 45.246007,0.52408502 51.010942,0.52408502 51.709722,0 52.059112,-3.8432902 51.360332,-4.5420702 c -4.19268,-0.524085 -7.162495,-1.04817 -9.78292,-1.5722551 -4.54207,-1.222865 -5.415545,-3.3192051 -5.939631,-11.0057857 -0.174695,-12.22865 -0.174695,-24.981386 -0.174695,-39.481071 z m 29.872847,-46.468868 c 3.84329,0.52408 6.9878,1.22286 9.08414,1.92164 2.271035,0.69878 3.319205,1.746951 3.319205,3.144511 0,1.921645 -1.04817,4.017985 -3.4939,7.33719 -9.957615,12.578041 -28.125896,32.493272 -36.336561,35.637782 -0.34939,0.34939 -0.524085,2.09634 -0.34939,2.79512 1.222865,0.69878 2.969815,2.271035 3.319205,2.79512 9.43353,12.053955 31.095711,36.860646 39.131681,44.1978368 2.44573,2.0963401 4.891461,3.6685951 7.162496,4.54207017 4.54207,1.57225507 22.710351,1.92164513 28.824671,1.22286505 C 117.04565,0 117.22035,-3.8432902 116.69626,-4.5420702 c -5.06615,-0.174695 -8.03597,-0.524085 -12.05395,-1.7469501 -2.27104,-0.69878 -4.36738,-1.74695 -6.987801,-3.8432897 -11.704565,-9.258836 -37.384731,-37.734122 -44.023142,-47.691737 -0.174695,-0.34939 -0.174695,-0.524085 0,-0.873475 7.861276,-8.210666 20.788706,-21.487486 31.445102,-33.366747 7.33719,-8.210661 11.52987,-9.433531 21.312791,-11.005781 0.87347,-0.69878 0.87347,-4.36738 0.17469,-4.89146 -4.89146,0.17469 -9.608221,0.52408 -20.963396,0.52408 -8.734751,0 -14.499686,-0.52408 -20.089926,-0.52408 -0.69878,0.69878 -0.873475,4.19268 -0.174695,4.89146 z"
         style="fill:#b9d8c2;fill-opacity:1"
         id="path893" /></g><g
       aria-label="K"
       transform="matrix(0.99934818,-0.03941484,-0.03610021,-0.91530454,478.5752,1010.0791)"
       id="text98"
       style="font-variant:normal;font-weight:normal;font-stretch:normal;font-size:176.852px;font-family:'Arno Pro';-inkscape-font-specification:ArnoPro-Regular;writing-mode:lr-tb;fill:#b9d8c2;fill-opacity:1;fill-rule:nonzero;stroke:none"><path
         d="m 35.900957,-57.30005 c 0,-12.202788 0,-28.29632 0.176852,-36.077809 0.353704,-6.012968 0.88426,-8.135191 4.951856,-9.196301 1.945372,-0.70741 6.012968,-1.23797 8.8426,-1.76852 0.530556,-1.06111 0.530556,-4.24445 0,-4.95186 -4.775004,0 -12.202788,0.53056 -21.399092,0.53056 -11.495381,0 -18.215757,-0.53056 -22.2833528,-0.53056 -0.88426,0.70741 -0.88426,4.24445 0,4.95186 3.1833361,0.3537 6.7203758,0.88426 8.8425998,1.41481 4.598153,1.23797 5.305561,3.006487 5.659265,8.312047 0.353704,10.434269 0.176852,23.521317 0.176852,37.669477 0.176852,15.386125 0.176852,32.010213 -0.176852,40.49911 -0.353704,6.5435237 -1.061112,9.1963038 -5.836117,10.4342678 -2.299076,0.530556 -5.6592637,0.8842601 -9.7268599,1.4148161 -0.530556,0.707408 -0.530556,4.5981521 0,5.12870812 C 7.7814882,0.53055602 18.746313,0 26.881505,0 35.900957,0 45.804669,0.53055602 51.640785,0.53055602 52.348193,0 52.701897,-3.8907441 51.994489,-4.5981521 47.750041,-5.1287081 44.743557,-5.6592642 42.090777,-6.1898202 37.492625,-7.4277842 36.608365,-9.5500083 36.077809,-17.331496 35.900957,-29.711137 35.900957,-42.621333 35.900957,-57.30005 Z m 30.241693,-47.04263 c 3.890744,0.53055 7.07408,1.23796 9.196304,1.94537 2.299076,0.70741 3.360188,1.76852 3.360188,3.183335 0,1.945372 -1.061112,4.067596 -3.53704,7.427784 -10.080564,12.733345 -28.473173,32.894473 -36.785217,36.077809 -0.353704,0.353704 -0.530556,2.122224 -0.353704,2.829633 1.237964,0.707408 3.006484,2.299076 3.360188,2.829632 9.550008,12.202788 31.479657,37.315773 39.614849,44.7435568 2.475928,2.1222241 4.951856,3.7138922 7.250932,4.59815218 4.598153,1.59166805 22.99076,1.94537202 29.18058,1.23796404 C 118.49084,0 118.6677,-3.8907441 118.13714,-4.5981521 c -5.12871,-0.176852 -8.13519,-0.530556 -12.20279,-1.7685201 -2.29908,-0.707408 -4.4213,-1.76852 -7.074079,-3.8907438 -11.849085,-9.373157 -37.846329,-38.200033 -44.566705,-48.280598 -0.176852,-0.353704 -0.176852,-0.530556 0,-0.88426 7.95834,-8.312044 21.045388,-21.752796 31.83336,-33.778733 7.427785,-8.312043 11.672233,-9.550003 21.575944,-11.141673 0.88426,-0.70741 0.88426,-4.4213 0.17685,-4.95186 -4.95185,0.17685 -9.726857,0.53056 -21.222238,0.53056 -8.8426,0 -14.678716,-0.53056 -20.33798,-0.53056 -0.707408,0.70741 -0.88426,4.24445 -0.176852,4.95186 z"
         style="fill:#b9d8c2;fill-opacity:1"
         id="path896" /></g><g
       aria-label="R"
       transform="matrix(0.90228112,-0.47073648,-0.43114821,-0.82640091,709.6787,985.8125)"
       id="text102"
       style="font-variant:normal;font-weight:normal;font-stretch:normal;font-size:173.799px;font-family:'Arno Pro';-inkscape-font-specification:ArnoPro-Regular;writing-mode:lr-tb;fill:#b9d8c2;fill-opacity:1;fill-rule:nonzero;stroke:none"><path
         d="m 5.2139699,-102.54141 c 3.4759799,0.3476 6.7781611,0.869 9.3851461,1.39039 4.344975,1.0428 5.561568,3.128386 5.735367,7.994758 0.173799,5.387769 0.173799,22.767669 0.173799,40.495166 0,9.558945 -0.173799,33.195608 -0.347598,37.192985 -0.347598,6.6043622 -1.73799,8.6899502 -5.909166,9.5589451 -2.259387,0.521397 -5.0401712,0.868995 -8.8637491,1.390392 -0.868995,0.695196 -0.868995,4.3449749 0,5.04017089 C 8.6899498,0.52139699 16.163307,0 27.460241,0 38.930975,0 47.273327,0.52139699 50.575508,0.52139699 51.444503,-0.173799 51.792101,-3.8235779 50.923106,-4.5187739 c -3.997377,-0.521397 -7.125759,-1.042794 -9.732744,-1.564191 -3.997377,-0.8689949 -5.21397,-2.4331859 -5.561568,-8.3423521 -0.347598,-5.735367 -0.347598,-21.898673 -0.347598,-31.457618 0,-0.173799 0.347598,-1.042794 0.695196,-1.042794 2.433186,0 9.906543,-0.173799 12.339729,0.173799 1.390392,0 3.128382,0.868995 4.344975,2.606985 6.604362,9.385146 17.2061,26.765045 23.810462,34.5860002 2.954583,3.6497789 5.735367,5.7353669 8.342352,6.9519599 6.430563,3.12838189 20.33448,3.6497789 27.80784,3.30218088 1.04279,-0.34759799 1.39039,-4.34497488 1.04279,-4.86637188 -10.42794,-1.390392 -12.86112,-2.259387 -19.986881,-9.5589451 -8.516151,-8.689949 -22.246272,-27.807839 -28.329237,-37.540583 -0.173799,-0.347598 0,-0.868995 0.347598,-1.216593 10.42794,-4.692573 19.813086,-13.382522 19.813086,-27.981638 0,-14.599116 -10.775538,-26.765045 -31.11002,-26.765045 -6.95196,0 -15.989508,0.3476 -28.850634,0.3476 -5.387768,0 -15.8157082,-0.5214 -19.9868841,-0.5214 -0.695196,0.3476 -1.042794,4.17118 -0.347598,4.86637 z m 37.7143821,1.2166 c 18.596493,0 26.938844,9.55894 26.938844,25.896046 0,11.296934 -5.735366,17.553698 -11.296934,20.160683 -3.302181,1.390392 -10.775538,1.73799 -22.420071,1.390392 -0.521397,0 -0.868995,-0.521397 -0.868995,-0.868995 0,-13.556321 0,-37.192985 0.347598,-43.102151 0,-0.868995 0.695196,-2.259385 1.216593,-2.606985 1.73799,-0.6952 4.692573,-0.86899 6.082965,-0.86899 z"
         style="fill:#b9d8c2;fill-opacity:1"
         id="path902" /></g><g
       aria-label="I"
       transform="matrix(0.77279297,-0.69293254,-0.6346582,-0.7078029,814.3926,925.9258)"
       id="text106"
       style="font-variant:normal;font-weight:normal;font-stretch:normal;font-size:170.406px;font-family:'Arno Pro';-inkscape-font-specification:ArnoPro-Regular;writing-mode:lr-tb;fill:#b9d8c2;fill-opacity:1;fill-rule:nonzero;stroke:none"><path
         d="m 5.1121802,-100.53954 c 4.6009621,0.681621 7.8386758,1.022433 10.3947668,1.874463 3.578526,1.022436 3.919338,3.578526 4.26015,7.838676 0.511218,8.009082 0.511218,19.085473 0.511218,33.058765 0,22.323187 0,39.875005 -0.681624,44.646374 -0.340812,3.9193377 -1.022436,6.3050218 -5.964211,7.3274578 -2.385684,0.681624 -4.9417737,1.022436 -8.6907058,1.363248 C 4.2601501,-3.9193381 4.2601501,0 5.1121802,0.51121802 10.565172,0.51121802 19.085473,0 28.798615,0 37.148509,0 46.691246,0.51121802 50.78099,0.51121802 51.462614,0 51.803426,-3.7489321 51.121802,-4.4305562 c -4.089744,-0.511218 -7.668271,-1.022436 -10.053955,-1.70406 -5.11218,-1.1928421 -5.793804,-4.0897438 -5.96421,-9.0315188 -0.340812,-5.96421 -0.340812,-22.323186 -0.340812,-39.193381 0,-14.825322 -0.170406,-29.139427 0.340812,-36.296479 0.340812,-5.282586 1.022436,-7.497864 4.941774,-8.5203 2.044872,-0.511218 4.941775,-0.852035 8.690707,-1.363245 0.511218,-0.85203 0.340812,-4.08975 -0.170406,-4.77137 -4.26015,0 -12.269233,0.51122 -21.130345,0.51122 -8.861112,0 -18.5742547,-0.51122 -22.1527808,-0.51122 -0.511218,0.51122 -0.85203,4.08974 -0.170406,4.77137 z"
         style="fill:#b9d8c2;fill-opacity:1"
         id="path905" /></g><g
       aria-label="U"
       transform="matrix(0.54075773,-0.86873279,-0.79567369,-0.49528108,867.1172,883.3311)"
       id="text110"
       style="font-variant:normal;font-weight:normal;font-stretch:normal;font-size:172.849px;font-family:'Arno Pro';-inkscape-font-specification:ArnoPro-Regular;writing-mode:lr-tb;fill:#b9d8c2;fill-opacity:1;fill-rule:nonzero;stroke:none"><path
         d="m 4.321225,-101.98091 c 3.111282,0.51855 7.086809,1.03709 8.988148,1.72849 3.629829,1.209944 4.666923,3.975528 4.839772,8.469602 0.345698,8.815298 0,52.718944 1.382792,63.608431 2.247037,18.8405411 14.346467,31.285669 41.656609,31.285669 18.149145,0 36.816836,-7.086809 41.829454,-30.421424 2.93844,-12.09943 2.41989,-24.717407 3.45698,-60.151452 0.17285,-8.296751 1.20995,-11.408033 6.22257,-12.790826 1.90134,-0.6914 4.66692,-1.03709 7.25966,-1.72849 0.69139,-0.3457 0.51854,-4.32122 0,-4.83977 -2.93844,0 -10.71664,0.51855 -18.49485,0.51855 -10.02524,0 -17.630595,-0.51855 -20.741877,-0.51855 -0.691396,0.51855 -0.864245,4.14837 -0.172849,4.83977 3.802678,0.6914 6.395413,0.86425 8.815298,1.55564 5.704017,1.037096 7.605356,3.284133 7.778205,11.926582 0.691396,17.630598 0.345698,36.989686 -0.345698,50.12621 -1.555641,27.310142 -15.556409,31.631367 -29.902876,31.631367 -16.420655,0 -26.445897,-7.778205 -29.902877,-17.457749 -1.901339,-3.802678 -2.938433,-10.37094 -3.284131,-17.630598 -0.345698,-9.160997 -0.518547,-32.495612 -0.172849,-49.434813 0.172849,-6.049715 1.209943,-7.951054 5.18547,-9.160999 2.074188,-0.69139 4.494074,-0.86424 8.123903,-1.55564 0.691396,-0.51855 0.691396,-4.32122 0,-4.83977 -4.321225,0 -12.272279,0.51855 -20.396182,0.51855 -8.123903,0 -18.840541,-0.51855 -21.951823,-0.51855 -0.691396,0.51855 -0.864245,4.32122 -0.172849,4.83977 z"
         style="fill:#b9d8c2;fill-opacity:1"
         id="path908" /></g><g
       aria-label="S"
       transform="matrix(0.21270217,-0.98084011,-0.89835376,-0.19481447,933.334,768.2983)"
       id="text114"
       style="font-variant:normal;font-weight:normal;font-stretch:normal;font-size:176.233px;font-family:'Arno Pro';-inkscape-font-specification:ArnoPro-Regular;writing-mode:lr-tb;fill:#b9d8c2;fill-opacity:1;fill-rule:nonzero;stroke:none"><path
         d="m 12.865009,-30.312076 c -0.881165,-0.528699 -5.1107569,0.528699 -5.4632229,1.586097 0.528699,5.991922 3.3484269,24.143921 4.9345239,26.43495 4.229592,2.114796 14.803572,5.463223 25.377552,5.463223 24.848854,0 39.123727,-15.332271 39.123727,-32.603105 0,-12.865009 -7.754252,-20.266795 -16.918368,-26.082485 -5.991922,-3.52466 -14.803573,-7.754252 -21.852893,-12.33631 -7.401786,-5.110757 -11.983844,-10.221514 -11.983844,-20.090562 0.176233,-8.635417 6.344388,-17.975762 18.504465,-17.975762 5.28699,0 10.397748,0.88116 14.274874,3.70089 4.229592,2.819727 5.815689,7.754251 6.873087,18.151998 0.528699,0.881165 4.582058,0.881165 5.110757,-0.176233 0.704932,-8.635417 1.76233,-18.504465 2.995961,-24.320155 -7.401786,-0.70493 -14.627339,-2.99596 -26.787417,-2.99596 -19.209397,0 -34.717901,10.92645 -34.717901,29.783377 0,15.86097 10.57398,24.496387 26.258717,33.484271 15.860971,9.340349 23.086524,14.803572 23.086524,26.43495 0,13.2174749 -9.869048,18.504465 -18.856932,18.504465 -6.696854,0 -12.865009,-1.409864 -17.270834,-4.7582911 C 19.561863,-12.33631 16.037203,-19.38563 12.865009,-30.312076 Z"
         style="fill:#b9d8c2;fill-opacity:1"
         id="path911" /></g><g
       aria-label="A"
       transform="matrix(1.0440903,-0.0411795,-0.03771647,-0.956284,0,0)"
       id="text98-2"
       style="font-variant:normal;font-weight:normal;font-stretch:normal;font-size:169.273px;font-family:'Arno Pro';-inkscape-font-specification:ArnoPro-Regular;writing-mode:lr-tb;fill:#b9d8c2;fill-opacity:1;fill-rule:nonzero;stroke:none;stroke-width:0.957147"><path
         d="m 528.44653,-1078.5392 c -0.6771,0.6771 -0.6771,4.2319 0,4.909 3.21618,0 8.46365,-0.5079 18.11221,-0.5079 9.47928,0 18.11221,0.5079 21.66694,0.5079 0.50782,-0.6771 0.84637,-4.2319 0.33855,-4.909 -3.21619,-0.3385 -6.09383,-0.8463 -8.12511,-1.3541 -5.24746,-1.3542 -5.58601,-3.2162 -5.41673,-6.0939 0.33854,-4.0625 5.75528,-18.2815 9.14074,-27.4222 0.16927,-0.5078 1.01564,-1.5235 1.69273,-1.5235 2.03127,-0.1692 3.21619,0 14.04966,0 7.61728,0 13.54184,-0.1692 15.91166,0 0.33854,0 1.35418,0.6771 1.52346,1.185 3.04691,7.6172 8.1251,21.8362 10.15637,29.1149 0.50782,1.5235 0.33855,3.2162 -1.862,4.2318 -2.53909,0.8464 -5.58601,1.3542 -9.31001,1.862 -0.67709,0.6771 -0.33855,4.2319 0.16927,4.909 3.55473,-0.1693 13.88039,-0.5079 22.17476,-0.5079 7.61729,0 16.25021,0.3386 20.65131,0.5079 0.50782,-0.6771 1.01564,-4.4011 0.33854,-4.909 -12.18765,-1.5234 -13.37256,-2.3698 -18.28148,-13.7111 -5.92455,-14.0496 -24.71386,-67.7092 -28.09932,-77.3577 -1.18491,-3.2162 -2.03127,-6.2631 -2.70836,-8.8022 -0.50782,0 -2.20055,0.1692 -5.58601,0.1692 -2.87764,0 -4.90892,-0.1692 -5.58601,-0.1692 -0.33855,2.3698 -1.52346,6.0938 -2.87764,9.6485 -3.72401,10.8335 -19.63567,53.9981 -28.26859,74.4802 -5.58601,13.034 -7.61729,14.2189 -19.80494,15.7423 z m 52.98244,-82.2666 c 2.70837,7.2787 9.14075,26.068 12.52621,36.5629 0.33854,0.6771 -0.16928,1.3542 -0.50782,1.3542 -1.69273,0.1693 -7.27874,0.1693 -11.34129,0.1693 -6.43238,0 -11.84911,0 -13.54184,-0.1693 -0.50782,-0.1693 -0.6771,-0.5078 -0.6771,-1.1849 2.87765,-8.9715 9.81784,-28.0993 12.69548,-36.563 0.16927,-0.3385 0.67709,-0.1692 0.84636,-0.1692 z"
         style="fill:#b9d8c2;fill-opacity:1;stroke-width:0.957147"
         id="path899" /></g></g></svg>
