<?xml version="1.0" encoding="UTF-8" standalone="no"?>
<svg
   xmlns:dc="http://purl.org/dc/elements/1.1/"
   xmlns:cc="http://creativecommons.org/ns#"
   xmlns:rdf="http://www.w3.org/1999/02/22-rdf-syntax-ns#"
   xmlns:svg="http://www.w3.org/2000/svg"
   xmlns="http://www.w3.org/2000/svg"
   xmlns:sodipodi="http://sodipodi.sourceforge.net/DTD/sodipodi-0.dtd"
   xmlns:inkscape="http://www.inkscape.org/namespaces/inkscape"
   version="1.1"
   id="svg2"
   xml:space="preserve"
   width="240"
   height="146.21179"
   viewBox="0 0 240 146.21179"
   sodipodi:docname="TPTMK.svg"
   inkscape:version="1.0.2-2 (e86c870879, 2021-01-15)"><metadata
     id="metadata8"><rdf:RDF><cc:Work
         rdf:about=""><dc:format>image/svg+xml</dc:format><dc:type
           rdf:resource="http://purl.org/dc/dcmitype/StillImage" /><dc:title></dc:title></cc:Work></rdf:RDF></metadata><defs
     id="defs6"><clipPath
       clipPathUnits="userSpaceOnUse"
       id="clipPath18"><path
         d="M 0,141.732 H 141.732 V 0 H 0 Z"
         id="path16" /></clipPath></defs><sodipodi:namedview
     pagecolor="#ffffff"
     bordercolor="#666666"
     borderopacity="1"
     objecttolerance="10"
     gridtolerance="10"
     guidetolerance="10"
     inkscape:pageopacity="0"
     inkscape:pageshadow="2"
     inkscape:window-width="2560"
     inkscape:window-height="1377"
     id="namedview4"
     showgrid="false"
     inkscape:zoom="5.3340107"
     inkscape:cx="54.023146"
     inkscape:cy="73.1722"
     inkscape:window-x="1072"
     inkscape:window-y="43"
     inkscape:window-maximized="1"
     inkscape:current-layer="g10" /><g
     id="g10"
     inkscape:groupmode="layer"
     inkscape:label="TPTMK"
     transform="matrix(1.3333333,0,0,-1.3333333,-40.464853,167.6602)"><g
       id="g12"
       transform="translate(47.175742)"><g
         id="g14"
         clip-path="url(#clipPath18)"><g
           id="g20"
           transform="translate(73.8213,17.5225)"><path
             d="m 0,0 c 0,0 -49.799,15.009 -40.913,105.838 0,0 19.953,-10.652 40.913,0.848"
             style="fill:none;stroke:#000000;stroke-width:3;stroke-linecap:butt;stroke-linejoin:miter;stroke-miterlimit:10;stroke-dasharray:none;stroke-opacity:1"
             id="path22" /></g><g
           id="g24"
           transform="translate(72.6739,17.5225)"><path
             d="m 0,0 c 0,0 49.623,15.009 40.767,105.838 0,0 -19.881,-10.652 -40.767,0.848"
             style="fill:none;stroke:#000000;stroke-width:3;stroke-linecap:butt;stroke-linejoin:miter;stroke-miterlimit:10;stroke-dasharray:none;stroke-opacity:1"
             id="path26" /></g><g
           id="g28"
           transform="translate(51.3877,80.6211)"><path
             d="m 0,0 c 0,-12.137 9.838,-21.975 21.974,-21.975 12.136,0 21.974,9.838 21.974,21.975 0,12.136 -9.838,21.973 -21.974,21.973 C 9.838,21.973 0,12.136 0,0 Z"
             style="fill:none;stroke:#000000;stroke-width:6;stroke-linecap:butt;stroke-linejoin:miter;stroke-miterlimit:10;stroke-dasharray:none;stroke-opacity:1"
             id="path30" /></g><g
           id="g32"
           transform="translate(76.4756,104.9483)"><path
             d="M 0,0 H -6.052 L -6.58,4.63 h 6.932 z"
             style="fill:#000000;fill-opacity:1;fill-rule:nonzero;stroke:none"
             id="path34" /></g><g
           id="g36"
           transform="translate(76.4756,104.9483)"><path
             d="M 0,0 H -6.052 L -6.58,4.63 h 6.932 z"
             style="fill:none;stroke:#000000;stroke-width:1;stroke-linecap:butt;stroke-linejoin:miter;stroke-miterlimit:10;stroke-dasharray:none;stroke-opacity:1"
             id="path38" /></g><g
           id="g40"
           transform="translate(89.96,98.3487)"><path
             d="m 0,0 -4.793,3.696 2.411,3.99 5.486,-4.234 z"
             style="fill:#000000;fill-opacity:1;fill-rule:nonzero;stroke:none"
             id="path42" /></g><g
           id="g44"
           transform="translate(89.96,98.3487)"><path
             d="m 0,0 -4.793,3.696 2.411,3.99 5.486,-4.234 z"
             style="fill:none;stroke:#000000;stroke-width:1;stroke-linecap:butt;stroke-linejoin:miter;stroke-miterlimit:10;stroke-dasharray:none;stroke-opacity:1"
             id="path46" /></g><g
           id="g48"
           transform="translate(97.6827,83.7979)"><path
             d="M 0,0 -1.584,5.841 2.746,7.562 4.56,0.872 Z"
             style="fill:#000000;fill-opacity:1;fill-rule:nonzero;stroke:none"
             id="path50" /></g><g
           id="g52"
           transform="translate(97.6827,83.7979)"><path
             d="M 0,0 -1.584,5.841 2.746,7.562 4.56,0.872 Z"
             style="fill:none;stroke:#000000;stroke-width:1;stroke-linecap:butt;stroke-linejoin:miter;stroke-miterlimit:10;stroke-dasharray:none;stroke-opacity:1"
             id="path54" /></g><g
           id="g56"
           transform="translate(94.1641,66.4239)"><path
             d="M 0,0 2.343,5.581 6.815,4.275 4.134,-2.115 Z"
             style="fill:#000000;fill-opacity:1;fill-rule:nonzero;stroke:none"
             id="path58" /></g><g
           id="g60"
           transform="translate(94.1641,66.4239)"><path
             d="M 0,0 2.343,5.581 6.815,4.275 4.134,-2.115 Z"
             style="fill:none;stroke:#000000;stroke-width:1;stroke-linecap:butt;stroke-linejoin:miter;stroke-miterlimit:10;stroke-dasharray:none;stroke-opacity:1"
             id="path62" /></g><g
           id="g64"
           transform="translate(80.5157,57.1836)"><path
             d="M 0,0 5.582,2.341 7.857,-1.725 1.466,-4.405 Z"
             style="fill:#000000;fill-opacity:1;fill-rule:nonzero;stroke:none"
             id="path66" /></g><g
           id="g68"
           transform="translate(80.5157,57.1836)"><path
             d="M 0,0 5.582,2.341 7.857,-1.725 1.466,-4.405 Z"
             style="fill:none;stroke:#000000;stroke-width:1;stroke-linecap:butt;stroke-linejoin:miter;stroke-miterlimit:10;stroke-dasharray:none;stroke-opacity:1"
             id="path70" /></g><g
           id="g72"
           transform="translate(48.9395,83.7979)"><path
             d="M 0,0 1.585,5.841 -2.746,7.562 -4.56,0.872 Z"
             style="fill:#000000;fill-opacity:1;fill-rule:nonzero;stroke:none"
             id="path74" /></g><g
           id="g76"
           transform="translate(48.9395,83.7979)"><path
             d="M 0,0 1.585,5.841 -2.746,7.562 -4.56,0.872 Z"
             style="fill:none;stroke:#000000;stroke-width:1;stroke-linecap:butt;stroke-linejoin:miter;stroke-miterlimit:10;stroke-dasharray:none;stroke-opacity:1"
             id="path78" /></g><g
           id="g80"
           transform="translate(52.5586,66.4239)"><path
             d="m 0,0 -2.343,5.581 -4.472,-1.306 2.681,-6.39 z"
             style="fill:#000000;fill-opacity:1;fill-rule:nonzero;stroke:none"
             id="path82" /></g><g
           id="g84"
           transform="translate(52.5586,66.4239)"><path
             d="m 0,0 -2.343,5.581 -4.472,-1.306 2.681,-6.39 z"
             style="fill:none;stroke:#000000;stroke-width:1;stroke-linecap:butt;stroke-linejoin:miter;stroke-miterlimit:10;stroke-dasharray:none;stroke-opacity:1"
             id="path86" /></g><g
           id="g88"
           transform="translate(67.8897,56.8692)"><path
             d="m 0,0 -5.583,2.341 -2.275,-4.067 6.391,-2.679 z"
             style="fill:#000000;fill-opacity:1;fill-rule:nonzero;stroke:none"
             id="path90" /></g><g
           id="g92"
           transform="translate(67.8897,56.8692)"><path
             d="m 0,0 -5.583,2.341 -2.275,-4.067 6.391,-2.679 z"
             style="fill:none;stroke:#000000;stroke-width:1;stroke-linecap:butt;stroke-linejoin:miter;stroke-miterlimit:10;stroke-dasharray:none;stroke-opacity:1"
             id="path94" /></g><g
           id="g96"
           transform="translate(56.0171,98.3487)"><path
             d="M 0,0 4.793,3.696 2.382,7.686 -3.105,3.452 Z"
             style="fill:#000000;fill-opacity:1;fill-rule:nonzero;stroke:none"
             id="path98" /></g><g
           id="g100"
           transform="translate(56.0171,98.3487)"><path
             d="M 0,0 4.793,3.696 2.382,7.686 -3.105,3.452 Z"
             style="fill:none;stroke:#000000;stroke-width:1;stroke-linecap:butt;stroke-linejoin:miter;stroke-miterlimit:10;stroke-dasharray:none;stroke-opacity:1"
             id="path102" /></g></g></g></g></svg>
